<?xml version="1.0" encoding="UTF-8"?>
<svg version="1.1" xmlns="http://www.w3.org/2000/svg" width="600" height="600">
<path d="M0 0 C198 0 396 0 600 0 C600 198 600 396 600 600 C402 600 204 600 0 600 C0 402 0 204 0 0 Z " fill="#FEFEFE" transform="translate(0,0)"/>
<path d="M0 0 C13.15173557 -0.70038828 23.08270082 0.99268967 33.453125 9.4140625 C35 11 35 11 35 13 C35.66 13 36.32 13 37 13 C37.20625 12.4225 37.4125 11.845 37.625 11.25 C40.12420851 7.16038607 43.84684596 5.42134474 48.25 3.8125 C52.85054623 2.81571498 57.30364462 2.27512709 62 2 C63.11117187 1.93425781 64.22234375 1.86851563 65.3671875 1.80078125 C75.81531281 1.46927618 84.67562755 3.37834009 93 10 C93.61681641 10.87785156 93.61681641 10.87785156 94.24609375 11.7734375 C96.49021133 14.75343103 98.29404915 16.70525664 102.10546875 17.36376953 C105.49143363 17.64661483 108.84937907 17.75423738 112.24682617 17.73706055 C118.54031321 17.73016872 118.54031321 17.73016872 121.58203125 19.515625 C122.04996094 20.00546875 122.51789063 20.4953125 123 21 C122.74297526 25.3694206 122.39976667 27.51822991 119.5625 30.9375 C117 33 117 33 115 33 C115.03480469 33.88042969 115.06960938 34.76085937 115.10546875 35.66796875 C115.13253906 36.82941406 115.15960938 37.99085937 115.1875 39.1875 C115.22230469 40.33605469 115.25710938 41.48460937 115.29296875 42.66796875 C114.97622579 46.27039199 114.08533398 48.09366839 112 51 C111.154375 50.13375 110.30875 49.2675 109.4375 48.375 C105.29395722 44.77376139 100.56957154 43.08116901 95.50537109 41.19433594 C90.67561799 39.36515932 86.95858992 37.2827331 83 34 C80.74076365 34.90369454 79.29912002 35.56723061 77.8984375 37.59375 C76.65098839 40.93474415 76.6163601 44.22624174 76.5 47.75 C76.30246723 52.16371583 76.10413439 56.41830654 74.875 60.6875 C73.9850683 64.05652714 73.71102072 65.7775518 75 69 C79.17567196 73.33032647 84.58052445 73.05955697 90.25 73.1875 C95.67956717 73.15026017 100.73591673 72.2789096 106 71 C105.71860799 74.28290679 104.99007485 76.01424837 103.08984375 78.7421875 C98.71460205 81.93926677 94.86474947 81.89781308 89.5625 82.125 C80.84673608 82.45614929 80.84673608 82.45614929 73 86 C71.49439252 87.74450338 71.49439252 87.74450338 70.625 89.6875 C70.08875 90.780625 69.5525 91.87375 69 93 C69.4640625 92.71125 69.928125 92.4225 70.40625 92.125 C78.63396167 87.70414 89.4098502 87.4802634 98.375 90 C105.02150936 91.83351982 110.64103322 92.08177193 116.8125 88.75 C120.06519603 86.72571577 123.10753728 84.51924173 126 82 C125.88857611 88.23973799 124.57272572 91.73304567 120.19140625 96.23828125 C111.87408172 102.92475784 101.17117267 102.74476355 91 103 C97.39881933 108.07492567 104.76132205 107.84905816 112.62304688 107.34765625 C117.42760678 106.64493508 121.64639557 104.52225612 126.02368164 102.5144043 C132.56677153 99.5704343 138.24417698 98.42026858 145.234375 100.7421875 C149.7168733 102.78121868 153.44246782 105.62034443 157 109 C157 109.66 157 110.32 157 111 C156.44538086 110.84080078 155.89076172 110.68160156 155.31933594 110.51757812 C146.86045265 108.62991154 139.62372124 110.4183627 131.75 113.5 C118.85889689 118.12930683 108.66491635 118.53443531 95.51171875 113.875 C93.12851497 112.89034124 93.12851497 112.89034124 91 113 C88.97754169 117.17132026 88.62946282 120.38512788 89 125 C90.18542382 127.47221404 91.34438851 129.59483034 92.8125 131.875 C100.63496488 144.77460319 100.63496488 144.77460319 99.55859375 150.2421875 C99.37425781 150.82226562 99.18992187 151.40234375 99 152 C96.62386831 150.58520403 94.24908342 149.16822586 91.875 147.75 C91.20984375 147.35425781 90.5446875 146.95851562 89.859375 146.55078125 C73.20689408 136.59194462 73.20689408 136.59194462 71.1796875 128.87890625 C70.68487698 125.92049688 70.28432876 122.98545194 70 120 C67.83341465 121.49479421 67.83341465 121.49479421 66 124 C65.28697558 129.97465289 66.44539307 133.94435195 69.25 139.25 C73.34477988 147.50274761 77.34500481 155.60206891 77 165 C68.18190432 163.74698463 61.27225944 156.98316112 55.69140625 150.41015625 C52.98922813 146.55970845 51.42399782 142.45703273 50 138 C49.67 137.01 49.34 136.02 49 135 C48.69766413 143.82372842 48.85198022 151.49716754 51.328125 160.046875 C52.88767377 166.90163589 52.55950185 174.17089108 51 181 C50.34 181 49.68 181 49 181 C48.49210937 180.10539063 47.98421875 179.21078125 47.4609375 178.2890625 C46.76581548 177.06759991 46.07048848 175.84625397 45.375 174.625 C45.01325684 173.98884766 44.65151367 173.35269531 44.27880859 172.69726562 C42.12454029 168.9227823 39.90930757 165.19786423 37.625 161.5 C33.37347219 154.37175909 32.17395471 148.28511097 33 140 C34.34878324 136.56673358 35.96016867 134.05974699 38 131 C31.93300068 134.46685675 27.24504164 139.26487507 25 146 C23.5215916 155.64325477 27.02520385 161.95077984 32 170 C33.12536612 171.87478028 34.25040144 173.7497592 35.375 175.625 C35.85710937 176.40101563 36.33921875 177.17703125 36.8359375 177.9765625 C39.24498996 182.16411007 39.69888225 186.28254483 39 191 C36.31131426 198.62566905 32.69406986 203.53561333 25.5 207.3125 C22.58164609 208.11504732 20.01277198 208.14012893 17 208 C17.28875 207.45472656 17.5775 206.90945313 17.875 206.34765625 C20.57715033 200.8589134 22.15201754 196.12918072 21 190 C19.88888477 187.42898897 18.55595714 185.35751082 17 183 C16.67 182.01 16.34 181.02 16 180 C15.34 180 14.68 180 14 180 C13.67 180.99 13.34 181.98 13 183 C8.27912591 186.20499709 2.43542783 185.80524857 -3 185 C-6.18739636 183.48266139 -8.72874329 181.71306281 -11 179 C-11.70703125 176.796875 -11.70703125 176.796875 -12 175 C-11.39671875 174.82984375 -10.7934375 174.6596875 -10.171875 174.484375 C-4.54229473 172.77734098 -1.18938505 171.22646218 2.1875 166.25 C3.40384908 162.88164871 3.64394229 159.56057707 4 156 C3.27296875 156.433125 3.27296875 156.433125 2.53125 156.875 C-2.62549887 159.73104553 -6.10702507 160.84185356 -12 160 C-14.75579093 158.5828855 -16.63127589 157.0726336 -19 155 C-19 154.34 -19 153.68 -19 153 C-17.7625 152.7525 -16.525 152.505 -15.25 152.25 C-11.47798184 151.3086645 -9.40423057 150.17358435 -7 147 C-5.38546008 142.15638025 -5.62930598 137.13149059 -6.5 132.125 C-7.78656153 124.08399045 -7.36246601 117.42544578 -4 110 C-4.65226562 110.04640625 -5.30453125 110.0928125 -5.9765625 110.140625 C-11.89538162 110.38506001 -15.34881773 110.06978448 -20 106 C-20.66 105.01 -21.32 104.02 -22 103 C-21.32453125 102.85304688 -20.6490625 102.70609375 -19.953125 102.5546875 C-13.95983947 101.06678958 -13.95983947 101.06678958 -9.4375 97 C-7.28347877 92.50465134 -6.87187694 89.13406999 -6.6875 84.1875 C-6.22852369 77.01414437 -5.02535016 74.02535016 0 69 C-0.65226562 68.98582031 -1.30453125 68.97164063 -1.9765625 68.95703125 C-8.37978408 68.6075929 -11.64268077 67.79305116 -16 63 C-17.88370767 59.57507696 -18.2216805 56.87940869 -18 53 C-17.154375 53.33 -16.30875 53.66 -15.4375 54 C-9.619212 55.69259287 -4.43231092 55.73647063 0.95703125 52.859375 C4.84640685 49.31952263 6.81368292 44.32428317 9.1015625 39.6640625 C11.17392043 35.50033419 13.75402471 32.32712467 17 29 C16.52949219 28.56171875 16.05898437 28.1234375 15.57421875 27.671875 C10.66395683 22.67011751 9.23873592 18.71250092 7.88671875 11.91796875 C6.64539402 7.83308077 4.40286664 5.40286664 1.42578125 2.42578125 C0.72001953 1.72001953 0.72001953 1.72001953 0 1 C0 0.67 0 0.34 0 0 Z " fill="#D3B465" transform="translate(206,81)"/>
<path d="M0 0 C9.7019046 -0.04655749 19.40377011 -0.08198728 29.10576248 -0.10362434 C33.61188992 -0.11401456 38.11794032 -0.12808565 42.62402344 -0.15087891 C46.98123674 -0.17277854 51.33837643 -0.18460433 55.69564056 -0.18975449 C57.34922187 -0.19341976 59.00279963 -0.20057612 60.65634918 -0.21146011 C77.67864611 -0.31894032 94.45553891 0.91102155 107.54296875 13.26953125 C114.2579832 21.24473608 117.38610182 29.42409763 117.3125 39.75 C117.30831055 40.54696289 117.30412109 41.34392578 117.29980469 42.16503906 C117.12025639 51.54357252 115.28098325 59.75765809 108.3984375 66.58984375 C104.86826012 69.77011368 101.38221604 72.07610028 97 74 C97.73605469 74.37511719 98.47210938 74.75023437 99.23046875 75.13671875 C109.42509833 80.48317574 116.53047359 87.26368398 120.875 98.125 C123.76943511 108.13346838 122.82656975 118.53752271 118.66015625 127.99609375 C113.05167528 138.1441452 104.2920521 145.17336177 93.14295959 148.56491089 C84.16410724 150.6740029 75.02908284 150.25001999 65.8671875 150.1953125 C64.02060093 150.19157639 62.17401237 150.18873224 60.3274231 150.18673706 C55.49746097 150.1791477 50.66762158 150.1595402 45.83770752 150.1373291 C40.89703023 150.11676882 35.95633286 150.10771369 31.015625 150.09765625 C21.34369645 150.07628935 11.67185849 150.04221095 2 150 C7.4496024 144.49794224 7.4496024 144.49794224 10.55078125 142.32421875 C11.16630859 141.88916016 11.78183594 141.45410156 12.41601562 141.00585938 C13.04185547 140.57080078 13.66769531 140.13574219 14.3125 139.6875 C14.95767578 139.23310547 15.60285156 138.77871094 16.26757812 138.31054688 C17.84197142 137.20264048 19.42055646 136.10069475 21 135 C20.53592954 130.66867567 17.70242911 128.22599802 14.8125 125.25 C10.93661426 121.15972757 7.35283312 117.05762135 4.12109375 112.42578125 C3.04002365 110.84222927 3.04002365 110.84222927 1 110 C0.82482158 101.04182034 0.65878018 92.08348515 0.5 83.125 C0.48812275 82.45516586 0.4762455 81.78533173 0.46400833 81.09519958 C-0.01192922 54.0622714 -0.11794723 27.03713399 0 0 Z " fill="#C7A250" transform="translate(366,373)"/>
<path d="M0 0 C4 5 4 5 5.71875 7.359375 C13.15851852 17.34432748 22.96046239 23.43378861 33.43457031 29.77075195 C39.51014119 33.52620885 45.11235083 37.80995461 50.75 42.1875 C64.1928088 53.7203679 64.1928088 53.7203679 80.69140625 57.6796875 C86.78782215 55.88480363 90.55756549 50.55608477 94.5 45.875 C98.50801431 41.14076292 103.113003 37.96233233 109 36 C117.38391532 35.35016667 123.82973523 35.41103055 131 40 C131 40.66 131 41.32 131 42 C126.05 42.495 126.05 42.495 121 43 C120.76925781 43.74765625 120.53851563 44.4953125 120.30078125 45.265625 C117.02187371 55.16714816 117.02187371 55.16714816 112 58 C111.01 58.33 110.02 58.66 109 59 C110.51980469 59.25523437 110.51980469 59.25523437 112.0703125 59.515625 C113.42200801 59.75968113 114.77356338 60.00451432 116.125 60.25 C116.79015625 60.35957031 117.4553125 60.46914063 118.140625 60.58203125 C123.98006081 61.66976929 128.06000842 64.00611977 132.25 68.3125 C135.94983689 73.99439237 136.23006231 79.44322406 136 86 C135.38125 85.21625 134.7625 84.4325 134.125 83.625 C132.10141339 81.03162353 132.10141339 81.03162353 130 79 C126.97797195 79.10713246 124.04101911 79.51892424 121.04296875 79.90625 C117.75323198 80.00760261 115.96768985 79.32282669 113 78 C109.2683029 77.80698118 106.54989845 77.81670052 103 79 C102.67 79.66 102.34 80.32 102 81 C102.99 81.2784375 102.99 81.2784375 104 81.5625 C109.31801213 84.11071414 113.73687249 88.10530874 117 93 C118.07691974 100.05006757 116.57603197 104.96544605 113 111 C112.34 111 111.68 111 111 111 C110.690625 109.865625 110.38125 108.73125 110.0625 107.5625 C109.37075469 104.21224901 109.37075469 104.21224901 108 103 C106.58809135 102.70536617 105.1702098 102.43909346 103.75 102.1875 C99.58305686 101.27991461 96.95416963 100.22273051 94 97 C92.6875 93.75 92.6875 93.75 92 91 C90.8553125 91.9590625 90.8553125 91.9590625 89.6875 92.9375 C84.39064163 97.00253084 78.42566333 96.70485593 72 96 C67.89759113 94.47584115 64.9494885 91.93907363 61.86328125 88.88671875 C61.12464844 88.16097656 60.38601563 87.43523437 59.625 86.6875 C58.97789062 85.99011719 58.33078125 85.29273438 57.6640625 84.57421875 C53.50531866 82.11677921 49.70716938 82.28123285 45 83 C41.62799798 84.16207384 38.56717105 85.7372088 35.4375 87.4375 C29.1238689 90.8196174 24.20195061 92.60428843 17 93 C17.495 91.515 17.495 91.515 18 90 C18.22560676 87.60745424 18.40848595 85.21071877 18.5625 82.8125 C18.68818359 80.90404297 18.68818359 80.90404297 18.81640625 78.95703125 C18.87699219 77.98121094 18.93757813 77.00539063 19 76 C18.31164062 76.50660156 18.31164062 76.50660156 17.609375 77.0234375 C12.1844087 80.96679535 8.93868732 83.31539488 2 83 C2.16113281 82.2884375 2.32226562 81.576875 2.48828125 80.84375 C2.99900693 78.00551874 3.16726701 75.38117808 3.1875 72.5 C3.20167969 71.5821875 3.21585937 70.664375 3.23046875 69.71875 C2.98342521 66.80447367 2.21293885 64.64641203 1 62 C0.41992188 62.40992188 -0.16015625 62.81984375 -0.7578125 63.2421875 C-1.53898437 63.78101563 -2.32015625 64.31984375 -3.125 64.875 C-3.89070313 65.40867187 -4.65640625 65.94234375 -5.4453125 66.4921875 C-8.21983514 68.12974979 -10.92038713 69.08057935 -14 70 C-14.12955078 68.24623047 -14.12955078 68.24623047 -14.26171875 66.45703125 C-14.40247186 64.90874699 -14.54446445 63.36057507 -14.6875 61.8125 C-14.76774414 60.65911133 -14.76774414 60.65911133 -14.84960938 59.48242188 C-15.25303699 55.39552477 -15.66369564 53.42383563 -18.28125 50.125 C-20.73282798 48.20882411 -23.05924382 46.62576815 -25.8125 45.1875 C-26.60269531 44.76855469 -27.39289063 44.34960938 -28.20703125 43.91796875 C-28.79871094 43.61503906 -29.39039063 43.31210937 -30 43 C-29.65066406 43.58007812 -29.30132812 44.16015625 -28.94140625 44.7578125 C-26.36285885 49.18444062 -24.31208509 52.79858175 -24 58 C-23.92652344 58.80050781 -23.85304688 59.60101563 -23.77734375 60.42578125 C-23.35874654 68.01419737 -25.41385765 73.3784443 -29 80 C-26.12304235 79.7436673 -23.24935733 79.47047937 -20.375 79.1875 C-19.56675781 79.11724609 -18.75851562 79.04699219 -17.92578125 78.97460938 C-12.97743924 78.47172909 -9.4034588 77.47271148 -5 75 C-4.34 75 -3.68 75 -3 75 C-3.81820632 83.72753407 -10.68964329 90.54272307 -17 96 C-20.75981057 98.58167106 -24.66743111 100.86135198 -28.625 103.125 C-38.22264858 108.44771545 -38.22264858 108.44771545 -46 116 C-47.29118144 121.61316003 -44.27231745 125.88795949 -41.5625 130.625 C-40.72660137 132.1150245 -39.89442904 133.60714696 -39.06640625 135.1015625 C-38.69459229 135.75463379 -38.32277832 136.40770508 -37.93969727 137.08056641 C-36.98026148 139.04031808 -36.4496479 140.8704628 -36 143 C-37.43228816 144.31818554 -38.87102484 145.62936704 -40.3125 146.9375 C-41.11300781 147.66839844 -41.91351563 148.39929688 -42.73828125 149.15234375 C-45 151 -45 151 -48 152 C-48.33 147.71 -48.66 143.42 -49 139 C-51.64 144.94 -54.28 150.88 -57 157 C-57.66 157 -58.32 157 -59 157 C-60.02383911 155.85079284 -60.99384347 154.65340952 -61.9375 153.4375 C-68.31523497 145.93272247 -77.42640411 141.59375385 -86 137 C-85.8364502 136.3409668 -85.67290039 135.68193359 -85.50439453 135.00292969 C-84.88302208 131.30356807 -84.90295383 127.68998854 -84.9296875 123.953125 C-84.92110059 122.36978069 -84.91062366 120.7864457 -84.8984375 119.203125 C-84.88179168 116.72975249 -84.87491266 114.25847838 -84.90039062 111.78515625 C-85.0466381 95.16612502 -85.0466381 95.16612502 -78.79150391 88.6484375 C-78.20030762 88.10445313 -77.60911133 87.56046875 -77 87 C-76.25234375 86.16210938 -75.5046875 85.32421875 -74.734375 84.4609375 C-74.07953125 83.77257812 -73.4246875 83.08421875 -72.75 82.375 C-57.30150499 65.69491614 -57.30150499 65.69491614 -50 45 C-50.42410156 45.49628906 -50.84820312 45.99257813 -51.28515625 46.50390625 C-53.17037044 48.68744005 -55.07969384 50.84727583 -57 53 C-57.5053125 53.57363281 -58.010625 54.14726562 -58.53125 54.73828125 C-62.23116185 58.69303397 -66.38405074 61.78398603 -70.8125 64.875 C-82.09964726 72.75941533 -93.11125323 81.22683672 -97 95 C-97.36939838 98.11553155 -97.35274141 101.1787411 -97.29296875 104.3125 C-97.28872391 105.16682617 -97.28447906 106.02115234 -97.28010559 106.90136719 C-97.26345703 109.60124682 -97.22583223 112.30035011 -97.1875 115 C-97.17243523 116.84243705 -97.15874998 118.68488593 -97.14648438 120.52734375 C-97.11359906 125.01852339 -97.06191456 129.50913056 -97 134 C-99.97 134 -102.94 134 -106 134 C-106.83549015 125.47258433 -107.30223249 116.9678911 -107.4050293 108.39941406 C-107.426738 107.04596645 -107.46099214 105.6926639 -107.50756836 104.33984375 C-107.89506869 92.88858856 -105.71151737 86.72699497 -98.53515625 78.00390625 C-91.78668792 71.34072662 -84.59472469 65.81351119 -76.87548828 60.33642578 C-59.09402417 47.77971085 -59.09402417 47.77971085 -49 29 C-48.62895815 24.29692404 -48.69093724 19.70462207 -49 15 C-39.7692737 16.98084255 -33.03379356 24.44930965 -28 32 C-22.93179691 24.96991184 -22.85624355 19.56941491 -22.9375 11.1875 C-22.94201172 10.30384766 -22.94652344 9.42019531 -22.95117188 8.50976562 C-22.96290134 6.33981441 -22.98083505 4.16989828 -23 2 C-14.02068276 5.23947347 -7.50646695 12.25693425 -1 19 C-0.67 12.73 -0.34 6.46 0 0 Z " fill="#D1B262" transform="translate(316,234)"/>
<path d="M0 0 C122.76 0 245.52 0 372 0 C372 11.88 372 23.76 372 36 C249.24 36 126.48 36 0 36 C0 24.12 0 12.24 0 0 Z " fill="#CBA958" transform="translate(116,534)"/>
<path d="M0 0 C3.80802445 1.4960096 5.69424557 3.66063151 8 7 C10.18446477 13.76755751 9.44169837 20.97398631 7.5 27.6875 C4.84119651 37.33983873 4.90600333 47.47147638 8 57 C8.32871094 55.85724609 8.32871094 55.85724609 8.6640625 54.69140625 C12.14657691 43.35199957 17.38289431 34.09769831 27.85546875 27.90234375 C31.62646441 26.1125776 34.86815878 25.69767015 39 26 C37.80781735 28.48371385 36.51822576 30.77705522 35.0625 33.125 C28.00371003 45.57702276 29.33842536 57.81149808 33 71.125 C37.63069971 89.48545822 37.37802983 108.40164257 34 127 C33.87109375 127.71559082 33.7421875 128.43118164 33.609375 129.16845703 C31.59778473 140.00636527 28.45750251 149.92604433 24 160 C24.66 159.67 25.32 159.34 26 159 C29.79415519 158.46881827 33.46331178 158.14910652 36.890625 160.046875 C39.0405787 161.82110863 40.74635623 163.49271246 42 166 C42.06996014 167.70702735 42.08440154 169.41668003 42.0625 171.125 C42.05347656 172.03507813 42.04445313 172.94515625 42.03515625 173.8828125 C42.02355469 174.58148438 42.01195312 175.28015625 42 176 C41.175 175.835 40.35 175.67 39.5 175.5 C31.91992659 174.41713237 26.31145679 174.3446486 20 179 C10.95449151 188.22561818 11.60340252 198.58660868 11.63427734 210.79272461 C11.83321906 224.31437339 14.71230166 236.31837201 24.3125 246.4375 C28.03023396 248.59897323 31.89020933 249.79169076 36 251 C36.99 251.33 37.98 251.66 39 252 C40.47965926 252.14573058 41.96403843 252.24663268 43.44921875 252.31640625 C44.29677734 252.35830078 45.14433594 252.40019531 46.01757812 252.44335938 C46.89865234 252.48267578 47.77972656 252.52199219 48.6875 252.5625 C49.58017578 252.60568359 50.47285156 252.64886719 51.39257812 252.69335938 C53.59490108 252.79935353 55.79733473 252.90142051 58 253 C58.33719047 255.56204544 58.66987153 258.12454318 59 260.6875 C59.09539062 261.40873047 59.19078125 262.12996094 59.2890625 262.87304688 C59.76683735 266.60992871 60.11919794 270.22291531 60 274 C54.80175597 275.73274801 49.31653777 275.26944986 43.875 275.3125 C42.67617187 275.34150391 41.47734375 275.37050781 40.2421875 275.40039062 C31.02943084 275.46605172 23.76540146 274.03335957 16.75 267.75 C16.14671875 267.22921875 15.5434375 266.7084375 14.921875 266.171875 C8.81982548 259.27606294 5.38375111 250.65316673 1.66210938 242.33789062 C1.24638672 241.43619141 0.83066406 240.53449219 0.40234375 239.60546875 C0.03616943 238.79231201 -0.33000488 237.97915527 -0.70727539 237.14135742 C-2.18425152 234.69479319 -3.56788659 233.47980628 -6 232 C-8.90887967 231.56357016 -8.90887967 231.56357016 -12 231.6875 C-13.03125 231.69136719 -14.0625 231.69523438 -15.125 231.69921875 C-17.92633186 231.99229287 -19.61170203 232.55898368 -22 234 C-21.47616397 229.89542181 -20.34834816 227.78489488 -17.5625 224.75 C-16.94503906 224.06421875 -16.32757813 223.3784375 -15.69140625 222.671875 C-13.30599428 220.3140082 -12.36898031 220.01185669 -8.9609375 219.90234375 C-7.77757812 219.91394531 -6.59421875 219.92554688 -5.375 219.9375 C-4.18648437 219.94652344 -2.99796875 219.95554687 -1.7734375 219.96484375 C-0.40058594 219.98224609 -0.40058594 219.98224609 1 220 C-1.45542742 213.05895937 -3.71642458 206.9449581 -10 202.625 C-12.65007345 201.79685205 -14.243921 201.4487842 -17 202 C-19.26916093 204.77867705 -19.26916093 204.77867705 -21 208 C-21.66 208.99 -22.32 209.98 -23 211 C-26.34649791 205.61883136 -25.57325095 199.08636812 -25 193 C-23.3125 189.375 -23.3125 189.375 -21 187 C-19.88625 185.824375 -19.88625 185.824375 -18.75 184.625 C-15.1372014 182.49016446 -12.04832448 182.33059202 -8 183 C-4.8125 184.3125 -4.8125 184.3125 -2 186 C-1.05125 186.556875 -0.1025 187.11375 0.875 187.6875 C1.57625 188.120625 2.2775 188.55375 3 189 C3.12834229 187.98647461 3.25668457 186.97294922 3.38891602 185.92871094 C3.9649545 182.22531051 4.78169501 178.75095811 5.77734375 175.140625 C6.03445885 174.19579254 6.03445885 174.19579254 6.29676819 173.23187256 C7.02015377 170.57371253 7.75304533 167.91820696 8.48608398 165.26269531 C11.79822072 153.22884662 14.35456839 141.96546574 14.3125 129.4375 C14.32861328 128.47392578 14.34472656 127.51035156 14.36132812 126.51757812 C14.36655351 118.76833034 13.28426494 111.6548239 9.125 105 C4.65173534 100.78986856 -0.30951763 100.48570772 -6.21484375 100.63671875 C-10.73299063 101.22604226 -13.82212753 102.72866069 -17 106 C-19.00920329 109.20982477 -20.58315072 112.49193567 -22 116 C-27.58827899 110.87741093 -31.45965869 105.3679809 -32.23828125 97.6328125 C-32.40986406 91.83511975 -31.99742923 88.50992016 -28 84 C-24.02851754 79.99966899 -20.59498227 77.36462982 -15 76 C-15 75.34 -15 74.68 -15 74 C-15.5775 73.773125 -16.155 73.54625 -16.75 73.3125 C-21.65874894 70.44906312 -23.54795893 66.30746048 -25 61 C-26.16711057 48.0260732 -24.27341427 38.49328229 -15.9296875 28.26953125 C-14.6103033 26.71778586 -13.28171311 25.17383352 -11.9453125 23.63671875 C-5.9800284 16.5796751 -2.03997925 9.06180256 0 0 Z " fill="#C49E4C" transform="translate(143,92)"/>
<path d="M0 0 C0 8.58 0 17.16 0 26 C-4.74672787 24.10130885 -9.14927658 21.89924179 -13.671875 19.53515625 C-20.90209162 16.20009154 -27.26652837 14.45938634 -35.25 14.5625 C-36.4872583 14.57277222 -36.4872583 14.57277222 -37.74951172 14.58325195 C-48.50627306 14.86279792 -58.02557 18.10014324 -67 24 C-67.73734375 24.46792969 -68.4746875 24.93585938 -69.234375 25.41796875 C-80.09339308 33.00055896 -88.21954924 46.37665055 -90.67578125 59.37890625 C-92.51539319 74.2509498 -89.95231977 89.606269 -81 102 C-71.50492053 113.9007426 -60.25928221 122.44452985 -45 125 C-28.05766384 126.65992002 -12.55701499 122.5269909 1 112 C3.92700833 113.30886976 5.87184315 114.66226088 8.015625 117.0390625 C8.80839844 117.90917969 8.80839844 117.90917969 9.6171875 118.796875 C10.15601563 119.40015625 10.69484375 120.0034375 11.25 120.625 C11.80429687 121.23601562 12.35859375 121.84703125 12.9296875 122.4765625 C14.2917841 123.97956565 15.64661601 125.4891468 17 127 C4.40287359 140.01483217 -13.98570238 147.9263874 -32.12841797 148.24121094 C-41.120749 148.27543846 -49.2871233 147.43834426 -58 145 C-59.03769531 144.7215625 -60.07539063 144.443125 -61.14453125 144.15625 C-79.36455505 138.73000414 -94.92789089 124.96234607 -104.00390625 108.44140625 C-113.87150562 89.70003014 -117.49086659 68.5670011 -111.39453125 47.9921875 C-107.85442642 37.28462621 -102.41077028 27.49324234 -95 19 C-94.22527344 18.030625 -93.45054687 17.06125 -92.65234375 16.0625 C-81.48847011 2.69432129 -63.32232196 -5.9893128 -46.18212891 -7.81689453 C-28.75950314 -9.27885127 -16.32017128 -6.52806851 0 0 Z " fill="#D5B768" transform="translate(362,378)"/>
<path d="M0 0 C12.90019962 -0.04638922 25.80037932 -0.08190273 38.70064545 -0.10362434 C44.69108532 -0.11405087 50.68146802 -0.12818952 56.671875 -0.15087891 C62.45551616 -0.17264746 68.2391024 -0.18457714 74.02278137 -0.18975449 C76.22671879 -0.19344302 78.43065329 -0.20064579 80.63456726 -0.21146011 C83.72714681 -0.22602821 86.8195009 -0.2279757 89.91210938 -0.22705078 C91.27157684 -0.23783661 91.27157684 -0.23783661 92.6585083 -0.24884033 C106.60325812 -0.20386365 118.5667488 5.70271805 129.125 14.5 C129.65697998 14.93820068 130.18895996 15.37640137 130.73706055 15.82788086 C134.58607679 19.18997708 136.98148959 22.35638019 139 27 C138.4296875 29.5390625 138.4296875 29.5390625 137 32 C128.18128103 51.50196708 126.24749647 68.81558241 126 90 C119.06126522 93.73353242 112.79870106 96.70021649 105 98 C111.2794374 105.40820189 117.60801427 112.74716977 124.20214844 119.87768555 C127.25678816 123.18133275 130.2410704 126.5340995 133.18359375 129.9375 C136.24645967 133.41533485 139.41414362 136.79827262 142.5703125 140.19140625 C145.28834961 143.33331731 147.63062092 146.58927459 150 150 C122.21268955 152.42323455 122.21268955 152.42323455 115.4296875 147.26953125 C112.57006231 144.43207683 110.29744349 141.24749532 108.16601562 137.83789062 C106.47997236 135.18032494 104.46812206 132.83732607 102.4375 130.4375 C101.73496094 129.55964844 101.03242188 128.68179688 100.30859375 127.77734375 C97.6472065 124.5755733 94.84539173 121.5376359 92 118.5 C88.37049392 114.62527236 84.88252041 110.71100257 81.5625 106.5625 C78.00766391 102.13352389 74.25357514 97.95569849 70.375 93.8125 C69.81731934 93.21671143 69.25963867 92.62092285 68.68505859 92.00708008 C67.61091913 90.8602773 66.53670347 89.71354587 65.46240234 88.56689453 C63.51527948 86.48064502 61.59034794 84.3767124 59.6875 82.25 C59.15511719 81.65703125 58.62273437 81.0640625 58.07421875 80.453125 C57 79 57 79 57 77 C58.28052246 76.99589111 59.56104492 76.99178223 60.88037109 76.98754883 C65.67048373 76.96563529 70.45978917 76.9112197 75.24951172 76.84741211 C77.31518772 76.82433824 79.38097959 76.80986152 81.44677734 76.80444336 C84.43138969 76.79507591 87.41420597 76.75391601 90.3984375 76.70703125 C91.30927094 76.7109639 92.22010437 76.71489655 93.15853882 76.71894836 C100.00661082 76.56611515 105.23125867 74.71259527 111 71 C113.30816623 68.68307585 113.30816623 68.68307585 114.5625 66.0625 C115.01753906 65.24910156 115.47257812 64.43570313 115.94140625 63.59765625 C118.94952298 56.2161152 119.2894394 46.80908267 117.234375 39.14453125 C114.28184318 32.27261741 109.72351391 28.99272198 103 26 C98.35165083 24.15630947 94.27488015 23.75212241 89.33325195 23.87158203 C87.79218119 23.89070057 86.25110957 23.90975055 84.71003723 23.92874146 C83.90038828 23.94239872 83.09073933 23.95605598 82.25655556 23.97012711 C77.93233213 24.03483811 73.60783209 24.03920098 69.28320312 24.0546875 C63.79640356 24.07821231 58.31136818 24.11907432 52.82543945 24.22265625 C48.37625391 24.30508208 43.93009477 24.32808025 39.48021507 24.31283188 C37.79491333 24.31776726 36.109522 24.34398031 34.42492104 24.39282608 C20.60962224 24.77722839 20.60962224 24.77722839 15.58895874 20.40008545 C12.73007785 17.4904062 10.38172531 14.30567694 8 11 C6.64501721 9.46130553 5.27448984 7.93582814 3.875 6.4375 C1.80696786 4.13693793 1.00218614 3.00655842 0 0 Z " fill="#CCAA59" transform="translate(117,373)"/>
<path d="M0 0 C0.495 0.99 0.495 0.99 1 2 C-0.6396875 2.37125 -0.6396875 2.37125 -2.3125 2.75 C-6.01003041 3.60484257 -6.01003041 3.60484257 -7.4375 6 C-9.54472094 8.69724281 -11.70571449 8.70105963 -14.93359375 9.390625 C-18.60090556 10.4721007 -20.3814991 12.19446332 -23 15 C-24.02008466 17.36385002 -24.4999294 19.44963992 -25 22 C-24.31292969 21.50628906 -23.62585938 21.01257813 -22.91796875 20.50390625 C-22.01691406 19.86324219 -21.11585938 19.22257812 -20.1875 18.5625 C-19.29417969 17.92441406 -18.40085937 17.28632812 -17.48046875 16.62890625 C-12.65288016 13.45866303 -7.61340849 12.99702788 -2 14 C2.88604954 16.68658917 6.79086404 19.79932575 9 25 C7.845 24.855625 6.69 24.71125 5.5 24.5625 C1.46838159 24.5267587 -0.29419288 25.69143828 -3.25 28.375 C-3.87390625 29.00148437 -4.4978125 29.62796875 -5.140625 30.2734375 C-8.64732188 33.52965604 -11.82713999 34.24596115 -16.5 34.875 C-19.92241712 35.46444167 -21.77829759 35.85047977 -24.6875 37.8125 C-26.28169095 40.46948492 -26.48125311 41.95206366 -26 45 C-24.15515814 47.30018542 -24.15515814 47.30018542 -21.3203125 47.08984375 C-19.1951749 46.98852301 -17.07017041 46.88436976 -14.9453125 46.77734375 C-11.58216988 47.03158663 -10.528375 47.88664983 -8 50 C-4.55072966 50.28157309 -2.29047207 50.09682402 1 49 C-1.07143221 57.01317198 -4.00625005 62.61911061 -11.25 66.9375 C-15.89264103 68.25291496 -20.20130312 68.47803111 -25 68 C-25.33 67.67 -25.66 67.34 -26 67 C-30.300639 66.46787225 -33.84507449 66.17082271 -37.4375 68.75 C-39.92595473 72.33337481 -41.23598897 74.97943595 -41.30859375 79.37890625 C-41.34351929 80.6304248 -41.34351929 80.6304248 -41.37915039 81.90722656 C-41.39840576 82.7834668 -41.41766113 83.65970703 -41.4375 84.5625 C-41.69138498 92.06666311 -42.40553756 98.88562501 -45 106 C-45.66 106 -46.32 106 -47 106 C-47.25394531 105.44570312 -47.50789063 104.89140625 -47.76953125 104.3203125 C-48.11371094 103.59585938 -48.45789063 102.87140625 -48.8125 102.125 C-49.14894531 101.40570313 -49.48539062 100.68640625 -49.83203125 99.9453125 C-50.99467097 97.69457194 -50.99467097 97.69457194 -54 96 C-54.03738281 96.79664063 -54.07476562 97.59328125 -54.11328125 98.4140625 C-54.47956941 104.31776574 -54.78602794 108.96943503 -58 114 C-58.66 113.319375 -59.32 112.63875 -60 111.9375 C-60.99524504 110.95350067 -61.99591691 109.97497923 -63 109 C-63.61617188 108.39929688 -64.23234375 107.79859375 -64.8671875 107.1796875 C-69.11788466 103.22670454 -72.26963334 101.07444375 -78 100 C-78.20625 98.824375 -78.4125 97.64875 -78.625 96.4375 C-79.66262801 92.09483461 -81.68431228 89.70038253 -84.85546875 86.640625 C-86 85 -86 85 -85.92578125 83.08203125 C-84.71083235 80.34967783 -83.05858563 78.60687756 -81 76.4375 C-76.90144829 72.01469578 -73.03540954 67.47239967 -69.2578125 62.7734375 C-67.76446002 60.93904258 -66.23842717 59.13073 -64.6796875 57.3515625 C-54.69145978 45.80584843 -49.85998245 32.46875444 -45.05078125 18.1796875 C-41.63014129 8.74045318 -36.51682966 3.1924357 -27.4296875 -1.08984375 C-18.71519288 -4.35427662 -8.36831263 -4.24253989 0 0 Z " fill="#C9A656" transform="translate(451,91)"/>
<path d="M0 0 C7.5481426 -0.08407585 15.09457196 -0.16418847 22.64277649 -0.20700073 C26.15837813 -0.22805148 29.67358882 -0.25614227 33.18896484 -0.30175781 C37.23017993 -0.35386357 41.27098629 -0.37300577 45.3125 -0.390625 C46.5617627 -0.41127014 47.81102539 -0.43191528 49.09814453 -0.45318604 C57.77017204 -0.45540523 63.11616154 0.63400667 69.8125 6.4375 C74.96041136 12.46791045 75.54037494 16.71036184 75.34375 24.55078125 C74.68918866 31.11870926 72.35637087 35.00948812 67.5 39.375 C63.06666704 42.98212091 59.81177342 44.25130997 54.03808594 44.22705078 C52.23667145 44.22682419 52.23667145 44.22682419 50.39886475 44.22659302 C49.10708313 44.21627045 47.81530151 44.20594788 46.484375 44.1953125 C45.14487927 44.19158034 43.80538079 44.18873432 42.46588135 44.18673706 C38.94771735 44.17911657 35.4297196 44.15948187 31.91162109 44.1373291 C28.31870818 44.11683643 24.7257675 44.10761833 21.1328125 44.09765625 C14.08839504 44.07729666 7.04443358 44.03814675 0 44 C0 29.48 0 14.96 0 0 Z " fill="#FEFEFE" transform="translate(390,458)"/>
<path d="M0 0 C7.36554346 -0.09213327 14.72906471 -0.17168546 22.09472656 -0.21972656 C24.59707436 -0.23976603 27.09937578 -0.26700522 29.6015625 -0.30175781 C33.21105437 -0.3506124 36.81992379 -0.37304645 40.4296875 -0.390625 C41.53738495 -0.41127014 42.6450824 -0.43191528 43.78634644 -0.45318604 C51.84692289 -0.45548274 59.05725824 0.76492984 65.4375 6 C66.2109375 6.99 66.2109375 6.99 67 8 C67.53625 8.66 68.0725 9.32 68.625 10 C72.61522986 15.80397071 72.97356073 21.04843477 72 28 C69.07263818 35.40925372 64.88407614 39.73954884 57.66743469 43.07955933 C54.73209155 44.09244606 52.48227448 44.24129781 49.38354492 44.22705078 C48.28278122 44.22689972 47.18201752 44.22674866 46.04789734 44.22659302 C44.28202019 44.21110916 44.28202019 44.21110916 42.48046875 44.1953125 C41.26676102 44.1924826 40.05305328 44.18965271 38.80256653 44.18673706 C34.93077689 44.17555308 31.05921959 44.1504513 27.1875 44.125 C24.56055022 44.11496792 21.93359681 44.10584246 19.30664062 44.09765625 C12.87093248 44.07732226 6.43572596 44.03816905 0 44 C0 29.48 0 14.96 0 0 Z " fill="#FDFCFA" transform="translate(389,394)"/>
<path d="M0 0 C0.66 0.33 1.32 0.66 2 1 C1.54109375 1.6290625 1.0821875 2.258125 0.609375 2.90625 C-3.90109029 9.19815957 -8.27704525 15.33116218 -10 23 C-9.22914063 22.50628906 -8.45828125 22.01257813 -7.6640625 21.50390625 C-6.66117188 20.86324219 -5.65828125 20.22257812 -4.625 19.5625 C-3.62726563 18.92441406 -2.62953125 18.28632812 -1.6015625 17.62890625 C1 16 1 16 3 15 C3.53767166 21.46349976 -0.12697071 25.15164582 -4 30 C-5.54907907 31.69982838 -7.11162644 33.38748208 -8.6875 35.0625 C-13.68124286 40.4645898 -16.33991413 45.88078561 -18 53 C-17.19175781 52.66226563 -16.38351563 52.32453125 -15.55078125 51.9765625 C-14.48214844 51.53054687 -13.41351563 51.08453125 -12.3125 50.625 C-11.25675781 50.18414062 -10.20101562 49.74328125 -9.11328125 49.2890625 C-6.41643343 48.17242538 -3.71283736 47.07708199 -1 46 C-1.48901346 51.72738497 -3.12876831 55.68604813 -5.875 60.6875 C-10.56336812 69.63924897 -13.20196002 77.78839651 -13 88 C-4.59352969 82.76715393 3.41144846 77.39328518 11 71 C11.96292969 70.20335937 11.96292969 70.20335937 12.9453125 69.390625 C14.30241279 68.26707221 15.65234628 67.13486629 17 66 C17.18175781 67.17755859 17.18175781 67.17755859 17.3671875 68.37890625 C18.27186083 74.05051213 19.2579299 79.52492254 21 85 C21.99 85 22.98 85 24 85 C24.268125 84.43152344 24.53625 83.86304688 24.8125 83.27734375 C26.46738717 80.1036621 28.52093167 77.25116073 30.5625 74.31640625 C32.03300733 71.94681156 33.04124796 69.61352118 34 67 C38.31320068 68.75722991 41.9031084 71.8062168 44 76 C44.07181821 78.71760108 44.09299506 81.40859388 44.0625 84.125 C44.05798828 84.87910156 44.05347656 85.63320312 44.04882812 86.41015625 C44.03703499 88.27347127 44.01909942 90.13674555 44 92 C43.34 92 42.68 92 42 92 C41.81824219 91.38511719 41.63648438 90.77023438 41.44921875 90.13671875 C41.19785156 89.32847656 40.94648438 88.52023438 40.6875 87.6875 C40.44386719 86.88699219 40.20023437 86.08648437 39.94921875 85.26171875 C38.94839972 82.8770512 37.85603953 81.75035757 36 80 C34.04102092 82.77037731 32.08292915 85.54138059 30.125 88.3125 C29.56941406 89.09818359 29.01382813 89.88386719 28.44140625 90.69335938 C27.90644531 91.45068359 27.37148438 92.20800781 26.8203125 92.98828125 C26.32805176 93.68477783 25.83579102 94.38127441 25.32861328 95.09887695 C24.19734704 96.71761459 23.09545562 98.35681656 22 100 C19.36337087 99.34084272 17.51843401 98.66168551 15.8125 96.484375 C13.76060266 93.01425449 12.68770429 89.99556194 12 86 C-3.76341728 94.81846909 -13.29418798 106.18492364 -20 123 C-25.71118574 117.92339045 -29.47176506 111.66348093 -30.19287109 103.93212891 C-30.68826485 90.37034953 -29.29497978 80.23697005 -23 68 C-24.15628906 68.75796875 -24.15628906 68.75796875 -25.3359375 69.53125 C-26.84027344 70.50578125 -26.84027344 70.50578125 -28.375 71.5 C-29.87160156 72.47453125 -29.87160156 72.47453125 -31.3984375 73.46875 C-34 75 -34 75 -36 75 C-34.54922494 68.28930587 -32.9431076 61.63738852 -31.1875 55 C-30.95224609 54.06671875 -30.71699219 53.1334375 -30.47460938 52.171875 C-28.81196642 45.92278125 -26.71062402 38.71062402 -22 34 C-26.29 33.67 -30.58 33.34 -35 33 C-33.10110472 31.73406982 -31.16303851 30.52355794 -29.1796875 29.39453125 C-25.13965458 26.3520986 -22.87084313 22.87975771 -20.125 18.6875 C-14.68350148 10.69124404 -9.35750243 3.56476283 0 0 Z " fill="#FDFCF9" transform="translate(239,109)"/>
<path d="M0 0 C0.66 0 1.32 0 2 0 C2.66 1.65 3.32 3.3 4 5 C5.65 5 7.3 5 9 5 C8.67 6.98 8.34 8.96 8 11 C9.32 11 10.64 11 12 11 C11.835 11.7425 11.67 12.485 11.5 13.25 C10.88074304 16.19006578 10.88074304 16.19006578 11 20 C11 21.66666667 11 23.33333333 11 25 C9.35 25.33 7.7 25.66 6 26 C6.495 26.61875 6.99 27.2375 7.5 27.875 C9 30 9 30 9 32 C12.40320742 30.98823563 13.75725331 30.35156418 15.8125 27.375 C16.204375 26.59125 16.59625 25.8075 17 25 C15.68 25.33 14.36 25.66 13 26 C13.33 23.36 13.66 20.72 14 18 C17 18 17 18 19 19 C19 17.35 19 15.7 19 14 C22.37705625 14.53725895 25.696686 15.11064623 29 16 C27.79618552 18.49361571 26.54571278 20.68143083 25 23 C26.32 23 27.64 23 29 23 C28.505 25.475 28.505 25.475 28 28 C26.02 27.67 24.04 27.34 22 27 C22.64506196 31.12438075 22.64506196 31.12438075 24 35 C26.99428144 36.61147442 26.99428144 36.61147442 30 37 C29.01 35.02 29.01 35.02 28 33 C29.32 33 30.64 33 32 33 C31.505 30.03 31.505 30.03 31 27 C32.65 27 34.3 27 36 27 C36 26.01 36 25.02 36 24 C36.66 24 37.32 24 38 24 C38 24.66 38 25.32 38 26 C41.3 26 44.6 26 48 26 C48 26.66 48 27.32 48 28 C47.4225 28.350625 46.845 28.70125 46.25 29.0625 C43.77374628 31.19482959 43.3635755 32.37729453 42.25 35.375 C40.35775068 40.08662482 38.07340679 41.42952981 33.70703125 43.73828125 C31.56148748 45.04825333 31.56148748 45.04825333 31 48.8125 C31 49.864375 31 50.91625 31 52 C29.35457036 52.05536025 27.70855716 52.09338848 26.0625 52.125 C24.68771484 52.15980469 24.68771484 52.15980469 23.28515625 52.1953125 C20.55014676 52.03270789 18.34219779 51.65250156 15.70703125 51.0078125 C10.96691959 49.89091531 6.48030945 49.69436883 1.625 49.75 C0.79427979 49.75386719 -0.03644043 49.75773437 -0.89233398 49.76171875 C-6.26516641 49.83720786 -11.3003169 50.38521944 -16.5546875 51.5546875 C-20.68833834 52.30746098 -24.81536566 52.16339136 -29 52 C-29.12375 50.88625 -29.2475 49.7725 -29.375 48.625 C-29.6465813 44.96896323 -29.6465813 44.96896323 -32 43 C-32.78375 42.7525 -33.5675 42.505 -34.375 42.25 C-38.64588519 40.21624515 -40.3896823 36.64022883 -42 32.3125 C-43.18231499 29.57839658 -44.51575183 28.57335717 -47 27 C-45.44655141 25.44655141 -43.77483728 25.69480726 -41.625 25.5 C-38.82678686 25.24478838 -36.69189489 24.8972983 -34 24 C-34 24.99 -34 25.98 -34 27 C-32.35 27 -30.7 27 -29 27 C-29.33 28.98 -29.66 30.96 -30 33 C-29.01 33 -28.02 33 -27 33 C-27.33 34.32 -27.66 35.64 -28 37 C-26.02 36.34 -24.04 35.68 -22 35 C-21.67 33.35 -21.34 31.7 -21 30 C-22.32 30.33 -23.64 30.66 -25 31 C-26.49821059 27.62902617 -27 25.79557881 -27 22 C-26.01 22 -25.02 22 -24 22 C-24.495 21.38125 -24.99 20.7625 -25.5 20.125 C-27 18 -27 18 -27 16 C-23.5980513 13.90649311 -20.94727588 13.82057837 -17 14 C-17 15.65 -17 17.3 -17 19 C-15.68 18.34 -14.36 17.68 -13 17 C-10.90769231 21.43076923 -10.90769231 21.43076923 -11.375 24.3125 C-11.58125 24.869375 -11.7875 25.42625 -12 26 C-13.32 25.67 -14.64 25.34 -16 25 C-13.50468769 28.86213335 -13.50468769 28.86213335 -9.4375 30.5625 C-6.84164424 30.20778431 -6.84164424 30.20778431 -5.1875 28 C-4.795625 27.34 -4.40375 26.68 -4 26 C-5.65 25.67 -7.3 25.34 -9 25 C-9 20.33333333 -9 15.66666667 -9 11 C-8.01 11 -7.02 11 -6 11 C-6.495 8.03 -6.495 8.03 -7 5 C-5.35 5 -3.7 5 -2 5 C-1.34 3.35 -0.68 1.7 0 0 Z " fill="#D6B86B" transform="translate(271,30)"/>
<path d="M0 0 C42.86089027 -1.28243319 42.86089027 -1.28243319 59 10 C59.928125 10.639375 60.85625 11.27875 61.8125 11.9375 C67.56696148 17.36313511 69.03584149 22.27801157 69.3125 29.9375 C69.78819985 38.94627086 71.36763339 48.36763339 78 55 C72.65130078 55.50939993 70.14410399 54.36708449 66 51 C58.00728742 43.71497552 54.60834078 32.92293716 51 23 C48.96187987 18.13630424 45.68525759 16.18080246 41 14 C37.69275744 13.08393139 34.39809582 12.46654184 31 12 C31 12.66 31 13.32 31 14 C32.485 14.495 32.485 14.495 34 15 C42.82533603 24.76602107 52.64266658 39.50400182 52 53 C45.79646595 48.92864358 39.91080887 44.48458789 34 40 C33.17628906 39.38640625 32.35257812 38.7728125 31.50390625 38.140625 C18.77663566 28.52348465 8.3264442 15.59250659 0 2 C0 1.34 0 0.68 0 0 Z " fill="#D3B566" transform="translate(308,207)"/>
<path d="M0 0 C7.59 0 15.18 0 23 0 C23 24.09 23 48.18 23 73 C15.41 73 7.82 73 0 73 C0 48.91 0 24.82 0 0 Z " fill="#C39D4B" transform="translate(137,450)"/>
<path d="M0 0 C1.89643996 1.79448083 3.52000304 3.51574813 5.1875 5.5 C6.16346522 6.60310119 7.14268174 7.70333367 8.125 8.80078125 C8.85396484 9.61796631 8.85396484 9.61796631 9.59765625 10.45166016 C17.99545053 19.72373734 27.92758313 25.46379156 39 31 C39 32.65 39 34.3 39 36 C38.35675781 35.81824219 37.71351563 35.63648438 37.05078125 35.44921875 C35.11504057 34.91074595 33.17585455 34.38458687 31.234375 33.8671875 C29.17514087 33.315074 27.1219731 32.73940913 25.078125 32.1328125 C15.06643248 29.40942464 5.27850762 29.65399511 -5 30 C-6.24910156 30.0309375 -7.49820312 30.061875 -8.78515625 30.09375 C-15.2529231 30.40210599 -20.66176538 31.60902283 -26.66015625 34.0625 C-28.7671829 34.90671769 -30.78790129 35.50955779 -33 36 C-36.46074225 29.4987485 -40.17600333 22.50081146 -38 15 C-34.54747726 11.02971706 -31.43164117 8.99615634 -26.5625 7.0703125 C-25.33789062 6.585625 -24.11328125 6.1009375 -22.8515625 5.6015625 C-22.21895508 5.35954102 -21.58634766 5.11751953 -20.93457031 4.86816406 C-18.99767057 4.12410515 -17.07327891 3.35276826 -15.1484375 2.578125 C-4.50862814 -1.56580075 -4.50862814 -1.56580075 0 0 Z " fill="#D7BB6C" transform="translate(323,336)"/>
<path d="M0 0 C3.4843947 1.30935329 6.59934575 2.83785542 9.78125 4.765625 C10.69495361 5.31895508 11.60865723 5.87228516 12.55004883 6.44238281 C13.52353271 7.03889648 14.4970166 7.63541016 15.5 8.25 C16.51666748 8.8697168 17.53333496 9.48943359 18.58081055 10.12792969 C25.4394871 14.34063824 32.1514196 18.73300941 38.8125 23.25 C52.14222029 32.24569254 65.61323289 39.81227563 80.62109375 45.625 C84 47 84 47 87 49 C75.23943355 48.51423747 63.65565449 47.65590678 52 46 C51.81244141 47.42699219 51.81244141 47.42699219 51.62109375 48.8828125 C51 52 51 52 49.0625 53.875 C47 55 47 55 45 55 C44.90203125 54.35933594 44.8040625 53.71867187 44.703125 53.05859375 C43.68724966 47.18228035 42.15104904 43.04167846 39 38 C39 37.34 39 36.68 39 36 C38.34 36 37.68 36 37 36 C36.95875 36.680625 36.9175 37.36125 36.875 38.0625 C35.63763293 42.21651802 33.05971185 44.98374996 30 48 C29.67 48 29.34 48 29 48 C28.99613281 46.65808594 28.99613281 46.65808594 28.9921875 45.2890625 C28.71805972 36.71800043 27.48327242 30.71635282 22 24 C19.35823067 21.44305314 19.35823067 21.44305314 17 20 C17.12375 21.794375 17.12375 21.794375 17.25 23.625 C17.27471623 28.25517297 15.91197456 30.47033386 13 34 C12.67 34 12.34 34 12 34 C11.91363281 32.88882813 11.82726562 31.77765625 11.73828125 30.6328125 C10.63307133 18.30493768 7.5453537 9.91675058 0 0 Z " fill="#FDFCF9" transform="translate(296,263)"/>
<path d="M0 0 C0.33 0 0.66 0 1 0 C1.00410889 0.87100342 1.00821777 1.74200684 1.01245117 2.6394043 C1.03976359 5.93721486 1.0891866 9.23327523 1.15258789 12.53051758 C1.17548409 13.94511834 1.19009546 15.3598827 1.19555664 16.7746582 C1.25269094 29.15522132 3.88486736 39.47086635 10.375 50.1875 C10.96539062 51.16460937 11.55578125 52.14171875 12.1640625 53.1484375 C13.95396196 55.9284941 15.82531055 58.62443161 17.75 61.3125 C22.44122702 67.92238616 24.43110179 72.80906599 24 81 C23.56429687 80.62488281 23.12859375 80.24976563 22.6796875 79.86328125 C21.43435954 78.79316177 20.18682391 77.72560789 18.9375 76.66015625 C17.74188988 75.63569193 16.55287946 74.60339548 15.375 73.55859375 C11.44805924 70.13274699 8.35240751 68.31365433 3.1875 67.625 C-3.24621525 68.38190768 -8.14016111 71.87650034 -13 76 C-13.33 76 -13.66 76 -14 76 C-14.45647158 70.29410528 -13.69917584 67.39901992 -10 63 C-6.12622455 60.14174554 -3.46184244 59.6551041 1.3125 59.8125 C2.91544922 59.85310547 2.91544922 59.85310547 4.55078125 59.89453125 C5.35902344 59.92933594 6.16726562 59.96414062 7 60 C6.41992188 59.32195312 5.83984375 58.64390625 5.2421875 57.9453125 C-2.81401014 48.34700442 -11.82549996 37.56839482 -11.28125 24.34765625 C-10.21037912 15.40885904 -6.4218033 6.4218033 0 0 Z " fill="#FBF9F4" transform="translate(137,116)"/>
<path d="M0 0 C0.96873047 -0.01611328 1.93746094 -0.03222656 2.93554688 -0.04882812 C12.16605938 -0.05506917 18.62058115 1.63935231 25.3125 8.3125 C27.02164674 10.69496758 28.46029452 13.18408753 29.875 15.75 C35.35362275 25.73271425 35.35362275 25.73271425 44.3125 32.3125 C47.30494326 32.82722043 50.28332934 33.12111449 53.3125 33.3125 C47.32035904 39.46232888 47.32035904 39.46232888 41.75 39.75 C40.94433594 39.81058594 40.13867188 39.87117188 39.30859375 39.93359375 C32.77630585 38.5794428 27.79608919 34.47519112 24.08984375 29.03515625 C23.12490697 27.49308543 22.17826554 25.93941954 21.25 24.375 C16.47462353 16.43370126 11.13344786 8.98514615 1.9375 6 C1.01582031 5.69964844 0.09414063 5.39929688 -0.85546875 5.08984375 C-5.09398176 3.92644501 -9.35180865 3.02727775 -13.6875 2.3125 C-9.27495611 -0.62919592 -5.19111768 -0.01693124 0 0 Z " fill="#CFAE60" transform="translate(358.6875,199.6875)"/>
<path d="M0 0 C0.33 0 0.66 0 1 0 C0.72521772 11.5158757 -4.132933 19.85491344 -10.29296875 29.31640625 C-15.18531721 37.00758107 -17.84529588 43.93471091 -19 53 C-19.66 53 -20.32 53 -21 53 C-22.62109375 51.35546875 -22.62109375 51.35546875 -24.4375 49.1875 C-26.54463676 46.68897282 -28.65241398 44.2757944 -31 42 C-29.46864215 38.41036546 -27.31525316 36.05343533 -24.625 33.25 C-15.74003144 23.63211797 -7.97799372 13.04631565 -1.20703125 1.84375 C-0.80871094 1.2353125 -0.41039062 0.626875 0 0 Z " fill="#FCFAF5" transform="translate(405,133)"/>
<path d="M0 0 C-1.03369094 2.70349939 -2.11001793 5.19357586 -3.54296875 7.71484375 C-5.21782138 11.49112005 -5.39893068 14.32313653 -5.5 18.4375 C-5.80692777 26.39934096 -5.80692777 26.39934096 -7.5625 29.8125 C-9.90323554 35.00282664 -9.79297305 40.62108084 -8 46 C-11.9990906 45.76928323 -14.33396421 45.56356875 -17.4375 42.9375 C-19.4417927 39.16942973 -19.89471658 36.12315223 -19 32 C-17.83126033 29.72513172 -16.50471795 27.59440669 -15.15625 25.421875 C-13.81734166 22.61740483 -13.66499848 20.52953733 -13.5625 17.4375 C-13.203335 10.11053406 -9.49239849 6.26581681 -4.25 1.5 C-2 0 -2 0 0 0 Z " fill="#FBF9F3" transform="translate(277,114)"/>
<path d="M0 0 C0.94875 0.556875 1.8975 1.11375 2.875 1.6875 C13.39103631 7.85519019 13.39103631 7.85519019 25.10546875 10.31640625 C26.08837891 10.35830078 27.07128906 10.40019531 28.08398438 10.44335938 C29.62022461 10.50233398 29.62022461 10.50233398 31.1875 10.5625 C32.22326172 10.60568359 33.25902344 10.64886719 34.32617188 10.69335938 C36.8839819 10.79944366 39.44188845 10.90150146 42 11 C43.35439668 13.70879335 43.06501451 16.00933268 43 19 C31.55467761 21.55959028 21.92940262 19.86447454 11.75 14.1875 C1.68601583 6.18205805 1.68601583 6.18205805 0 0 Z " fill="#FAF7F1" transform="translate(155,344)"/>
<path d="M0 0 C3.41196733 1.09876914 5.07570265 2.10065919 7.875 4.1875 C13.16035823 8.00978329 18.31535566 8.16593606 24.6875 8.1875 C20.99993246 12.07439552 18.99267826 13.95698217 13.5625 14.5 C9.95312259 14.20892118 8.57893865 13.76887866 5.5 12.1875 C-0.0029618 9.48362258 -5.30623272 9.821636 -11.3125 10.1875 C-9.26785017 4.48551877 -6.48367543 0.3670005 0 0 Z " fill="#DBC076" transform="translate(295.3125,129.8125)"/>
<path d="M0 0 C0.99 0 1.98 0 3 0 C3 1.98 3 3.96 3 6 C5.31 6 7.62 6 10 6 C10 4.02 10 2.04 10 0 C10.66 0 11.32 0 12 0 C12.33 3.96 12.66 7.92 13 12 C13.66 12 14.32 12 15 12 C16.32 8.7 17.64 5.4 19 2 C19.99 2 20.98 2 22 2 C22.33773437 2.71027344 22.67546875 3.42054688 23.0234375 4.15234375 C23.46945313 5.07144531 23.91546875 5.99054687 24.375 6.9375 C24.81585938 7.85402344 25.25671875 8.77054688 25.7109375 9.71484375 C26.79199162 12.12903802 26.79199162 12.12903802 29 13 C28.505 6.565 28.505 6.565 28 0 C29.32 0 30.64 0 32 0 C32 3.96 32 7.92 32 12 C33.65 12 35.3 12 37 12 C37 12.66 37 13.32 37 14 C32.38 14 27.76 14 23 14 C23 12.35 23 10.7 23 9 C21.35 9 19.7 9 18 9 C18 10.65 18 12.3 18 14 C15.03 14 12.06 14 9 14 C9 11.69 9 9.38 9 7 C7.02 7 5.04 7 3 7 C3.33 9.31 3.66 11.62 4 14 C2.35 14 0.7 14 -1 14 C-0.67 9.38 -0.34 4.76 0 0 Z " fill="#ECDFC0" transform="translate(219,545)"/>
<path d="M0 0 C0.46148437 0.37511719 0.92296875 0.75023438 1.3984375 1.13671875 C9.62095919 7.58798577 17.61045602 11.51893735 28 13 C25.04606107 16.24933282 22.58727829 17.78998407 18.1953125 18.37109375 C8.87872925 18.57259746 8.87872925 18.57259746 5.4375 15.9375 C1.27625084 10.92266127 -0.47774317 6.52915663 0 0 Z " fill="#FCFBF7" transform="translate(217,88)"/>
<path d="M0 0 C8.65627072 -0.44433329 16.62149238 0.08099492 24 5 C24 5.66 24 6.32 24 7 C20.74534257 9.64440916 17.561345 10.75032601 13.3359375 10.62890625 C8.20260325 9.24685472 3.86863974 5.54151211 0 2 C0 1.34 0 0.68 0 0 Z " fill="#FCFAF5" transform="translate(270,93)"/>
<path d="M0 0 C2.31 0 4.62 0 7 0 C7.79953138 3.28696233 8.09658936 4.71023192 7 8 C7.87483915 10.16715557 7.87483915 10.16715557 9 12 C9.66 12 10.32 12 11 12 C11 11.34 11 10.68 11 10 C11.66 10 12.32 10 13 10 C13.33 10.66 13.66 11.32 14 12 C14.66 12 15.32 12 16 12 C15.56671758 9.48696195 15.3219867 8.28483439 13.375 6.5625 C12.92125 6.046875 12.4675 5.53125 12 5 C12.3125 2.3125 12.3125 2.3125 13 0 C14.98 0 16.96 0 19 0 C18.67 0.99 18.34 1.98 18 3 C17.01 2.67 16.02 2.34 15 2 C15.75150023 5.27773504 15.75150023 5.27773504 19 7 C19.3125 9.5 19.3125 9.5 19 12 C17 14 17 14 14.90625 14.23046875 C14.1121875 14.21628906 13.318125 14.20210937 12.5 14.1875 C11.7059375 14.18105469 10.911875 14.17460938 10.09375 14.16796875 C8 14 8 14 6 13 C5.33333333 11.66666667 4.66666667 10.33333333 4 9 C3.34 8.67 2.68 8.34 2 8 C2 9.65 2 11.3 2 13 C1.34 13 0.68 13 0 13 C0 8.71 0 4.42 0 0 Z " fill="#F2EAD3" transform="translate(324,545)"/>
<path d="M0 0 C-3.10832825 0.99501356 -5.00283091 0.94978099 -8.12890625 0.078125 C-13.1147485 -1.13340713 -17.8237457 -1.30505003 -22.9375 -1.25 C-23.81051758 -1.24613281 -24.68353516 -1.24226563 -25.58300781 -1.23828125 C-31.61005284 -1.15729072 -37.15582984 -0.55844538 -43 1 C-31.9894742 -11.1989635 -12.63506792 -6.76878638 0 0 Z " fill="#FDFBF8" transform="translate(294,74)"/>
<path d="M0 0 C6 0 6 0 8 1 C8 3.66666667 8 6.33333333 8 9 C8.94978897 11.15028304 8.94978897 11.15028304 10 13 C8.0625 12.1875 8.0625 12.1875 6 11 C5.67 10.01 5.34 9.02 5 8 C4.34 8 3.68 8 3 8 C3.33 9.98 3.66 11.96 4 14 C2.68 14 1.36 14 0 14 C0 9.38 0 4.76 0 0 Z " fill="#D9C28F" transform="translate(131,545)"/>
<path d="M0 0 C5.71428571 0.71428571 5.71428571 0.71428571 7 2 C7.1328125 3.8125 7.1328125 3.8125 7.125 6 C7.12757813 6.721875 7.13015625 7.44375 7.1328125 8.1875 C7 10 7 10 6 11 C3.0625 11.25 3.0625 11.25 0 11 C-2 8 -2 8 -1.6875 4.375 C-1 1 -1 1 0 0 Z " fill="#C59F4F" transform="translate(147,546)"/>
<path d="M0 0 C2.3828125 -0.29296875 2.3828125 -0.29296875 5.125 -0.1875 C6.03507812 -0.16042969 6.94515625 -0.13335938 7.8828125 -0.10546875 C8.58148438 -0.07066406 9.28015625 -0.03585937 10 0 C9.67 0.99 9.34 1.98 9 3 C8.030625 2.979375 7.06125 2.95875 6.0625 2.9375 C3.12534105 2.64381501 3.12534105 2.64381501 2 4 C1.95919217 5.99958364 1.95745644 8.00045254 2 10 C3.98 10.66 5.96 11.32 8 12 C8 10.35 8 8.7 8 7 C8.66 7 9.32 7 10 7 C10 9.31 10 11.62 10 14 C5.45194365 14.17835515 2.1205746 13.99785435 -2 12 C-2.05422947 10.5629191 -2.09289723 9.12524538 -2.125 7.6875 C-2.14820313 6.88699219 -2.17140625 6.08648438 -2.1953125 5.26171875 C-2 3 -2 3 0 0 Z " fill="#ECDFBA" transform="translate(298,545)"/>
<path d="M0 0 C2.97 0 5.94 0 9 0 C9 0.99 9 1.98 9 3 C7.68 2.67 6.36 2.34 5 2 C5 2.99 5 3.98 5 5 C6.32 5 7.64 5 9 5 C9 5.99 9 6.98 9 8 C7.35 7.67 5.7 7.34 4 7 C4 8.65 4 10.3 4 12 C5.65 12 7.3 12 9 12 C9 12.66 9 13.32 9 14 C6.03 14 3.06 14 0 14 C0 9.38 0 4.76 0 0 Z " fill="#ECDEB9" transform="translate(311,545)"/>
<path d="M0 0 C3.375 -0.125 3.375 -0.125 7 0 C7.66 0.66 8.32 1.32 9 2 C8.814375 2.928125 8.62875 3.85625 8.4375 4.8125 C7.90878628 8.66455712 8.74711296 9.93607362 11 13 C8.04590299 11.62845496 5.55991624 10.01136276 3 8 C3 9.65 3 11.3 3 13 C2.34 13 1.68 13 1 13 C0.67 8.71 0.34 4.42 0 0 Z " fill="#F4EDDE" transform="translate(449,545)"/>
<path d="M0 0 C0.99 0 1.98 0 3 0 C3 1.98 3 3.96 3 6 C5.31 6 7.62 6 10 6 C10 4.02 10 2.04 10 0 C10.66 0 11.32 0 12 0 C12 4.29 12 8.58 12 13 C11.34 13 10.68 13 10 13 C10 11.02 10 9.04 10 7 C7.69 7 5.38 7 3 7 C3.33 9.31 3.66 11.62 4 14 C2.35 14 0.7 14 -1 14 C-0.67 9.38 -0.34 4.76 0 0 Z " fill="#F2EAD6" transform="translate(219,545)"/>
<path d="M0 0 C1.875 0.1875 1.875 0.1875 4 1 C5.3125 3.375 5.3125 3.375 6 6 C5.67 6.99 5.34 7.98 5 9 C6.65 9.33 8.3 9.66 10 10 C8.125 13.875 8.125 13.875 7 15 C4.6875 15.3125 4.6875 15.3125 2 15 C-0.3125 13.125 -0.3125 13.125 -2 11 C-2 10.34 -2 9.68 -2 9 C-0.68 9 0.64 9 2 9 C1.51515724 4.35413108 1.51515724 4.35413108 0 0 Z " fill="#FAF8F0" transform="translate(257,46)"/>
<path d="M0 0 C-0.33 0.99 -0.66 1.98 -1 3 C-1.94875 2.814375 -2.8975 2.62875 -3.875 2.4375 C-6.89868793 1.71313368 -6.89868793 1.71313368 -9 3 C-9 5.31 -9 7.62 -9 10 C-7.02 10.66 -5.04 11.32 -3 12 C-3 10.35 -3 8.7 -3 7 C-2.01 7 -1.02 7 0 7 C0.04254356 8.99954746 0.04080783 11.00041636 0 13 C-1 14 -1 14 -4.25 14.375 C-8 14 -8 14 -10.9375 11.8125 C-13 9 -13 9 -13.5625 6.4375 C-11.85475865 -0.96271251 -6.35236358 -0.48864335 0 0 Z " fill="#F1E8D3" transform="translate(408,545)"/>
<path d="M0 0 C2.4375 1.5625 2.4375 1.5625 4 4 C4 7.77684879 3.78395245 10.03513544 1.375 13 C-2.07663304 14.45331917 -4.42809484 13.92604949 -8 13 C-10.46943529 9.29584707 -10.46913089 7.37855495 -10 3 C-7.15718952 -0.3895048 -4.25588004 -0.62064917 0 0 Z M-6 1 C-8.38798682 3.90585687 -8.38798682 3.90585687 -7.6875 7.625 C-7.35886877 10.82504312 -7.35886877 10.82504312 -6 12 C-3 12.16666667 -3 12.16666667 0 12 C1.89128342 10.10871658 1.2366852 7.42932274 1.328125 4.91015625 C1.21984375 4.27980469 1.1115625 3.64945313 1 3 C-1.95377498 0.63019987 -1.95377498 0.63019987 -6 1 Z " fill="#EDE2C9" transform="translate(153,545)"/>
<path d="M0 0 C0.33 0.66 0.66 1.32 1 2 C1.99 2.33 2.98 2.66 4 3 C4 4.32 4 5.64 4 7 C3.01 7.33 2.02 7.66 1 8 C1.33 8.99 1.66 9.98 2 11 C-0.3125 11.25 -0.3125 11.25 -3 11 C-5.65315971 8.62130509 -5.98103345 7.32875347 -6.1875 3.75 C-6.125625 2.8425 -6.06375 1.935 -6 1 C-3.03 1.495 -3.03 1.495 0 2 C0 1.34 0 0.68 0 0 Z " fill="#FAF7EF" transform="translate(299,56)"/>
<path d="M0 0 C0.66 0 1.32 0 2 0 C3.65625 1.71484375 3.65625 1.71484375 5.5 3.9375 C7.88926999 6.92045179 7.88926999 6.92045179 11 9 C11 6.36 11 3.72 11 1 C11.33 1 11.66 1 12 1 C12 5.29 12 9.58 12 14 C5.25 8.25 5.25 8.25 3 6 C2.79029441 10.14093698 2.79029441 10.14093698 4 14 C2.35 14 0.7 14 -1 14 C-0.67 9.38 -0.34 4.76 0 0 Z " fill="#F0E7D1" transform="translate(380,545)"/>
<path d="M0 0 C2.31 0 4.62 0 7 0 C7 0.99 7 1.98 7 3 C5.68 2.67 4.36 2.34 3 2 C3 2.99 3 3.98 3 5 C4.32 5 5.64 5 7 5 C7 5.99 7 6.98 7 8 C5.35 7.67 3.7 7.34 2 7 C2 8.65 2 10.3 2 12 C3.65 12 5.3 12 7 12 C7 12.66 7 13.32 7 14 C4.36 14 1.72 14 -1 14 C-0.67 9.38 -0.34 4.76 0 0 Z " fill="#EFE3C5" transform="translate(270,545)"/>
<path d="M0 0 C1.65 0 3.3 0 5 0 C8.62870159 8.261959 8.62870159 8.261959 7 13 C6.34 12.67 5.68 12.34 5 12 C5 10.68 5 9.36 5 8 C4.01 7.67 3.02 7.34 2 7 C2 8.98 2 10.96 2 13 C1.34 13 0.68 13 0 13 C0 8.71 0 4.42 0 0 Z " fill="#F0E6CE" transform="translate(358,545)"/>
<path d="M0 0 C0.99 0 1.98 0 3 0 C3.33 3.63 3.66 7.26 4 11 C5.65 11.33 7.3 11.66 9 12 C9.33 8.37 9.66 4.74 10 1 C10.33 1 10.66 1 11 1 C11.08086147 2.79093191 11.13912702 4.58289628 11.1875 6.375 C11.22230469 7.37273438 11.25710938 8.37046875 11.29296875 9.3984375 C11.19628906 10.25695312 11.09960938 11.11546875 11 12 C7.77856724 14.14762184 6.7404533 14.561068 3 14 C0.86674388 11.80087136 0.05558628 10.48915928 -0.29296875 7.421875 C-0.25816406 6.54015625 -0.22335937 5.6584375 -0.1875 4.75 C-0.16042969 3.85796875 -0.13335937 2.9659375 -0.10546875 2.046875 C-0.07066406 1.37140625 -0.03585937 0.6959375 0 0 Z " fill="#EFE4CD" transform="translate(434,545)"/>
<path d="M0 0 C0 0.33 0 0.66 0 1 C-6.435 1.495 -6.435 1.495 -13 2 C-9.04 2.33 -5.08 2.66 -1 3 C-1 3.33 -1 3.66 -1 4 C-2.03898437 4.04898438 -3.07796875 4.09796875 -4.1484375 4.1484375 C-11.91953317 4.55209446 -19.41572228 5.12216201 -27 7 C-19.92140875 -0.84262967 -9.80966606 -0.50885876 0 0 Z " fill="#F4ECD9" transform="translate(278,68)"/>
<path d="M0 0 C2 2 2 2 2 5 C3.32 4.67 4.64 4.34 6 4 C6.125 6.375 6.125 6.375 6 9 C4 11 4 11 1.375 11.125 C0.59125 11.08375 -0.1925 11.0425 -1 11 C-0.67 9.68 -0.34 8.36 0 7 C-0.99 7 -1.98 7 -3 7 C-3 3 -3 3 -1.5 1.25 C-1.005 0.8375 -0.51 0.425 0 0 Z " fill="#F9F5EC" transform="translate(244,56)"/>
<path d="M0 0 C0.66 0 1.32 0 2 0 C2.33 0.66 2.66 1.32 3 2 C3.99 2 4.98 2 6 2 C5.44295272 5.23087421 4.66812465 7.02361137 2 9 C0.68 9 -0.64 9 -2 9 C-5 5.78571429 -5 5.78571429 -5 3 C-3.35 2.67 -1.7 2.34 0 2 C0 1.34 0 0.68 0 0 Z " fill="#FAF8F0" transform="translate(282,53)"/>
<path d="M0 0 C3.42931954 3.7559214 4.56429083 8.23466745 6 13 C5.01 13 4.02 13 3 13 C2.67 12.01 2.34 11.02 2 10 C0.68 10 -0.64 10 -2 10 C-2.33 10.99 -2.66 11.98 -3 13 C-3.66 13 -4.32 13 -5 13 C-4.54554036 11.58208592 -4.08625056 10.16571954 -3.625 8.75 C-3.24214844 7.56664062 -3.24214844 7.56664062 -2.8515625 6.359375 C-2.04826333 4.13372042 -1.10288338 2.09068328 0 0 Z " fill="#F4EDDE" transform="translate(175,545)"/>
<path d="M0 0 C1.21236328 0.04060547 1.21236328 0.04060547 2.44921875 0.08203125 C3.06410156 0.11683594 3.67898437 0.15164063 4.3125 0.1875 C3.9825 1.5075 3.6525 2.8275 3.3125 4.1875 C2.9825 3.5275 2.6525 2.8675 2.3125 2.1875 C0.0025 2.1875 -2.3075 2.1875 -4.6875 2.1875 C-4.95682521 6.83802872 -4.95682521 6.83802872 -3.6875 11.1875 C-1.0475 11.1875 1.5925 11.1875 4.3125 11.1875 C3.9825 12.1775 3.6525 13.1675 3.3125 14.1875 C-2.9375 14.66826923 -2.9375 14.66826923 -6.125 12.625 C-8.26766848 9.28243717 -8.18323337 7.08254791 -7.6875 3.1875 C-5.43768699 0.08332761 -3.73107689 -0.16222073 0 0 Z " fill="#F0E6CF" transform="translate(211.6875,544.8125)"/>
<path d="M0 0 C3.72114571 2.31537955 6.61229661 4.28579473 9 8 C9.33 5.36 9.66 2.72 10 0 C10.33 0 10.66 0 11 0 C11 3.96 11 7.92 11 12 C7.42796392 10.21398196 5.56649035 8.93313183 3 6 C3 5.34 3 4.68 3 4 C2.34 4 1.68 4 1 4 C1 6.64 1 9.28 1 12 C0.67 12 0.34 12 0 12 C0 8.04 0 4.08 0 0 Z " fill="#F7F2E4" transform="translate(281,546)"/>
<path d="M0 0 C1.32 0 2.64 0 4 0 C4 3.96 4 7.92 4 12 C5.65 12 7.3 12 9 12 C9 12.66 9 13.32 9 14 C6.03 14 3.06 14 0 14 C0 9.38 0 4.76 0 0 Z " fill="#F0E6CA" transform="translate(258,545)"/>
<path d="M0 0 C0.99 0 1.98 0 3 0 C3 3.96 3 7.92 3 12 C4.65 12 6.3 12 8 12 C8 12.66 8 13.32 8 14 C5.36 14 2.72 14 0 14 C0 9.38 0 4.76 0 0 Z " fill="#EDE1C6" transform="translate(184,545)"/>
<path d="M0 0 C0.66 0 1.32 0 2 0 C2.67354499 1.43429001 3.33859701 2.87257057 4 4.3125 C4.556875 5.51326172 4.556875 5.51326172 5.125 6.73828125 C6 9 6 9 6 12 C5.34 12 4.68 12 4 12 C3.67 10.68 3.34 9.36 3 8 C1.35 8 -0.3 8 -2 8 C-2.66 9.32 -3.32 10.64 -4 12 C-3.33501617 7.61110675 -1.81242323 4.0188515 0 0 Z " fill="#F6F1E5" transform="translate(415,546)"/>
<path d="M0 0 C1.98 0 3.96 0 6 0 C5.67 0.99 5.34 1.98 5 3 C4.01 2.67 3.02 2.34 2 2 C2.75150023 5.27773504 2.75150023 5.27773504 6 7 C6.3125 9.5 6.3125 9.5 6 12 C5.34 12.66 4.68 13.32 4 14 C1.375 13.625 1.375 13.625 -1 13 C0.32 12.67 1.64 12.34 3 12 C2.56671758 9.48696195 2.3219867 8.28483439 0.375 6.5625 C-0.07875 6.046875 -0.5325 5.53125 -1 5 C-0.6875 2.3125 -0.6875 2.3125 0 0 Z " fill="#F4EDDB" transform="translate(337,545)"/>
<path d="M0 0 C0.66 0 1.32 0 2 0 C2 4.29 2 8.58 2 13 C2.66 13 3.32 13 4 13 C4 11.02 4 9.04 4 7 C5.32 7.33 6.64 7.66 8 8 C8 9.98 8 11.96 8 14 C5.69 14 3.38 14 1 14 C0.67 9.38 0.34 4.76 0 0 Z " fill="#E1CC98" transform="translate(356,545)"/>
<path d="M0 0 C0.99 0 1.98 0 3 0 C3.02578125 0.75925781 3.0515625 1.51851562 3.078125 2.30078125 C3.13484375 3.29464844 3.1915625 4.28851562 3.25 5.3125 C3.29640625 6.29863281 3.3428125 7.28476562 3.390625 8.30078125 C3.75970238 11.13940092 3.75970238 11.13940092 6.046875 12.85546875 C7.01367188 13.42201172 7.01367188 13.42201172 8 14 C5.125 13.6875 5.125 13.6875 2 13 C-0.20914 9.68629 -0.22481553 8.6553979 -0.125 4.8125 C-0.10695313 3.91144531 -0.08890625 3.01039063 -0.0703125 2.08203125 C-0.04710937 1.39496094 -0.02390625 0.70789063 0 0 Z " fill="#EEE3CB" transform="translate(462,545)"/>
<path d="M0 0 C0.99 0 1.98 0 3 0 C4.6875 2.5 4.6875 2.5 6 5 C6.99 3.35 7.98 1.7 9 0 C9.99 0.33 10.98 0.66 12 1 C11.360625 1.86625 10.72125 2.7325 10.0625 3.625 C8.02451704 6.9598812 7.36566907 9.16047478 7 13 C6.34 13 5.68 13 5 13 C4.731875 11.96875 4.46375 10.9375 4.1875 9.875 C3.19001103 6.3514958 1.7338102 3.23119173 0 0 Z " fill="#F3EBDA" transform="translate(158,545)"/>
<path d="M0 0 C0.33 0 0.66 0 1 0 C1 1.98 1 3.96 1 6 C1.99 5.67 2.98 5.34 4 5 C4.33 3.35 4.66 1.7 5 0 C5.66 0 6.32 0 7 0 C7 2.66666667 7 5.33333333 7 8 C7.94978897 10.15028304 7.94978897 10.15028304 9 12 C7.0625 11.1875 7.0625 11.1875 5 10 C4.67 9.01 4.34 8.02 4 7 C3.01 7 2.02 7 1 7 C1 8.65 1 10.3 1 12 C0.67 12 0.34 12 0 12 C0 8.04 0 4.08 0 0 Z " fill="#F6F1E5" transform="translate(132,546)"/>
<path d="M0 0 C0.99 0 1.98 0 3 0 C3.05447047 1.41623216 3.09300508 2.83308191 3.125 4.25 C3.14820313 5.03890625 3.17140625 5.8278125 3.1953125 6.640625 C2.9828378 9.20731941 2.28654105 10.7916067 1 13 C0.34 12.67 -0.32 12.34 -1 12 C-0.67 8.04 -0.34 4.08 0 0 Z " fill="#E2D0A9" transform="translate(471,545)"/>
<path d="M0 0 C1.98 0 3.96 0 6 0 C5.67 0.66 5.34 1.32 5 2 C4.01 1.67 3.02 1.34 2 1 C2 2.65 2 4.3 2 6 C3.32 6.33 4.64 6.66 6 7 C4.68 7 3.36 7 2 7 C2 8.98 2 10.96 2 13 C1.34 13 0.68 13 0 13 C0 8.71 0 4.42 0 0 Z " fill="#F7F2E7" transform="translate(370,545)"/>
<path d="M0 0 C0.99 0 1.98 0 3 0 C3.04254356 1.99954746 3.04080783 4.00041636 3 6 C2 7 2 7 -1.5625 7.0625 C-2.696875 7.041875 -3.83125 7.02125 -5 7 C-4.67 6.34 -4.34 5.68 -4 5 C-2.68 5 -1.36 5 0 5 C0 3.35 0 1.7 0 0 Z " fill="#EBDEC0" transform="translate(405,552)"/>
<path d="M0 0 C0.66 0.33 1.32 0.66 2 1 C1.79375 2.0725 1.5875 3.145 1.375 4.25 C1.0123809 7.87619096 1.01637931 9.08291076 3 12 C1.0625 11.625 1.0625 11.625 -1 11 C-2.50662097 7.98675805 -2.17770373 5.31713623 -2 2 C-1.34 1.34 -0.68 0.68 0 0 Z " fill="#F5EEE0" transform="translate(145,546)"/>
<path d="M0 0 C0.99 0 1.98 0 3 0 C3.33 1.65 3.66 3.3 4 5 C3.360625 5.103125 2.72125 5.20625 2.0625 5.3125 C1.381875 5.539375 0.70125 5.76625 0 6 C-0.33 6.99 -0.66 7.98 -1 9 C-1.66 9 -2.32 9 -3 9 C-2.01 6.03 -1.02 3.06 0 0 Z " fill="#E6D6B2" transform="translate(173,549)"/>
<path d="M0 0 C0.99 0.33 1.98 0.66 3 1 C3 2.98 3 4.96 3 7 C2.01 7.33 1.02 7.66 0 8 C-0.38063221 5.6739143 -0.71269945 3.33944736 -1 1 C-0.67 0.67 -0.34 0.34 0 0 Z " fill="#F8F3E6" transform="translate(271,44)"/>
<path d="M0 0 C0.66 0.33 1.32 0.66 2 1 C-1.88672813 4.18005028 -5.89952133 7.10554447 -10 10 C-8.26548969 5.31682216 -4.40759243 2.20379621 0 0 Z " fill="#F4ECDA" transform="translate(244,211)"/>
<path d="M0 0 C1.5 1.3125 1.5 1.3125 3 3 C3 3.99 3 4.98 3 6 C1.68 6 0.36 6 -1 6 C-1.66 7.32 -2.32 8.64 -3 10 C-2.39009109 6.44219804 -1.4216319 3.3171411 0 0 Z " fill="#E6D6B3" transform="translate(414,548)"/>
<path d="M0 0 C0.66 0.33 1.32 0.66 2 1 C1.34 1.66 0.68 2.32 0 3 C2.97 3.33 5.94 3.66 9 4 C9 4.33 9 4.66 9 5 C4.38 5 -0.24 5 -5 5 C-3.35 3.35 -1.7 1.7 0 0 Z " fill="#D2B369" transform="translate(373,518)"/>
<path d="M0 0 C0.66 0.33 1.32 0.66 2 1 C0.7934375 1.9590625 0.7934375 1.9590625 -0.4375 2.9375 C-3.75412763 6.90127449 -3.87952582 9.97294083 -4 15 C-4.33 15 -4.66 15 -5 15 C-5.76681614 6.22421525 -5.76681614 6.22421525 -3.88671875 3.22265625 C-2.5 1.875 -2.5 1.875 0 0 Z " fill="#DEC785" transform="translate(290,346)"/>
<path d="M0 0 C0.66 0.33 1.32 0.66 2 1 C1.67 1.33 1.34 1.66 1 2 C0.92820036 3.51928038 0.91607993 5.04167482 0.9375 6.5625 C0.94652344 7.38878906 0.95554687 8.21507812 0.96484375 9.06640625 C0.97644531 9.70449219 0.98804688 10.34257813 1 11 C0.01 10.34 -0.98 9.68 -2 9 C-2.3125 5.5 -2.3125 5.5 -2 2 C-1.34 1.34 -0.68 0.68 0 0 Z " fill="#FAF6EE" transform="translate(298,546)"/>
<path d="M0 0 C1.32 0.33 2.64 0.66 4 1 C3.67 2.65 3.34 4.3 3 6 C2.01 6 1.02 6 0 6 C0 4.02 0 2.04 0 0 Z " fill="#CBAA63" transform="translate(452,546)"/>
<path d="M0 0 C1.8871875 0.061875 1.8871875 0.061875 3.8125 0.125 C3.4825 1.115 3.1525 2.105 2.8125 3.125 C-0.4875 2.795 -3.7875 2.465 -7.1875 2.125 C-4.09861478 0.06574319 -3.47814073 -0.1140374 0 0 Z " fill="#D8BC75" transform="translate(352.1875,199.875)"/>
<path d="M0 0 C1.98 0 3.96 0 6 0 C5.67 0.99 5.34 1.98 5 3 C4.01 2.67 3.02 2.34 2 2 C1.67 3.65 1.34 5.3 1 7 C0.34 6.34 -0.32 5.68 -1 5 C-0.625 2.375 -0.625 2.375 0 0 Z " fill="#EFE4C6" transform="translate(337,545)"/>
<path d="M0 0 C0.99 0.33 1.98 0.66 3 1 C2.67 2.65 2.34 4.3 2 6 C1.01 6 0.02 6 -1 6 C-1.042721 4.33388095 -1.04063832 2.66617115 -1 1 C-0.67 0.67 -0.34 0.34 0 0 Z " fill="#DAC07A" transform="translate(327,546)"/>
<path d="M0 0 C0.66 0.66 1.32 1.32 2 2 C-2.34464536 1.39174965 -6.67551867 0.73832608 -11 0 C-11 -0.33 -11 -0.66 -11 -1 C-6.70830186 -2.26226416 -4.09639239 -1.7295879 0 0 Z " fill="#F3EAD3" transform="translate(292,73)"/>
<path d="M0 0 C1.32 0.33 2.64 0.66 4 1 C4 2.32 4 3.64 4 5 C2.68 5 1.36 5 0 5 C0 3.35 0 1.7 0 0 Z " fill="#D5B870" transform="translate(360,552)"/>
<path d="M0 0 C2.31 0 4.62 0 7 0 C7.33 1.65 7.66 3.3 8 5 C7.01 5.495 7.01 5.495 6 6 C6 4.68 6 3.36 6 2 C3.03 1.505 3.03 1.505 0 1 C0 0.67 0 0.34 0 0 Z " fill="#F2E8D0" transform="translate(324,545)"/>
</svg>
