<?xml version="1.0" encoding="UTF-8"?>
<svg version="1.1" xmlns="http://www.w3.org/2000/svg" width="600" height="600">
<path d="M0 0 C198 0 396 0 600 0 C600 198 600 396 600 600 C402 600 204 600 0 600 C0 402 0 204 0 0 Z " fill="#FEFEFE" transform="translate(0,0)"/>
<path d="M0 0 C3.15078009 1.34991366 4.78663118 2.66274979 6.7421875 5.46484375 C7.49447632 6.52662842 7.49447632 6.52662842 8.26196289 7.60986328 C8.79426514 8.3779834 9.32656738 9.14610352 9.875 9.9375 C11.03681037 11.58009946 12.19960338 13.22200426 13.36328125 14.86328125 C14.26167725 16.13679443 14.26167725 16.13679443 15.17822266 17.43603516 C18.09075721 21.53512895 21.07404229 25.58108504 24.0625 29.625 C24.64821777 30.41898193 25.23393555 31.21296387 25.83740234 32.03100586 C30.01856274 37.69151996 34.23544795 43.32452276 38.46557617 48.94848633 C45.35463405 58.11760527 52.13054452 67.37075402 58.91992188 76.61376953 C60.20288518 78.36024047 61.4862448 80.10642035 62.77001953 81.85229492 C63.97505287 83.49109586 65.17920507 85.1305452 66.38232422 86.77075195 C67.45138786 88.22436972 68.52725414 89.67302045 69.61132812 91.11547852 C70.77882674 92.69985295 71.87160135 94.33890569 72.9453125 95.98828125 C75.87072059 98.8525116 78.22605679 98.5722038 82.25 98.8125 C85.92250598 99.25628328 88.89870983 99.75992018 91.4296875 102.60986328 C93.87214287 106.50592963 95.61482664 110.69058456 97.16308594 115.01123047 C98.27614851 117.65621522 99.21646805 119.71689296 101 122 C103.57772249 122.99255068 105.78740676 123.64729025 108.45703125 124.2109375 C109.19644455 124.38702545 109.93585785 124.5631134 110.69767761 124.74453735 C113.06527896 125.30728439 115.4376209 125.84386917 117.8125 126.375 C139.50051229 131.24830427 155.46604324 138.60450139 168 158 C170.10516093 162.01538747 171.88789571 166.12665984 173.625 170.3125 C174.08938477 171.4046582 174.55376953 172.49681641 175.03222656 173.62207031 C175.94659683 175.77349219 176.85629425 177.92690755 177.76074219 180.08251953 C178.82745266 182.5937863 179.93021942 185.0800564 181.0703125 187.55859375 C181.50609619 188.5180188 181.50609619 188.5180188 181.95068359 189.49682617 C182.68598458 191.10959232 183.4285852 192.71902511 184.171875 194.328125 C185.37369677 198.20570089 184.59396484 200.707253 182.9375 204.3125 C182.4734375 205.1478125 182.4734375 205.1478125 182 206 C182.85464844 206.33064453 182.85464844 206.33064453 183.7265625 206.66796875 C192.47441337 211.79342777 197.27056938 224.16713801 201 233 C201.87015674 234.89806119 202.74492956 236.79401511 203.625 238.6875 C205.53919437 242.89994685 207.27660082 247.15941581 208.96875 251.46484375 C211.16037223 256.85258173 213.62932335 262.13147053 216.13671875 267.37890625 C218.53054597 272.49582317 220.00100186 277.43978668 221 283 C219.02 284.32 217.04 285.64 215 287 C216.38456678 291.03831979 218.31460549 293.71075992 221 297 C222.15697611 298.55426721 223.30221578 300.11731848 224.4375 301.6875 C225.12585938 302.63753906 225.81421875 303.58757812 226.5234375 304.56640625 C228.40748516 307.17563155 230.2859906 309.78881486 232.1640625 312.40234375 C239.49524494 322.62383806 239.49524494 322.62383806 247.13671875 332.61328125 C250.82606467 337.3390472 254.38893279 342.16169268 257.9765625 346.96484375 C259.89429043 349.53098129 261.82496353 352.08604221 263.7734375 354.62890625 C264.40403076 355.45588013 264.40403076 355.45588013 265.04736328 356.29956055 C266.17958431 357.78275631 267.31621067 359.26258623 268.453125 360.7421875 C270 363 270 363 270 365 C269.00922612 364.9968576 268.01845224 364.99371519 266.99765491 364.99047756 C242.80580447 364.91582486 218.61432694 364.8934663 194.42237568 364.92484188 C182.72290099 364.93882501 171.02388009 364.93628179 159.32446289 364.89379883 C149.118238 364.85678101 138.9125667 364.85182481 128.7063176 364.88417059 C123.31008137 364.9001845 117.91488237 364.90095822 112.51873207 364.86323357 C82.65731956 363.93188021 82.65731956 363.93188021 55.06387329 373.83503151 C51.17425319 376.03055624 46.9874165 377.56643593 42.83984375 379.203125 C41.18478804 379.87835133 39.53039163 380.55519823 37.87695312 381.234375 C36.23050124 381.90632961 34.58401673 382.57820428 32.9375 383.25 C30.4266414 384.27620868 27.91598951 385.30291722 25.40567017 386.33044434 C23.80013435 386.98670241 22.19385017 387.64113306 20.58676147 388.2935791 C17.14420847 389.69406051 13.71621042 391.11042134 10.32470703 392.63085938 C9.27009277 393.09814453 8.21547852 393.56542969 7.12890625 394.046875 C6.24404541 394.45260742 5.35918457 394.85833984 4.44750977 395.27636719 C-0.94927035 396.87198377 -5.82301572 393.96744859 -10.765625 391.8671875 C-11.51728943 391.55226349 -12.26895386 391.23733948 -13.043396 390.91287231 C-15.44745095 389.90459504 -17.84878027 388.89000834 -20.25 387.875 C-21.81752365 387.21570656 -23.38523052 386.55684857 -24.953125 385.8984375 C-27.29773737 384.91384953 -29.64223764 383.92900873 -31.98603821 382.94248962 C-39.35999086 379.84066723 -46.75595968 376.79340908 -54.1570282 373.75697327 C-67.67935063 368.20288038 -67.67935063 368.20288038 -69.65600204 366.95221901 C-73.03406743 365.57992341 -76.33183007 365.71227791 -79.92193604 365.7215271 C-81.12762698 365.7128385 -81.12762698 365.7128385 -82.35767531 365.70397437 C-85.05392042 365.68695461 -87.74999456 365.68409617 -90.44628906 365.68115234 C-92.37789328 365.67185553 -94.30949347 365.66168723 -96.24108887 365.65071106 C-101.48860998 365.62336917 -106.73610418 365.60824922 -111.98367786 365.59528303 C-117.46634324 365.57967083 -122.94895351 365.55287453 -128.43157959 365.5272522 C-138.8153873 365.48043056 -149.19920534 365.44370282 -159.58306479 365.41057932 C-171.40400658 365.37238186 -183.22489308 365.32296548 -195.04578829 365.27259517 C-219.3638179 365.16922495 -243.68188301 365.0799811 -268 365 C-266.68 362.69 -265.36 360.38 -264 358 C-263.34 358 -262.68 358 -262 358 C-261.64615234 356.69289063 -261.64615234 356.69289063 -261.28515625 355.359375 C-259.85217772 351.61359525 -258.04526362 349.28053107 -255.4375 346.25 C-252.4038953 342.83439086 -252.4038953 342.83439086 -250 339 C-249.34 339 -248.68 339 -248 339 C-247.64615234 337.69289063 -247.64615234 337.69289063 -247.28515625 336.359375 C-245.85217772 332.61359525 -244.04526362 330.28053107 -241.4375 327.25 C-238.4038953 323.83439086 -238.4038953 323.83439086 -236 320 C-235.34 320 -234.68 320 -234 320 C-233.61134766 319.18015625 -233.61134766 319.18015625 -233.21484375 318.34375 C-231.80576121 315.62526279 -230.21072263 313.08044318 -228.5625 310.5 C-227.96566406 309.5615625 -227.36882812 308.623125 -226.75390625 307.65625 C-223.62987496 302.92497767 -223.62987496 302.92497767 -222 301 C-221.34 301 -220.68 301 -220 301 C-219.7628125 300.30132812 -219.525625 299.60265625 -219.28125 298.8828125 C-217.7623217 295.46522382 -215.78390729 292.83369808 -213.5 289.875 C-211.25337435 286.95001012 -209.04601541 284.06902312 -207 281 C-207.5775 280.731875 -208.155 280.46375 -208.75 280.1875 C-211.0325868 278.98280141 -212.9737942 277.59201885 -215 276 C-213.3652496 268.95422577 -210.62663339 262.22174028 -207.5625 255.6875 C-205.59138252 251.4671319 -203.96667579 247.21239843 -202.4375 242.8125 C-200.87082608 238.31320835 -199.18018893 234.10613821 -196.9609375 229.8984375 C-193.88355032 223.81872137 -191.74258543 217.29414362 -189.5 210.875 C-187.91190395 206.3778228 -186.19719176 202.15064208 -183.984375 197.93359375 C-182.79333613 195.59405311 -181.72211748 193.22542638 -180.6875 190.8125 C-180.34074219 190.01457031 -179.99398437 189.21664062 -179.63671875 188.39453125 C-178.85540035 185.45619885 -179.03179382 183.87734514 -180 181 C-181.64707401 178.74193911 -181.64707401 178.74193911 -183.625 176.625 C-186.97558832 172.45568476 -186.97558832 172.45568476 -187.1875 168.5 C-185.06672549 162.24929619 -182.41548997 156.64298344 -179 151 C-177.41827586 147.52020688 -176.08260944 144.53696135 -175.5 140.75 C-174 138 -174 138 -171.74609375 137.06640625 C-168.84607892 136.28795999 -165.93240545 135.64427017 -163 135 C-161.49213933 134.52423094 -159.99114792 134.02581165 -158.5 133.5 C-153.39310097 131.76167282 -148.21897873 130.36005805 -143 129 C-141.17082031 128.51853516 -141.17082031 128.51853516 -139.3046875 128.02734375 C-131.13565981 125.91042258 -122.95465053 124.14692383 -114.6484375 122.66015625 C-110.75415943 121.95551707 -106.8844122 121.16395577 -103.015625 120.33203125 C-101 120 -101 120 -97 120 C-96.82984375 119.45472656 -96.6596875 118.90945312 -96.484375 118.34765625 C-94.44768787 112.01009258 -91.97739006 105.95478011 -89 100 C-87.2121873 99.84838338 -85.42274353 99.70687061 -83.63037109 99.62524414 C-76.73727141 99.23722918 -76.73727141 99.23722918 -70.65234375 96.31640625 C-68.55362412 93.65495301 -66.80031613 90.87313021 -65 88 C-63.4009748 85.78616896 -61.7639808 83.60333639 -60.125 81.41894531 C-54.22556136 73.54561044 -48.49913733 65.54371011 -42.75292969 57.55834961 C-38.76280245 52.02559122 -34.69596283 46.55530793 -30.58935547 41.10864258 C-26.68930797 35.93262209 -22.83788027 30.72224913 -19 25.5 C-12.72127771 16.9586358 -6.37726125 8.46797511 0 0 Z " fill="#1E2435" transform="translate(299,102)"/>
<path d="M0 0 C3.15078009 1.34991366 4.78663118 2.66274979 6.7421875 5.46484375 C7.49447632 6.52662842 7.49447632 6.52662842 8.26196289 7.60986328 C8.79426514 8.3779834 9.32656738 9.14610352 9.875 9.9375 C11.03681037 11.58009946 12.19960338 13.22200426 13.36328125 14.86328125 C14.26167725 16.13679443 14.26167725 16.13679443 15.17822266 17.43603516 C18.09075721 21.53512895 21.07404229 25.58108504 24.0625 29.625 C24.64821777 30.41898193 25.23393555 31.21296387 25.83740234 32.03100586 C30.01856274 37.69151996 34.23544795 43.32452276 38.46557617 48.94848633 C45.35463405 58.11760527 52.13054452 67.37075402 58.91992188 76.61376953 C60.20288518 78.36024047 61.4862448 80.10642035 62.77001953 81.85229492 C63.97505287 83.49109586 65.17920507 85.1305452 66.38232422 86.77075195 C67.45138786 88.22436972 68.52725414 89.67302045 69.61132812 91.11547852 C70.77882674 92.69985295 71.87160135 94.33890569 72.9453125 95.98828125 C75.87072059 98.8525116 78.22605679 98.5722038 82.25 98.8125 C85.92250598 99.25628328 88.89870983 99.75992018 91.4296875 102.60986328 C93.87214287 106.50592963 95.61482664 110.69058456 97.16308594 115.01123047 C98.27614851 117.65621522 99.21646805 119.71689296 101 122 C103.57772249 122.99255068 105.78740676 123.64729025 108.45703125 124.2109375 C109.19644455 124.38702545 109.93585785 124.5631134 110.69767761 124.74453735 C113.06527896 125.30728439 115.4376209 125.84386917 117.8125 126.375 C139.50051229 131.24830427 155.46604324 138.60450139 168 158 C170.10516093 162.01538747 171.88789571 166.12665984 173.625 170.3125 C174.08938477 171.4046582 174.55376953 172.49681641 175.03222656 173.62207031 C175.94659683 175.77349219 176.85629425 177.92690755 177.76074219 180.08251953 C178.82745266 182.5937863 179.93021942 185.0800564 181.0703125 187.55859375 C181.50609619 188.5180188 181.50609619 188.5180188 181.95068359 189.49682617 C182.68598458 191.10959232 183.4285852 192.71902511 184.171875 194.328125 C185.37369677 198.20570089 184.59396484 200.707253 182.9375 204.3125 C182.4734375 205.1478125 182.4734375 205.1478125 182 206 C182.85464844 206.33064453 182.85464844 206.33064453 183.7265625 206.66796875 C192.47441337 211.79342777 197.27056938 224.16713801 201 233 C201.87015674 234.89806119 202.74492956 236.79401511 203.625 238.6875 C205.53919437 242.89994685 207.27660082 247.15941581 208.96875 251.46484375 C211.16037223 256.85258173 213.62932335 262.13147053 216.13671875 267.37890625 C218.53054597 272.49582317 220.00100186 277.43978668 221 283 C219.02 284.32 217.04 285.64 215 287 C216.38456678 291.03831979 218.31460549 293.71075992 221 297 C222.15697611 298.55426721 223.30221578 300.11731848 224.4375 301.6875 C225.12585938 302.63753906 225.81421875 303.58757812 226.5234375 304.56640625 C228.40748516 307.17563155 230.2859906 309.78881486 232.1640625 312.40234375 C239.49524494 322.62383806 239.49524494 322.62383806 247.13671875 332.61328125 C250.82606467 337.3390472 254.38893279 342.16169268 257.9765625 346.96484375 C259.89429043 349.53098129 261.82496353 352.08604221 263.7734375 354.62890625 C264.40403076 355.45588013 264.40403076 355.45588013 265.04736328 356.29956055 C266.17958431 357.78275631 267.31621067 359.26258623 268.453125 360.7421875 C270 363 270 363 270 365 C269.00922612 364.9968576 268.01845224 364.99371519 266.99765491 364.99047756 C242.80580447 364.91582486 218.61432694 364.8934663 194.42237568 364.92484188 C182.72290099 364.93882501 171.02388009 364.93628179 159.32446289 364.89379883 C149.118238 364.85678101 138.9125667 364.85182481 128.7063176 364.88417059 C123.31008137 364.9001845 117.91488237 364.90095822 112.51873207 364.86323357 C82.65731956 363.93188021 82.65731956 363.93188021 55.06387329 373.83503151 C51.17425319 376.03055624 46.9874165 377.56643593 42.83984375 379.203125 C41.18478804 379.87835133 39.53039163 380.55519823 37.87695312 381.234375 C36.23050124 381.90632961 34.58401673 382.57820428 32.9375 383.25 C30.4266414 384.27620868 27.91598951 385.30291722 25.40567017 386.33044434 C23.80013435 386.98670241 22.19385017 387.64113306 20.58676147 388.2935791 C17.14420847 389.69406051 13.71621042 391.11042134 10.32470703 392.63085938 C9.27009277 393.09814453 8.21547852 393.56542969 7.12890625 394.046875 C6.24404541 394.45260742 5.35918457 394.85833984 4.44750977 395.27636719 C-0.94927035 396.87198377 -5.82301572 393.96744859 -10.765625 391.8671875 C-11.51728943 391.55226349 -12.26895386 391.23733948 -13.043396 390.91287231 C-15.44745095 389.90459504 -17.84878027 388.89000834 -20.25 387.875 C-21.81752365 387.21570656 -23.38523052 386.55684857 -24.953125 385.8984375 C-27.29773737 384.91384953 -29.64223764 383.92900873 -31.98603821 382.94248962 C-39.35999086 379.84066723 -46.75595968 376.79340908 -54.1570282 373.75697327 C-67.67935063 368.20288038 -67.67935063 368.20288038 -69.65600204 366.95221901 C-73.03406743 365.57992341 -76.33183007 365.71227791 -79.92193604 365.7215271 C-81.12762698 365.7128385 -81.12762698 365.7128385 -82.35767531 365.70397437 C-85.05392042 365.68695461 -87.74999456 365.68409617 -90.44628906 365.68115234 C-92.37789328 365.67185553 -94.30949347 365.66168723 -96.24108887 365.65071106 C-101.48860998 365.62336917 -106.73610418 365.60824922 -111.98367786 365.59528303 C-117.46634324 365.57967083 -122.94895351 365.55287453 -128.43157959 365.5272522 C-138.8153873 365.48043056 -149.19920534 365.44370282 -159.58306479 365.41057932 C-171.40400658 365.37238186 -183.22489308 365.32296548 -195.04578829 365.27259517 C-219.3638179 365.16922495 -243.68188301 365.0799811 -268 365 C-266.68 362.69 -265.36 360.38 -264 358 C-263.34 358 -262.68 358 -262 358 C-261.64615234 356.69289063 -261.64615234 356.69289063 -261.28515625 355.359375 C-259.85217772 351.61359525 -258.04526362 349.28053107 -255.4375 346.25 C-252.4038953 342.83439086 -252.4038953 342.83439086 -250 339 C-249.34 339 -248.68 339 -248 339 C-247.64615234 337.69289063 -247.64615234 337.69289063 -247.28515625 336.359375 C-245.85217772 332.61359525 -244.04526362 330.28053107 -241.4375 327.25 C-238.4038953 323.83439086 -238.4038953 323.83439086 -236 320 C-235.34 320 -234.68 320 -234 320 C-233.61134766 319.18015625 -233.61134766 319.18015625 -233.21484375 318.34375 C-231.80576121 315.62526279 -230.21072263 313.08044318 -228.5625 310.5 C-227.96566406 309.5615625 -227.36882812 308.623125 -226.75390625 307.65625 C-223.62987496 302.92497767 -223.62987496 302.92497767 -222 301 C-221.34 301 -220.68 301 -220 301 C-219.7628125 300.30132812 -219.525625 299.60265625 -219.28125 298.8828125 C-217.7623217 295.46522382 -215.78390729 292.83369808 -213.5 289.875 C-211.25337435 286.95001012 -209.04601541 284.06902312 -207 281 C-207.5775 280.731875 -208.155 280.46375 -208.75 280.1875 C-211.0325868 278.98280141 -212.9737942 277.59201885 -215 276 C-213.3652496 268.95422577 -210.62663339 262.22174028 -207.5625 255.6875 C-205.59138252 251.4671319 -203.96667579 247.21239843 -202.4375 242.8125 C-200.87082608 238.31320835 -199.18018893 234.10613821 -196.9609375 229.8984375 C-193.88355032 223.81872137 -191.74258543 217.29414362 -189.5 210.875 C-187.91190395 206.3778228 -186.19719176 202.15064208 -183.984375 197.93359375 C-182.79333613 195.59405311 -181.72211748 193.22542638 -180.6875 190.8125 C-180.34074219 190.01457031 -179.99398437 189.21664062 -179.63671875 188.39453125 C-178.85540035 185.45619885 -179.03179382 183.87734514 -180 181 C-181.64707401 178.74193911 -181.64707401 178.74193911 -183.625 176.625 C-186.97558832 172.45568476 -186.97558832 172.45568476 -187.1875 168.5 C-185.06672549 162.24929619 -182.41548997 156.64298344 -179 151 C-177.41827586 147.52020688 -176.08260944 144.53696135 -175.5 140.75 C-174 138 -174 138 -171.74609375 137.06640625 C-168.84607892 136.28795999 -165.93240545 135.64427017 -163 135 C-161.49213933 134.52423094 -159.99114792 134.02581165 -158.5 133.5 C-153.39310097 131.76167282 -148.21897873 130.36005805 -143 129 C-141.17082031 128.51853516 -141.17082031 128.51853516 -139.3046875 128.02734375 C-131.13565981 125.91042258 -122.95465053 124.14692383 -114.6484375 122.66015625 C-110.75415943 121.95551707 -106.8844122 121.16395577 -103.015625 120.33203125 C-101 120 -101 120 -97 120 C-96.82984375 119.45472656 -96.6596875 118.90945312 -96.484375 118.34765625 C-94.44768787 112.01009258 -91.97739006 105.95478011 -89 100 C-87.2121873 99.84838338 -85.42274353 99.70687061 -83.63037109 99.62524414 C-76.73727141 99.23722918 -76.73727141 99.23722918 -70.65234375 96.31640625 C-68.55362412 93.65495301 -66.80031613 90.87313021 -65 88 C-63.4009748 85.78616896 -61.7639808 83.60333639 -60.125 81.41894531 C-54.22556136 73.54561044 -48.49913733 65.54371011 -42.75292969 57.55834961 C-38.76280245 52.02559122 -34.69596283 46.55530793 -30.58935547 41.10864258 C-26.68930797 35.93262209 -22.83788027 30.72224913 -19 25.5 C-12.72127771 16.9586358 -6.37726125 8.46797511 0 0 Z M-117.4609375 130.00390625 C-118.56268311 130.24713623 -119.66442871 130.49036621 -120.79956055 130.7409668 C-121.97945557 131.01207275 -123.15935059 131.28317871 -124.375 131.5625 C-125.5813208 131.83553955 -126.7876416 132.1085791 -128.03051758 132.38989258 C-138.04677004 134.69716657 -148.01890645 137.21690405 -157.82299805 140.31640625 C-159.27205343 140.77141971 -160.73270914 141.19103557 -162.20239258 141.57421875 C-166.16341998 142.74744913 -168.30883752 143.84999881 -170.42578125 147.4765625 C-171.08514794 148.84511248 -171.71334031 150.22904114 -172.3125 151.625 C-172.63863281 152.34776123 -172.96476562 153.07052246 -173.30078125 153.81518555 C-173.93507568 155.23803199 -174.55749082 156.66624812 -175.16650391 158.10009766 C-176 160 -176 160 -177.44921875 162.66796875 C-178.60627422 165.02939422 -179.18222039 166.36739488 -179 169 C-177.16665169 172.04544352 -175.14967715 174.59787956 -172.7578125 177.2265625 C-170.37274191 180.98967387 -171.09893433 182.68722359 -172 187 C-172.92202997 189.61435687 -173.88382207 192.12311518 -174.96484375 194.66796875 C-175.27016525 195.40499023 -175.57548676 196.14201172 -175.89006042 196.90136719 C-176.55253383 198.49790935 -177.21864202 200.09294717 -177.88800049 201.68661499 C-178.95262971 204.22355306 -180.00579939 206.76498209 -181.05615234 209.30786133 C-184.62292569 217.93313325 -188.22629911 226.54278436 -191.84638977 235.14579773 C-193.53823841 239.1749796 -195.21789921 243.20917734 -196.89553833 247.24429321 C-197.71435302 249.20445269 -198.53911675 251.16213779 -199.36984253 253.11727905 C-200.53405508 255.85769764 -201.67907905 258.60541769 -202.8203125 261.35546875 C-203.1736113 262.17354004 -203.5269101 262.99161133 -203.89091492 263.83447266 C-204.20035538 264.59058838 -204.50979584 265.3467041 -204.82861328 266.12573242 C-205.10456329 266.78087326 -205.38051331 267.4360141 -205.66482544 268.11100769 C-206.12700019 270.71575358 -205.44295455 271.82347122 -204 274 C-201.81545999 275.69596679 -199.67841078 277.2390019 -197.375 278.75 C-196.76398438 279.16121094 -196.15296875 279.57242188 -195.5234375 279.99609375 C-194.02104672 281.00551256 -192.51123091 282.0038647 -191 283 C-192.32373984 285.79275877 -193.80390274 288.26493873 -195.6171875 290.765625 C-196.13531006 291.48226318 -196.65343262 292.19890137 -197.18725586 292.93725586 C-197.74421143 293.70046143 -198.30116699 294.46366699 -198.875 295.25 C-199.45580322 296.04994385 -200.03660645 296.8498877 -200.63500977 297.67407227 C-204.83657996 303.4451716 -209.09719667 309.17010034 -213.39453125 314.87011719 C-218.01190687 320.99725313 -222.56300181 327.17223839 -227.10522461 333.35522461 C-227.65573486 334.10425049 -228.20624512 334.85327637 -228.7734375 335.625 C-229.30549805 336.35074219 -229.83755859 337.07648438 -230.38574219 337.82421875 C-231.49263106 339.31614156 -232.61389239 340.79747675 -233.74707031 342.26953125 C-234.29717773 342.98496094 -234.84728516 343.70039063 -235.4140625 344.4375 C-236.15970459 345.39462891 -236.15970459 345.39462891 -236.92041016 346.37109375 C-238.1841498 347.95215085 -238.1841498 347.95215085 -238 350 C-236.74883644 349.98560757 -236.74883644 349.98560757 -235.47239685 349.97092438 C-214.97096336 349.74078534 -194.47061002 349.60298133 -173.96789551 349.56215668 C-164.05179569 349.54029128 -154.1375617 349.48962088 -144.22216797 349.36572266 C-135.5577682 349.25753533 -126.89519732 349.20889983 -118.23010921 349.22555113 C-113.66088683 349.23241565 -109.09572835 349.21372649 -104.52731323 349.12312317 C-77.98815901 348.62399671 -57.41195764 353.81623149 -33.35115051 364.99768066 C-27.89638159 367.53027801 -22.35467428 369.8406629 -16.80502319 372.15587616 C-12.73465816 373.856079 -8.68537396 375.60263063 -4.63842773 377.35766602 C1.55851226 378.86633161 7.19996419 376.36674548 12.84765625 374.015625 C13.58140976 373.71815369 14.31516327 373.42068237 15.07115173 373.11419678 C17.40468907 372.16684159 19.73375932 371.20907824 22.0625 370.25 C25.11421622 369.00108731 28.1678357 367.75692392 31.22265625 366.515625 C31.96662155 366.21263992 32.71058685 365.90965485 33.47709656 365.5974884 C39.25519822 363.260617 45.08213554 361.13078041 50.97607422 359.10131836 C54.95484619 357.65224357 58.77200102 355.92295175 62.59765625 354.11328125 C63.39042969 353.74589844 64.18320312 353.37851562 65 353 C65.72903628 352.65278208 66.45807257 352.30556416 67.20920086 351.94782448 C70.61757258 350.79025706 73.45443943 350.73747112 77.05513 350.7215271 C77.75360603 350.7157347 78.45208206 350.7099423 79.17172402 350.70397437 C81.50556176 350.68700743 83.83920134 350.68410076 86.1730957 350.68115234 C87.84869367 350.67185188 89.52428702 350.66168303 91.19987488 350.65071106 C95.74487857 350.62341036 100.28985127 350.60826142 104.8349154 350.59528303 C109.58620271 350.57965283 114.33742671 350.55286224 119.08866882 350.5272522 C128.0841342 350.48046248 137.07961148 350.44371928 146.07513636 350.41057932 C156.31693454 350.37235932 166.55866914 350.32294883 176.80041373 350.27259517 C197.86689554 350.16927243 218.9334176 350.08001311 240 350 C238.25095469 346.37843027 236.10381398 343.18776058 233.75 339.9375 C233.31526367 339.33317139 232.88052734 338.72884277 232.43261719 338.10620117 C225.08581042 327.92434615 217.61235923 317.83178028 210.09765625 307.7734375 C209.14681152 306.49569458 209.14681152 306.49569458 208.17675781 305.19213867 C206.96518006 303.56437856 205.7498851 301.93937633 204.53027344 300.31762695 C201.5758888 296.34166907 199.03420467 292.52125349 197 288 C197.71542969 287.74476563 198.43085938 287.48953125 199.16796875 287.2265625 C202.20246618 285.9123112 204.63188911 284.30503984 207.3125 282.375 C208.19550781 281.74335938 209.07851563 281.11171875 209.98828125 280.4609375 C210.65214844 279.97882813 211.31601562 279.49671875 212 279 C211.42134286 274.480802 210.23055454 270.84067255 208.33984375 266.703125 C207.797229 265.50526367 207.25461426 264.30740234 206.69555664 263.07324219 C206.10979657 261.79870915 205.52377268 260.52429733 204.9375 259.25 C204.34106907 257.94202634 203.74528806 256.63375614 203.15014648 255.32519531 C202.26100884 253.37026774 201.37143894 251.41555681 200.4790802 249.46209717 C198.44080356 244.99507603 196.4713403 240.50250145 194.5324707 235.99169922 C188.97927707 223.15771383 182.00824466 214.57099125 172 205 C173.20381448 202.50638429 174.45428722 200.31856917 176 198 C175.65454677 193.33328591 174.10333083 189.4419215 172.26953125 185.16796875 C171.99662766 184.53192215 171.72372406 183.89587555 171.44255066 183.24055481 C170.86506557 181.90036285 170.28413616 180.56165033 169.69995117 179.22436523 C168.82159776 177.20838104 167.96000858 175.18580971 167.09960938 173.16210938 C159.84325717 156.30718442 151.12653867 145.04231477 133.90435791 137.73403931 C130.97187803 136.60370793 127.98731636 135.88991897 124.9296875 135.17578125 C124.28556915 135.02465378 123.64145081 134.87352631 122.97781372 134.71781921 C121.62900783 134.40304467 120.27945502 134.0914547 118.92919922 133.78295898 C116.87115485 133.31161937 114.81643081 132.82743382 112.76171875 132.34179688 C111.44288633 132.03569046 110.12388142 131.73032599 108.8046875 131.42578125 C107.61858887 131.15161377 106.43249023 130.87744629 105.21044922 130.5949707 C102.3723611 130.06900715 99.87367088 129.87657215 97 130 C96.36690809 131.18320576 95.74403282 132.37187848 95.125 133.5625 C94.77695312 134.22378906 94.42890625 134.88507813 94.0703125 135.56640625 C92.73898995 138.59346445 91.9084717 141.82034903 91 145 C84.4 144.67 77.8 144.34 71 144 C69.515 148.455 69.515 148.455 68 153 C66.04111672 150.5513959 64.44317697 148.05317043 62.9375 145.3125 C61.38390486 141.96434085 61.38390486 141.96434085 59 141 C39.69261685 137.8078582 20.20168526 137.50679283 0.6875 137.625 C-0.67055125 137.62945167 -2.02860397 137.63347496 -3.38665771 137.63708496 C-34.3840895 137.73317184 -64.88298721 139.62464994 -95.48095703 144.68041992 C-98.01608942 145.0020412 -100.44751692 145.05651148 -103 145 C-103.39832031 143.92878906 -103.79664063 142.85757813 -104.20703125 141.75390625 C-104.74159294 140.35654324 -105.2767818 138.95942004 -105.8125 137.5625 C-106.07353516 136.85544922 -106.33457031 136.14839844 -106.60351562 135.41992188 C-107.31735329 133.57804443 -108.15224475 131.78420508 -109 130 C-112.48993553 128.83668816 -113.91123495 129.21420958 -117.4609375 130.00390625 Z " fill="#E0C676" transform="translate(299,102)"/>
<path d="M0 0 C3.08469706 0.05197921 6.16661559 0.14707135 9.25 0.25 C10.12269531 0.26417969 10.99539063 0.27835938 11.89453125 0.29296875 C13.16103516 0.34130859 13.16103516 0.34130859 14.453125 0.390625 C15.61569824 0.4220459 15.61569824 0.4220459 16.80175781 0.45410156 C20.62938215 1.40463111 22.4029521 4.08572757 24.48876953 7.27978516 C24.94880371 8.10784668 25.40883789 8.9359082 25.8828125 9.7890625 C26.40593018 10.72290771 26.92904785 11.65675293 27.46801758 12.61889648 C28.01482178 13.61091064 28.56162598 14.6029248 29.125 15.625 C29.69178467 16.64086182 30.25856934 17.65672363 30.8425293 18.70336914 C32.56788843 21.79884504 34.28427923 24.89917402 36 28 C37.02409385 29.84020326 38.04879598 31.68006818 39.07421875 33.51953125 C41.38972865 37.67588357 43.69734689 41.8365121 46 46 C42.52172435 28.06802205 42.52172435 28.06802205 38.48046875 10.2578125 C38 8 38 8 38 5 C53.61105425 5.90429887 53.61105425 5.90429887 59 8 C61.93600391 12.77757055 63.31805419 18.000369 64.8190918 23.35424805 C65.21476852 24.73821777 65.21476852 24.73821777 65.61843872 26.15014648 C66.48460408 29.18569166 67.34211114 32.22360476 68.19921875 35.26171875 C68.79986805 37.37599635 69.40093303 39.49015589 70.00239563 41.60420227 C71.25935751 46.02714885 72.51219762 50.45123537 73.76196289 54.8762207 C75.36591003 60.5544709 76.97868405 66.23016717 78.59434795 71.90509319 C79.83524856 76.26643581 81.07221255 80.62888692 82.30790138 84.99170876 C82.90133534 87.08563826 83.49583419 89.17926625 84.09140587 91.27258873 C84.92120291 94.19195113 85.74586867 97.11271365 86.5690918 100.03393555 C86.8168486 100.90204361 87.06460541 101.77015167 87.31987 102.66456604 C87.54271667 103.45936371 87.76556335 104.25416138 87.99516296 105.07304382 C88.19037379 105.7630482 88.38558462 106.45305258 88.58671093 107.16396618 C89 109 89 109 89 112 C86.76585531 111.82268693 84.53250553 111.62134466 82.30859375 111.34375 C79.80580155 111.08371964 77.47539394 110.98285987 74.97265625 110.96875 C69.53722046 110.73761265 64.29642848 110.31889067 60.30273438 106.28613281 C56.81555682 101.54277376 54.25184128 96.28658095 51.60986328 91.04248047 C48.65806147 85.4638705 45.20336709 80.19382639 41.8125 74.875 C40.52538233 72.83196355 39.24007331 70.78778592 37.95703125 68.7421875 C37.41022705 67.8744873 36.86342285 67.00678711 36.30004883 66.11279297 C35 64 35 64 34 62 C34.85860644 71.11899253 36.59135515 80.04915814 38.27148438 89.046875 C38.49255859 90.2534375 38.71363281 91.46 38.94140625 92.703125 C39.24606812 94.33749512 39.24606812 94.33749512 39.55688477 96.00488281 C39.95975082 98.72794662 40.08625742 101.25376761 40 104 C32.86293587 104.21663938 26.09573841 103.98796089 19.03515625 102.9921875 C18.35328247 102.89736084 17.67140869 102.80253418 16.96887207 102.70483398 C15.31202457 102.47384867 13.65592648 102.23749807 12 102 C11.84180786 100.62001831 11.84180786 100.62001831 11.68041992 99.2121582 C9.08479812 76.54000087 9.08479812 76.54000087 6.00463867 53.92993164 C5.06155032 47.52740243 4.26743091 41.11762733 3.5390625 34.6875 C3.11809456 30.97637868 2.66781567 27.26936972 2.2109375 23.5625 C2.07300781 22.4374707 1.93507813 21.31244141 1.79296875 20.15332031 C1.51908755 17.92323621 1.2431221 15.69340686 0.96484375 13.46386719 C0.83980469 12.43938477 0.71476562 11.41490234 0.5859375 10.359375 C0.4729834 9.44639648 0.3600293 8.53341797 0.24365234 7.59277344 C0.00417584 5.04443634 -0.04326507 2.55783113 0 0 Z " fill="#FAFAFB" transform="translate(336,246)"/>
<path d="M0 0 C12.21 0 24.42 0 37 0 C40.37447731 10.12343193 40.37447731 10.12343193 41.0715332 13.72412109 C41.23233871 14.5381691 41.39314423 15.3522171 41.55882263 16.19093323 C41.72116898 17.04315964 41.88351532 17.89538605 42.05078125 18.7734375 C42.23016739 19.68701523 42.40955353 20.60059296 42.59437561 21.54185486 C42.97547231 23.48426811 43.35409706 25.42716778 43.73040771 27.37051392 C44.71225891 32.43836714 45.71303572 37.50246586 46.71484375 42.56640625 C47.00968658 44.05864967 47.00968658 44.05864967 47.31048584 45.58103943 C48.88654638 53.51858374 50.58282157 61.42099325 52.375 69.3125 C58.21493711 95.10703178 58.21493711 95.10703178 58 103 C48.59914567 103.09918838 39.35523829 103.07106464 30 102 C29.49639777 98.72971069 28.99774046 95.45868619 28.5 92.1875 C28.35691406 91.25873047 28.21382813 90.32996094 28.06640625 89.37304688 C27.93105469 88.48037109 27.79570312 87.58769531 27.65625 86.66796875 C27.53056641 85.84578857 27.40488281 85.0236084 27.27539062 84.17651367 C27 82 27 82 27 79 C22.05 79 17.1 79 12 79 C11.67 86.26 11.34 93.52 11 101 C1.76 101 -7.48 101 -17 101 C-17 94.66925803 -16.74434077 89.36374254 -15.54711914 83.28662109 C-15.3926683 82.46749741 -15.23821747 81.64837372 -15.0790863 80.8044281 C-14.57211874 78.12590604 -14.05367691 75.44974474 -13.53515625 72.7734375 C-13.17806448 70.8974942 -12.82174884 69.02140302 -12.46617126 67.14517212 C-11.53169029 62.22448557 -10.58766409 57.30568051 -9.64129639 52.38726807 C-8.30913689 45.45422286 -6.99019351 38.51864882 -5.66954041 31.58340454 C-4.96723153 27.89557132 -4.26143445 24.20843309 -3.55274963 20.52182007 C-3.22925074 18.83274476 -2.90575895 17.14366809 -2.58227539 15.45458984 C-2.43625885 14.6990834 -2.29024231 13.94357697 -2.13980103 13.16517639 C-2.0037999 12.45335709 -1.86779877 11.74153778 -1.72767639 11.00814819 C-1.61060868 10.39947088 -1.49354097 9.79079357 -1.37292576 9.16367149 C-0.84830822 6.11990211 -0.436801 3.05760699 0 0 Z " fill="#FBFBFB" transform="translate(281,244)"/>
<path d="M0 0 C7.62878546 -0.31688801 14.71809789 1.99662528 22 4 C22.71172363 4.19255371 23.42344727 4.38510742 24.15673828 4.58349609 C32.55964903 6.89097124 40.21252526 9.30507653 47 15 C47.67160156 15.52722656 48.34320313 16.05445313 49.03515625 16.59765625 C59.55422266 25.81957382 64.28891339 41.59788618 69.53125 54.2109375 C69.95760742 55.23646729 69.95760742 55.23646729 70.39257812 56.28271484 C71 58 71 58 71 60 C66.6251534 58.53361623 63.31590891 56.1578147 59.75 53.3125 C58.60053169 52.40460436 57.45079083 51.49705368 56.30078125 50.58984375 C55.74084473 50.14624512 55.1809082 49.70264648 54.60400391 49.24560547 C53.19377788 48.15048017 51.74589593 47.10421138 50.29296875 46.06640625 C44.23546064 41.71665333 41.09205088 37.46748086 39.3125 30.1875 C37.6360031 27.39333849 36.47660638 27.30710489 33.41796875 26.36328125 C32.59449951 26.10458252 31.77103027 25.84588379 30.92260742 25.5793457 C30.28814697 25.38816162 29.65368652 25.19697754 29 25 C34.75406654 44.52717506 34.75406654 44.52717506 49 58 C50.97188708 59.46104922 52.92994796 60.94091187 54.875 62.4375 C56.91644603 63.95862949 58.95812098 65.47945179 61 67 C75.86305756 78.08584885 84.58428752 88.08629965 92.25 105.1875 C92.7138208 106.21037109 93.1776416 107.23324219 93.65551758 108.28710938 C98.55624403 119.13889574 103.3001638 130.05995437 108 141 C104.55822696 142.17336573 102.41209977 141.81176769 98.94921875 140.8125 C97.95180664 140.52955078 96.95439453 140.24660156 95.92675781 139.95507812 C94.85780273 139.63990234 93.78884766 139.32472656 92.6875 139 C91.58116211 138.67966797 90.47482422 138.35933594 89.33496094 138.02929688 C87.02906937 137.35884988 84.72455591 136.68364646 82.42138672 136.00390625 C79.18376794 135.05392135 75.93924048 134.13308427 72.69140625 133.21875 C42.5912841 124.61104272 42.5912841 124.61104272 35 112 C31.72689579 104.14303845 29.31494487 95.92057572 26.75 87.8125 C26.38648438 86.66974609 26.02296875 85.52699219 25.6484375 84.34960938 C24.76360403 81.56704095 23.88082766 78.78383852 23 76 C26.72462258 76 27.86078946 77.03269411 30.89453125 79.140625 C31.85037109 79.79933594 32.80621094 80.45804687 33.79101562 81.13671875 C34.78810547 81.83410156 35.78519531 82.53148437 36.8125 83.25 C38.77724573 84.60951667 40.74208685 85.96889549 42.70703125 87.328125 C44.08967163 88.29890991 44.08967163 88.29890991 45.50024414 89.28930664 C47.48344616 90.64649939 49.47290311 91.86828833 51.546875 93.07421875 C54.73607125 95.57783938 55.31081869 97.70898688 56.4375 101.5625 C57.85715045 106.00986652 57.85715045 106.00986652 60.7265625 109.515625 C63.88853705 110.88805651 66.5622941 111 70 111 C68.89947487 108.12355897 67.79471749 105.24886431 66.6875 102.375 C66.2244043 101.16263672 66.2244043 101.16263672 65.75195312 99.92578125 C62.31367641 90.51613288 62.31367641 90.51613288 55.6875 83.25 C54.80578125 82.57582031 53.9240625 81.90164063 53.015625 81.20703125 C49.07142817 78.32041052 45.10062676 75.47319248 41.11523438 72.64379883 C18.36552874 56.49212941 11.28489718 40.3513341 4.05493164 14.05737305 C3.69709595 12.77020386 3.69709595 12.77020386 3.33203125 11.45703125 C3.12296143 10.69366455 2.9138916 9.93029785 2.69848633 9.14379883 C2.0512631 6.96048175 2.0512631 6.96048175 0.91674805 4.90893555 C0 3 0 3 0 0 Z " fill="#F9FAFA" transform="translate(399,237)"/>
<path d="M0 0 C3.34822933 1.11607644 3.76980199 1.69170015 5.71484375 4.47265625 C6.4871936 5.56211548 6.4871936 5.56211548 7.27514648 6.67358398 C7.82372314 7.46192627 8.3722998 8.25026855 8.9375 9.0625 C10.1133158 10.72225285 11.29042455 12.38109041 12.46875 14.0390625 C13.35820312 15.29444824 13.35820312 15.29444824 14.265625 16.57519531 C16.76686186 20.07213851 19.34459486 23.50825841 21.9375 26.9375 C27.53851335 34.36578109 33.06772341 41.84518314 38.57421875 49.34375 C40.81475405 52.39458368 43.0673953 55.43576745 45.33203125 58.46875 C45.84693115 59.16154053 46.36183105 59.85433105 46.89233398 60.56811523 C47.85816393 61.86728613 48.82755734 63.16381784 49.80102539 64.45727539 C53 68.77464508 53 68.77464508 53 71 C46.47621702 71.09901188 40.02397766 71.04590345 33.51953125 70.50390625 C22.77058749 69.75887749 12.0198997 69.84962608 1.25 69.875 C-0.36876541 69.87632935 -0.36876541 69.87632935 -2.02023315 69.87768555 C-18.36580346 69.89346298 -34.67508975 70.11896566 -51 71 C-47.95900621 65.39270413 -44.44707253 60.35034345 -40.625 55.25 C-39.36708666 53.55736661 -38.10927705 51.86465611 -36.8515625 50.171875 C-36.2112207 49.31271484 -35.57087891 48.45355469 -34.91113281 47.56835938 C-31.92588989 43.55651018 -28.96350445 39.52791778 -26 35.5 C-24.84519159 33.9321889 -23.69024296 32.36448108 -22.53515625 30.796875 C-21.95910645 30.01505859 -21.38305664 29.23324219 -20.78955078 28.42773438 C-18.92177734 25.89388184 -17.05279313 23.36092578 -15.18359375 20.828125 C-14.55646484 19.97798828 -13.92933594 19.12785156 -13.28320312 18.25195312 C-12.09092326 16.63575153 -10.89824319 15.01984507 -9.70507812 13.40429688 C-6.43005246 8.96378165 -3.19522571 4.49830659 0 0 Z " fill="#1D2333" transform="translate(299,127)"/>
<path d="M0 0 C0.48734095 5.03585647 -1.16018493 9.38910544 -3 14 C-3.38542969 15.04542969 -3.77085937 16.09085938 -4.16796875 17.16796875 C-6 20 -6 20 -9.25 21.2421875 C-10.4875 21.45101563 -11.725 21.65984375 -13 21.875 C-14.2375 22.09929687 -15.475 22.32359375 -16.75 22.5546875 C-20 23 -20 23 -23 23 C-23.14695312 23.680625 -23.29390625 24.36125 -23.4453125 25.0625 C-24.96977022 31.65096097 -26.99651767 37.84868153 -29.45117188 44.14697266 C-32.33890332 51.67018055 -34.72088831 59.34955534 -37.1081543 67.04370117 C-38.57546834 71.7308406 -40.08752438 76.34103648 -41.9609375 80.8828125 C-44.5275136 87.12877214 -46.48397307 93.55972285 -48.5 100 C-51.04786581 108.13925732 -53.712115 116.12878923 -57 124 C-57.30881104 124.89058105 -57.61762207 125.78116211 -57.93579102 126.69873047 C-59 129 -59 129 -61.87109375 130.2578125 C-63.04800781 130.54398438 -64.22492188 130.83015625 -65.4375 131.125 C-66.69175781 131.44210937 -67.94601563 131.75921875 -69.23828125 132.0859375 C-70.47964844 132.38757813 -71.72101563 132.68921875 -73 133 C-75.04315165 133.57811062 -77.08500383 134.16085131 -79.125 134.75 C-82.3869389 135.68198254 -84.52677855 136 -88 136 C-85.76178536 129.04604447 -83.19583203 122.2773128 -80.47265625 115.5 C-80.04246689 114.42427734 -79.61227753 113.34855469 -79.16905212 112.24023438 C-78.26343933 109.97736694 -77.3565627 107.71500494 -76.44848633 105.453125 C-75.06720301 102.01171735 -73.69052428 98.56849461 -72.31445312 95.125 C-71.42996053 92.9165573 -70.54520369 90.7082204 -69.66015625 88.5 C-69.25273697 87.48099609 -68.84531769 86.46199219 -68.42555237 85.41210938 C-66.36210529 80.27868033 -64.22246573 75.19685563 -61.95246887 70.15158081 C-60.33681883 66.50190602 -58.85256707 62.80028243 -57.36328125 59.09765625 C-57.03837204 58.29388046 -56.71346283 57.49010468 -56.37870789 56.66197205 C-55.35517367 54.12940331 -54.33368569 51.59601652 -53.3125 49.0625 C-52.2803393 46.50409749 -51.24772609 43.94588018 -50.2141571 41.38804626 C-49.57445201 39.8047124 -48.93559687 38.22103482 -48.29768372 36.63697815 C-46.11183733 31.22367465 -46.11183733 31.22367465 -45 29 C-45.65226562 29.20496094 -46.30453125 29.40992188 -46.9765625 29.62109375 C-51.63474466 31.05702306 -56.15149758 32.36203916 -61 33 C-59.53684808 28.07524475 -57.8196207 23.30190992 -55.6875 18.625 C-55.32011719 17.81289062 -54.95273438 17.00078125 -54.57421875 16.1640625 C-50.6957939 10.83243132 -43.57541162 9.97725078 -37.5 8.5625 C-35.71046476 8.13216949 -33.92140261 7.69986702 -32.1328125 7.265625 C-31.25915039 7.05357422 -30.38548828 6.84152344 -29.48535156 6.62304688 C-26.08708725 5.77114407 -22.73577847 4.80226773 -19.375 3.8125 C-6.3013664 0 -6.3013664 0 0 0 Z " fill="#F9FAFA" transform="translate(186,236)"/>
<path d="M0 0 C0 6.27 0 12.54 0 19 C-6.27 19 -12.54 19 -19 19 C-19.103125 21.3925 -19.20625 23.785 -19.3125 26.25 C-19.90963919 37.8109176 -21.24516725 49.28919428 -22.53222656 60.78955078 C-23.34721435 68.09538098 -24.12700461 75.40508865 -24.91415405 82.71395874 C-25.35165419 86.7729851 -25.79104192 90.83180684 -26.23046875 94.890625 C-26.38045304 96.27636713 -26.53043683 97.66210931 -26.68041992 99.04785156 C-26.83861206 100.50916504 -26.83861206 100.50916504 -27 102 C-30.35362609 102.3389231 -33.70797332 102.67011964 -37.0625 103 C-38.00544922 103.09539062 -38.94839844 103.19078125 -39.91992188 103.2890625 C-44.97512222 103.78225278 -49.92103608 104.11270932 -55 104 C-55.18987884 97.19741856 -54.70711947 90.81478982 -53.5390625 84.1171875 C-53.38843353 83.21807648 -53.23780457 82.31896545 -53.08261108 81.39260864 C-52.76528624 79.50799742 -52.44408406 77.62403524 -52.11914062 75.74072266 C-51.62530114 72.87674645 -51.14367399 70.01092098 -50.6640625 67.14453125 C-50.35227283 65.30196299 -50.03979614 63.45951083 -49.7265625 61.6171875 C-49.58376862 60.7711496 -49.44097473 59.92511169 -49.29385376 59.05343628 C-48.41187916 53.96303239 -47.2759821 49.00549167 -46 44 C-45.44487949 40.23366154 -45.00317979 36.46478374 -44.5625 32.68359375 C-44 29 -44 29 -42 22 C-50.91 22.99 -50.91 22.99 -60 24 C-58.875 13.875 -58.875 13.875 -57.9375 9.4375 C-57.76089844 8.59058594 -57.58429688 7.74367187 -57.40234375 6.87109375 C-57.26957031 6.25363281 -57.13679687 5.63617188 -57 5 C-52.37301265 3.25061354 -47.96575108 2.53033108 -43.06640625 2.1484375 C-42.31141342 2.08467926 -41.55642059 2.02092102 -40.77854919 1.95523071 C-39.182823 1.822328 -37.58678575 1.69311437 -35.99047852 1.56738281 C-33.60011261 1.37798027 -31.2112888 1.17432113 -28.82226562 0.96875 C-19.17815406 0.16704268 -9.67792255 -0.13118564 0 0 Z " fill="#FBFBFB" transform="translate(272,245)"/>
<path d="M0 0 C-2.64 1.65 -5.28 3.3 -8 5 C-6.27559692 4.95456055 -6.27559692 4.95456055 -4.51635742 4.90820312 C26.61554244 4.09838084 57.73162703 3.30241911 88.85888672 4.6418457 C97.91159839 5.02945988 106.94067011 5.10658035 116 5 C115.01 4.360625 114.02 3.72125 113 3.0625 C112.01 2.381875 111.02 1.70125 110 1 C110 0.67 110 0.34 110 0 C119.27505859 0.38646077 128.09759277 1.43128823 137.19140625 3.24609375 C145.48951872 4.88869447 153.85469996 5.98812206 162.24267578 7.0546875 C170.76366842 8.13935355 179.23305899 9.30763236 187.68041992 10.86816406 C196.41741249 12.47306903 205.2108498 13.71843828 214 15 C214 15.33 214 15.66 214 16 C190.27145634 16.26594881 166.61155127 15.39851186 143 13 C143 13.66 143 14.32 143 15 C143.928125 15.268125 144.85625 15.53625 145.8125 15.8125 C148.85184289 16.94480421 149.90073617 17.69900511 152 20 C150.43759968 20.02730408 148.8750573 20.04653226 147.3125 20.0625 C146.44238281 20.07410156 145.57226562 20.08570313 144.67578125 20.09765625 C142 20 142 20 139.77926636 19.52693176 C133.5021407 18.33682745 127.00704418 18.29011933 120.6328125 17.94921875 C119.80661533 17.90472784 118.98041817 17.86023693 118.12918472 17.81439781 C97.06081097 16.71222007 76.00006646 16.73311367 54.90881348 16.80438232 C50.82576755 16.81530747 46.74275461 16.81484708 42.65969658 16.81424427 C38.64599706 16.81451874 34.6323182 16.82004054 30.61862564 16.82724571 C28.74280069 16.83036653 26.86697348 16.8323838 24.99114609 16.83313942 C7.81765087 16.84768498 -9.26414301 17.5702741 -26.375 19.0625 C-38.78250127 20.13447162 -38.78250127 20.13447162 -44 20 C-41.6288106 17.37921171 -39.03882334 15.77554817 -36 14 C-36.54599854 14.02505615 -37.09199707 14.0501123 -37.65454102 14.07592773 C-38.42983154 14.11145752 -39.20512207 14.1469873 -40.00390625 14.18359375 C-40.87748779 14.22363525 -41.75106934 14.26367676 -42.65112305 14.30493164 C-44.62520521 14.39482066 -46.59932795 14.48382224 -48.57348633 14.57202148 C-53.5941161 14.79655488 -58.61389799 15.02882249 -63.6328125 15.2890625 C-78.42723334 16.03099633 -93.18884883 16.11120767 -108 16 C-108 15.67 -108 15.34 -108 15 C-100.71471332 13.8299259 -93.42877308 12.66403202 -86.14208984 11.50268555 C-83.92833211 11.14851871 -81.71498972 10.79175085 -79.50195312 10.43310547 C-71.28080696 9.1035224 -63.01985595 8.11143366 -54.74975586 7.14038086 C-49.16449736 6.46733136 -43.68423283 5.60395774 -38.17797852 4.45068359 C-35.48469247 3.89336871 -32.78320903 3.46316543 -30.0625 3.0625 C-26.06289283 2.47067269 -22.07190521 1.84870855 -18.0859375 1.171875 C-17.23507568 1.02999756 -16.38421387 0.88812012 -15.50756836 0.74194336 C-13.81982811 0.45993186 -12.13308528 0.17187137 -10.44750977 -0.12280273 C-9.66947998 -0.25114502 -8.8914502 -0.3794873 -8.08984375 -0.51171875 C-7.39753662 -0.62990967 -6.70522949 -0.74810059 -5.99194336 -0.86987305 C-4 -1 -4 -1 0 0 Z " fill="#F2F2F3" transform="translate(246,396)"/>
<path d="M0 0 C-0.48762796 7.91921201 -2.17055645 15.28128114 -4.1875 22.9375 C-6.57130254 32.22056547 -8.83855771 41.50951286 -10.875 50.875 C-13.41100305 62.51109069 -16.12076923 74.10139621 -18.875 85.6875 C-19.08026306 86.55107117 -19.28552612 87.41464233 -19.49700928 88.30438232 C-20.66211483 93.20353361 -21.82992785 98.10203264 -23 103 C-26.93683554 103.67063095 -30.87457057 104.33582501 -34.8125 105 C-36.49182617 105.28617188 -36.49182617 105.28617188 -38.20507812 105.578125 C-39.27822266 105.75859375 -40.35136719 105.9390625 -41.45703125 106.125 C-42.44678955 106.29257812 -43.43654785 106.46015625 -44.45629883 106.6328125 C-47 107 -47 107 -50 107 C-49.49935346 101.1077223 -48.54673763 95.64175797 -46.85449219 89.98022461 C-46.6380455 89.23407898 -46.42159882 88.48793335 -46.19859314 87.71917725 C-45.48850235 85.27808026 -44.76784977 82.84024612 -44.046875 80.40234375 C-43.54400544 78.68251605 -43.04175841 76.96250622 -42.5401001 75.24232483 C-41.2203996 70.72397269 -39.89150007 66.20837548 -38.56085205 61.6932373 C-37.48780169 58.04640074 -36.42137919 54.39764299 -35.35532761 50.74875546 C-34.06735686 46.34093026 -32.77623894 41.93402927 -31.484375 37.52734375 C-31.24453636 36.70885389 -31.00469772 35.89036404 -30.75759125 35.04707146 C-27.61349702 24.32958574 -24.36804022 13.64927953 -21 3 C-6.9375 -0.21428571 -6.9375 -0.21428571 0 0 Z " fill="#F9F9F9" transform="translate(208,251)"/>
<path d="M0 0 C0.56114502 0.28174072 1.12229004 0.56348145 1.70043945 0.85375977 C2.45929443 1.23201904 3.21814941 1.61027832 4 2 C4.74531982 2.3724585 5.49063965 2.74491699 6.25854492 3.12866211 C14.02860733 6.84191513 22.04527459 9.25660682 30.3125 11.5625 C31.63759485 11.9386612 32.96246588 12.31561181 34.28710938 12.69335938 C36.89933352 13.43685187 39.51272805 14.17595447 42.12744141 14.91064453 C46.01825411 16.00403957 49.90613223 17.10738757 53.79296875 18.21484375 C55.47749146 18.69425415 55.47749146 18.69425415 57.19604492 19.18334961 C59.14238175 19.75021915 61.0768226 20.35894087 63 21 C63 21.66 63 22.32 63 23 C60.62989231 25.19441903 57.91292762 26.93086205 55.25 28.75 C54.53972656 29.28238281 53.82945312 29.81476563 53.09765625 30.36328125 C48.64813494 33.37950543 45.70736923 34.37812841 40.34765625 33.50390625 C38.22733862 33.02169467 36.1115778 32.51914743 34 32 C31.59962591 31.54546178 29.1971577 31.10187687 26.79296875 30.66796875 C-5.96261643 24.35825572 -5.96261643 24.35825572 -14 19 C-13.40742395 15.81185373 -12.44419926 14.00921703 -10.3125 11.58203125 C-9.77882813 10.96779297 -9.24515625 10.35355469 -8.6953125 9.72070312 C-7.85613281 8.77614258 -7.85613281 8.77614258 -7 7.8125 C-6.16082031 6.85053711 -6.16082031 6.85053711 -5.3046875 5.86914062 C-1.37723214 1.37723214 -1.37723214 1.37723214 0 0 Z " fill="#D8BC6E" transform="translate(439,360)"/>
<path d="M0 0 C3.49367918 -0.44555018 5.54302456 0.30765905 8.3046875 2.37890625 C10.05666626 3.96402989 11.77606249 5.58591376 13.4609375 7.2421875 C15.39742853 9.11090134 17.15455317 10.54091083 19.4296875 11.94140625 C20.2134375 12.45703125 20.9971875 12.97265625 21.8046875 13.50390625 C21.8046875 14.16390625 21.8046875 14.82390625 21.8046875 15.50390625 C19.99871094 15.91962891 19.99871094 15.91962891 18.15625 16.34375 C16.58069843 16.70950304 15.00517927 17.0753957 13.4296875 17.44140625 C12.635625 17.62380859 11.8415625 17.80621094 11.0234375 17.99414062 C10.26289063 18.17138672 9.50234375 18.34863281 8.71875 18.53125 C7.6661499 18.77476196 7.6661499 18.77476196 6.59228516 19.02319336 C4.72074176 19.46271365 4.72074176 19.46271365 2.8046875 20.50390625 C-2.83939965 21.21292715 -5.63757264 20.02447211 -9.99609375 16.74023438 C-10.63933594 16.22912109 -11.28257813 15.71800781 -11.9453125 15.19140625 C-12.60402344 14.69189453 -13.26273438 14.19238281 -13.94140625 13.67773438 C-16.87750719 11.42950292 -19.61699693 9.16066264 -22.1953125 6.50390625 C-14.92981032 3.56976114 -7.61981133 1.74903143 0 0 Z " fill="#ECD684" transform="translate(124.1953125,368.49609375)"/>
<path d="M0 0 C0.19335938 0.67546875 0.38671875 1.3509375 0.5859375 2.046875 C0.97652344 3.38492187 0.97652344 3.38492187 1.375 4.75 C1.63023437 5.63171875 1.88546875 6.5134375 2.1484375 7.421875 C2.91101137 9.97240329 2.91101137 9.97240329 4.1015625 12.078125 C5 14 5 14 5 18 C1.95872183 18.33725065 -1.08294191 18.66992332 -4.125 19 C-4.9809375 19.09539062 -5.836875 19.19078125 -6.71875 19.2890625 C-11.17022474 19.76845209 -15.51441925 20.11765458 -20 20 C-21.33819498 17.3773768 -22.6707151 14.75213401 -24 12.125 C-24.3815625 11.37863281 -24.763125 10.63226563 -25.15625 9.86328125 C-25.5171875 9.14785156 -25.878125 8.43242187 -26.25 7.6953125 C-26.58515625 7.03547363 -26.9203125 6.37563477 -27.265625 5.69580078 C-28 4 -28 4 -28 2 C-18.5005349 0.38306977 -9.63225483 -0.26349633 0 0 Z " fill="#E3CA7A" transform="translate(246,351)"/>
<path d="M0 0 C9.41935553 -0.07535484 18.63577532 -0.13260601 28 1 C27.45582326 7.85662697 26.30669918 12.07990246 24 19 C16.08 19 8.16 19 0 19 C0 12.73 0 6.46 0 0 Z " fill="#CEB267" transform="translate(311,349)"/>
<path d="M0 0 C3.10837719 -0.39357869 4.89177084 -0.45153813 7.83984375 0.65625 C12.59542984 4.82312733 16.84827155 10.6815334 18.83984375 16.65625 C14.52395877 17.74722888 10.19122453 18.71771689 5.83984375 19.65625 C4.86273438 19.91148437 3.885625 20.16671875 2.87890625 20.4296875 C-0.1011996 21.01887748 -2.17194376 21.25300841 -5.16015625 20.65625 C-9.10874876 17.80634778 -12.10971394 14.42988095 -15.16015625 10.65625 C-15.91425781 9.76164062 -16.66835937 8.86703125 -17.4453125 7.9453125 C-19.16015625 5.65625 -19.16015625 5.65625 -19.16015625 3.65625 C-14.52233586 2.67864169 -9.88310904 1.78587033 -5.20751953 1.0078125 C-3.46497513 0.7085919 -1.73111551 0.35948999 0 0 Z " fill="#EAD381" transform="translate(179.16015625,357.34375)"/>
<path d="M0 0 C9.13338455 -0.28994872 17.96301675 0.8258212 27 2 C25.64474464 6.21775732 24.09799886 10.29421322 22.375 14.375 C21.92898438 15.43460937 21.48296875 16.49421875 21.0234375 17.5859375 C20.68570312 18.38257813 20.34796875 19.17921875 20 20 C11.53795229 20.30221599 3.36254017 19.14920797 -5 18 C-3.75971762 11.82777121 -2.10396411 5.93317878 0 0 Z " fill="#C8AA60" transform="translate(348,352)"/>
<path d="M0 0 C2.56364483 -0.10845031 5.12266279 -0.18749744 7.6875 -0.25 C8.40873047 -0.28351563 9.12996094 -0.31703125 9.87304688 -0.3515625 C13.7908251 -0.42312009 15.57191469 -0.27431256 18.96875 1.90234375 C22.10802594 5.14424987 21.98297557 7.04663215 22.0625 11.5 C22.041875 12.655 22.02125 13.81 22 15 C22 19.41058884 22.48664181 19.75357901 25 23 C25 23.99 25 24.98 25 26 C22.36 26 19.72 26 17 26 C13 19.25 13 19.25 13 17 C11.68 17 10.36 17 9 17 C9 19.64 9 22.28 9 25 C6.69 25 4.38 25 2 25 C0.47983837 16.58481953 -0.27733386 8.5511272 0 0 Z " fill="#252936" transform="translate(313,207)"/>
<path d="M0 0 C8.91 0 17.82 0 27 0 C28 8 28 8 28 18 C19.75 18 11.5 18 3 18 C0 4.5 0 4.5 0 0 Z " fill="#DEC373" transform="translate(264,349)"/>
<path d="M0 0 C3.00261019 0.31606423 6.00103236 0.65155598 9 1 C10.27617187 1.14566406 11.55234375 1.29132813 12.8671875 1.44140625 C14.22405406 1.60598356 15.58082512 1.77135 16.9375 1.9375 C18.22527344 2.09089844 19.51304687 2.24429687 20.83984375 2.40234375 C24 3 24 3 26 5 C25.21753906 5.98742187 24.43507813 6.97484375 23.62890625 7.9921875 C22.60667786 9.28638491 21.58454753 10.58065976 20.5625 11.875 C20.04623047 12.52597656 19.52996094 13.17695313 18.99804688 13.84765625 C18.50498047 14.47285156 18.01191406 15.09804688 17.50390625 15.7421875 C17.04830322 16.3182373 16.5927002 16.89428711 16.12329102 17.48779297 C14.91817837 19.01835651 14.91817837 19.01835651 14 21 C6.1177798 20.48400816 -1.34458305 18.9078547 -9 17 C-7.51481201 12.95698825 -5.57122002 9.38853744 -3.375 5.6875 C-2.74335938 4.61886719 -2.11171875 3.55023438 -1.4609375 2.44921875 C-0.97882813 1.64097656 -0.49671875 0.83273437 0 0 Z " fill="#C3A55C" transform="translate(397,357)"/>
<path d="M0 0 C3.3 0 6.6 0 10 0 C10.40992188 1.26457031 10.81984375 2.52914062 11.2421875 3.83203125 C11.78621919 5.49226588 12.33050319 7.15241785 12.875 8.8125 C13.14441406 9.64587891 13.41382813 10.47925781 13.69140625 11.33789062 C13.95566406 12.14033203 14.21992188 12.94277344 14.4921875 13.76953125 C14.85352783 14.87711792 14.85352783 14.87711792 15.22216797 16.00708008 C16.02070642 18.26312595 16.02070642 18.26312595 18 21 C18.125 23.6875 18.125 23.6875 18 26 C15.36 26 12.72 26 10 26 C9.505 23.525 9.505 23.525 9 21 C6.03 21 3.06 21 0 21 C0 22.65 0 24.3 0 26 C-2.64 26 -5.28 26 -8 26 C-7.42551213 20.51364081 -6.02375598 15.86666605 -4 10.75 C-3.45803571 9.34907344 -2.91635769 7.94803608 -2.375 6.546875 C-1.92125 5.37640625 -1.4675 4.2059375 -1 3 C-0.67 2.01 -0.34 1.02 0 0 Z " fill="#282C37" transform="translate(292,207)"/>
<path d="M0 0 C3.15881969 -0.5808409 5.85790562 -0.74119238 9 0 C11.83179351 2.62203103 13.52701825 5.7641372 15.375 9.125 C15.88160156 9.9809375 16.38820313 10.836875 16.91015625 11.71875 C24 23.81428396 24 23.81428396 24 27 C21.36 27 18.72 27 16 27 C15.505 24.525 15.505 24.525 15 22 C12.03 21.67 9.06 21.34 6 21 C6 22.32 6 23.64 6 25 C3.69 25 1.38 25 -1 25 C-1.02727345 22.33326258 -1.04696948 19.66681131 -1.0625 17 C-1.07087891 16.25621094 -1.07925781 15.51242188 -1.08789062 14.74609375 C-1.10966272 9.73851156 -0.71541549 4.95720968 0 0 Z " fill="#222735" transform="translate(344,209)"/>
<path d="M0 0 C1.4540625 0.0309375 1.4540625 0.0309375 2.9375 0.0625 C2.46395502 5.55562173 1.6904476 10.95228331 0.6875 16.375 C0.47609375 17.54675781 0.2646875 18.71851563 0.046875 19.92578125 C-1.3382905 23.84228793 -2.4121552 25.0797762 -6.0625 27.0625 C-9.02420944 27.51272323 -11.8884272 27.44267752 -14.875 27.3125 C-16.05739258 27.28542969 -16.05739258 27.28542969 -17.26367188 27.2578125 C-19.19714261 27.21094048 -21.12998285 27.1392041 -23.0625 27.0625 C-23.33499757 20.90684988 -22.47740719 15.97819846 -20.625 10.125 C-20.39490234 9.35865234 -20.16480469 8.59230469 -19.92773438 7.80273438 C-18.22253667 2.22253667 -18.22253667 2.22253667 -17.0625 1.0625 C-15.06291636 1.02169217 -13.06204746 1.01995644 -11.0625 1.0625 C-11.77463718 5.55656959 -12.66021425 9.99109613 -13.625 14.4375 C-13.89441406 15.68273437 -14.16382813 16.92796875 -14.44140625 18.2109375 C-14.64636719 19.15195313 -14.85132813 20.09296875 -15.0625 21.0625 C-12.7525 20.4025 -10.4425 19.7425 -8.0625 19.0625 C-7.78535156 17.77472656 -7.50820312 16.48695313 -7.22265625 15.16015625 C-6.85696528 13.48172846 -6.49106928 11.80334532 -6.125 10.125 C-5.94259766 9.27486328 -5.76019531 8.42472656 -5.57226562 7.54882812 C-5.39501953 6.73994141 -5.21777344 5.93105469 -5.03515625 5.09765625 C-4.87281494 4.3487915 -4.71047363 3.59992676 -4.54321289 2.82836914 C-3.71291773 -0.2216689 -3.33641049 0.06809001 0 0 Z " fill="#262A36" transform="translate(261.0625,207.9375)"/>
<path d="M0 0 C-0.734375 3.7890625 -0.734375 3.7890625 -3.125 5.6875 C-6.43360235 7.1979489 -9.3950641 7.64657491 -13 8 C-14.32 11.96 -15.64 15.92 -17 20 C-15.35 19.67 -13.7 19.34 -12 19 C-10.75702373 17.17138119 -10.75702373 17.17138119 -10.1875 14.9375 C-9.95417969 14.20402344 -9.72085938 13.47054687 -9.48046875 12.71484375 C-9.24263672 11.86599609 -9.24263672 11.86599609 -9 11 C-6.69 11 -4.38 11 -2 11 C-2.45294865 12.75140143 -2.91258748 14.50107344 -3.375 16.25 C-3.63023437 17.22453125 -3.88546875 18.1990625 -4.1484375 19.203125 C-5.61792591 24.02951813 -5.61792591 24.02951813 -7 26 C-9.06640625 26.609375 -9.06640625 26.609375 -11.5625 26.75 C-12.44808594 26.80542969 -13.33367187 26.86085937 -14.24609375 26.91796875 C-18.17024583 27.03485839 -22.07419623 27.06331942 -26 27 C-26.32955877 21.97997691 -25.29877431 18.53544986 -23.3125 13.9375 C-22.81363281 12.75027344 -22.31476563 11.56304687 -21.80078125 10.33984375 C-19.41271751 5.91078845 -16.81757073 2.86747694 -12.25 0.6875 C-8.11707625 -0.18677233 -4.20604714 -0.16824189 0 0 Z " fill="#272B36" transform="translate(236,211)"/>
<path d="M0 0 C2.63227064 0.23520289 5.2637858 0.47471882 7.89453125 0.7265625 C9.88915417 0.90218968 11.8870207 1.04561135 13.88671875 1.1484375 C14.76972656 1.20257813 15.65273438 1.25671875 16.5625 1.3125 C17.77099609 1.36857422 17.77099609 1.36857422 19.00390625 1.42578125 C21 2 21 2 22.27734375 3.85546875 C23 6 23 6 23 9 C21.35 9 19.7 9 18 9 C19.29385256 14.49112038 19.29385256 14.49112038 21.125 19.8125 C22 22 22 22 22 25 C22.66 25 23.32 25 24 25 C24 26.32 24 27.64 24 29 C21.36 28.67 18.72 28.34 16 28 C15.49339844 26.67935547 15.49339844 26.67935547 14.9765625 25.33203125 C14.53054688 24.17058594 14.08453125 23.00914062 13.625 21.8125 C13.18414062 20.66394531 12.74328125 19.51539063 12.2890625 18.33203125 C11.50162432 16.29662285 10.68975169 14.27018771 9.8359375 12.26171875 C9 10 9 10 9 7 C6.69 7 4.38 7 2 7 C0.5393715 4.35261084 0 3.10551666 0 0 Z " fill="#2F3138" transform="translate(360,210)"/>
<path d="M0 0 C2.31 0 4.62 0 7 0 C6.77035935 3.43483782 6.52984528 6.86810693 6.26953125 10.30078125 C6.11199778 12.4628711 5.97457214 14.62692833 5.88671875 16.79296875 C5.67648495 20.37895663 5.26463468 22.63833261 3.125 25.5625 C-1.52987472 27.70374237 -5.95828289 27.31786658 -11 27 C-11 25.02 -11 23.04 -11 21 C-7.04 20.505 -7.04 20.505 -3 20 C-2.01 13.4 -1.02 6.8 0 0 Z " fill="#272B36" transform="translate(275,207)"/>
<path d="M0 0 C2.11581809 3.17372714 2.49302122 4.91795946 3.0703125 8.62890625 C3.33134766 10.30629883 3.33134766 10.30629883 3.59765625 12.01757812 C3.77167969 13.18740234 3.94570313 14.35722656 4.125 15.5625 C4.30675781 16.70525391 4.48851562 17.84800781 4.67578125 19.02539062 C5.70117717 25.76756152 6.19205463 32.18206055 6 39 C2.7 39 -0.6 39 -4 39 C-2.02501099 10.64207904 -2.02501099 10.64207904 0 0 Z " fill="#323848" transform="translate(299,264)"/>
<path d="M0 0 C2.22972338 0.46619958 4.357143 1.05642566 6.5324707 1.73095703 C11.01858331 3.10082873 15.51569189 4.42885861 20.02075195 5.73486328 C21.03989937 6.03057472 21.03989937 6.03057472 22.07963562 6.33226013 C24.18229358 6.94210168 26.28511278 7.55138503 28.38793945 8.16064453 C29.83586829 8.58052443 31.28378505 9.00044601 32.73168945 9.42041016 C36.24196712 10.43846814 39.75240736 11.45596419 43.26293945 12.47314453 C43.26293945 14.12314453 43.26293945 15.77314453 43.26293945 17.47314453 C42.76793945 16.48314453 42.76793945 16.48314453 42.26293945 15.47314453 C40.32332667 14.89832685 40.32332667 14.89832685 37.95825195 14.55517578 C31.90560895 13.45107909 26.05228859 11.843226 20.13793945 10.16064453 C19.05005127 9.85376709 17.96216309 9.54688965 16.84130859 9.23071289 C8.26611032 6.79596796 -0.25569908 4.21599913 -8.73706055 1.47314453 C-5.31639525 -0.807299 -3.94036846 -0.61492221 0 0 Z " fill="#2F323C" transform="translate(459.737060546875,365.52685546875)"/>
<path d="M0 0 C-2.67655879 3.42168139 -5.85051861 4.0681903 -9.9375 5.1875 C-11.16339844 5.53167969 -12.38929687 5.87585938 -13.65234375 6.23046875 C-17 7 -17 7 -21 7 C-21 6.34 -21 5.68 -21 5 C-21.66 4.67 -22.32 4.34 -23 4 C-20.58343624 3.35377959 -18.16675354 2.70800996 -15.75 2.0625 C-15.06808594 1.88009766 -14.38617188 1.69769531 -13.68359375 1.50976562 C-11.78970056 1.00411453 -9.89487972 0.50194154 -8 0 C-7.2265625 -0.2165625 -6.453125 -0.433125 -5.65625 -0.65625 C-3.53420118 -1.09667523 -2.03974093 -0.65563101 0 0 Z " fill="#292E3C" transform="translate(125,367)"/>
<path d="M0 0 C-0.99 0.33 -1.98 0.66 -3 1 C-0.36 1.33 2.28 1.66 5 2 C5 2.33 5 2.66 5 3 C3.84242188 3.13277344 2.68484375 3.26554687 1.4921875 3.40234375 C-0.04688408 3.58065082 -1.58594607 3.75904062 -3.125 3.9375 C-4.26582031 4.06801758 -4.26582031 4.06801758 -5.4296875 4.20117188 C-9.64329577 4.6915487 -13.821195 5.25902978 -18 6 C-17.34 5.67 -16.68 5.34 -16 5 C-16 4.34 -16 3.68 -16 3 C-17.65 3 -19.3 3 -21 3 C-21 2.67 -21 2.34 -21 2 C-18.25162151 1.46892686 -15.50187625 0.94984119 -12.75 0.4375 C-11.97269531 0.28603516 -11.19539062 0.13457031 -10.39453125 -0.02148438 C-9.64042969 -0.16005859 -8.88632813 -0.29863281 -8.109375 -0.44140625 C-7.07248535 -0.63778687 -7.07248535 -0.63778687 -6.01464844 -0.83813477 C-3.78712058 -1.01710362 -2.12493038 -0.65206197 0 0 Z " fill="#535456" transform="translate(182,355)"/>
<path d="M0 0 C2.60466543 0.30872329 5.20867691 0.62181723 7.8125 0.9375 C8.55048828 1.02451172 9.28847656 1.11152344 10.04882812 1.20117188 C13.16733121 1.58216546 16.01108122 2.00369374 19 3 C18.67 3.99 18.34 4.98 18 6 C11.15182898 5.51358785 4.66957927 4.64006048 -2 3 C-1.34 2.67 -0.68 2.34 0 2 C0 1.34 0 0.68 0 0 Z " fill="#2A2D39" transform="translate(399,354)"/>
<path d="M0 0 C-2.97 0.66 -5.94 1.32 -9 2 C-6.69 2.33 -4.38 2.66 -2 3 C-2 3.33 -2 3.66 -2 4 C-10.91 4 -19.82 4 -29 4 C-29 3.67 -29 3.34 -29 3 C-24.91880031 2.29940894 -20.8347923 1.6168041 -16.75 0.9375 C-15.59113281 0.73833984 -14.43226563 0.53917969 -13.23828125 0.33398438 C-12.12324219 0.15029297 -11.00820312 -0.03339844 -9.859375 -0.22265625 C-8.83295898 -0.39547119 -7.80654297 -0.56828613 -6.74902344 -0.74633789 C-4 -1 -4 -1 0 0 Z " fill="#C5C7CB" transform="translate(167,408)"/>
<path d="M0 0 C5.23880078 0.55145271 9.97350697 1.42922093 15 3 C15 4.65 15 6.3 15 8 C14.67 7.34 14.34 6.68 14 6 C11.78425456 5.38297191 11.78425456 5.38297191 9.1875 5 C5.75560091 4.43224121 3.04440809 3.70316537 0 2 C0 1.34 0 0.68 0 0 Z " fill="#2C303A" transform="translate(488,375)"/>
<path d="M0 0 C-1 3 -1 3 -2.8125 4.1875 C-5 5 -5 5 -9 5 C-9 4.34 -9 3.68 -9 3 C-9.66 2.67 -10.32 2.34 -11 2 C-7.17679443 0.57741188 -4.08718695 -0.24042276 0 0 Z " fill="#363A47" transform="translate(113,369)"/>
<path d="M0 0 C3.10551666 3.10551666 3.81323934 4.89198233 5 9 C3.35 9 1.7 9 0 9 C0 6.03 0 3.06 0 0 Z " fill="#AD965B" transform="translate(350,216)"/>
<path d="M0 0 C0.66 0 1.32 0 2 0 C2.33 2.97 2.66 5.94 3 9 C1.68 9 0.36 9 -1 9 C-0.67 6.03 -0.34 3.06 0 0 Z " fill="#B9A365" transform="translate(296,213)"/>
<path d="M0 0 C1.98 0 3.96 0 6 0 C6 1.32 6 2.64 6 4 C4.02 4 2.04 4 0 4 C0 2.68 0 1.36 0 0 Z " fill="#D2B669" transform="translate(321,214)"/>
<path d="M0 0 C0.66 0.33 1.32 0.66 2 1 C1.34 1.66 0.68 2.32 0 3 C2.31 3.33 4.62 3.66 7 4 C7 4.33 7 4.66 7 5 C3.04 5 -0.92 5 -5 5 C-3.35 3.35 -1.7 1.7 0 0 Z " fill="#383D4D" transform="translate(242,397)"/>
<path d="M0 0 C2.97 0.495 2.97 0.495 6 1 C5.01 2.485 5.01 2.485 4 4 C1.69 3.67 -0.62 3.34 -3 3 C-2.01 2.67 -1.02 2.34 0 2 C0 1.34 0 0.68 0 0 Z " fill="#48494B" transform="translate(470,369)"/>
<path d="M0 0 C0.66 0.33 1.32 0.66 2 1 C1.34 2.32 0.68 3.64 0 5 C-1.98 5 -3.96 5 -6 5 C-4.06745228 2.9754262 -2.36841312 1.57894208 0 0 Z " fill="#CCCED2" transform="translate(208,411)"/>
<path d="M0 0 C0.66 0.66 1.32 1.32 2 2 C-0.97 2 -3.94 2 -7 2 C-5.26578631 -1.46842738 -3.40984787 -1.13661596 0 0 Z " fill="#212635" transform="translate(174,357)"/>
</svg>
