<?xml version="1.0" encoding="UTF-8"?>
<svg version="1.1" xmlns="http://www.w3.org/2000/svg" width="600" height="600">
<path d="M0 0 C198 0 396 0 600 0 C600 198 600 396 600 600 C402 600 204 600 0 600 C0 402 0 204 0 0 Z " fill="#FDFDFD" transform="translate(0,0)"/>
<path d="M0 0 C-2.67658604 8.34297564 -11.2670386 11.74881978 -18.625 15.5625 C-29.16601845 20.67260242 -40.17350341 24.4496455 -51.296875 28.078125 C-53.78542182 28.92682016 -56.19725344 29.86756775 -58.625 30.875 C-63.29110011 32.7835176 -68.03159679 34.40770002 -72.8125 36 C-73.52293457 36.23702637 -74.23336914 36.47405273 -74.96533203 36.71826172 C-81.61268849 38.91220213 -88.30696131 40.95068465 -95 43 C-97.11998599 43.65431866 -99.23978036 44.30925848 -101.359375 44.96484375 C-115.1802739 49.2336743 -129.00531048 53.47053428 -142.9296875 57.390625 C-153.31437872 60.31946588 -163.62634009 63.40753237 -173.89331055 66.72802734 C-174.76511963 67.00984863 -175.63692871 67.29166992 -176.53515625 67.58203125 C-177.302229 67.83186768 -178.06930176 68.0817041 -178.85961914 68.33911133 C-181 69 -181 69 -183.20166016 69.47705078 C-185.16978892 69.84463178 -185.16978892 69.84463178 -186.23828125 71.78515625 C-186.77001953 72.91244141 -186.77001953 72.91244141 -187.3125 74.0625 C-193.24626137 85.29045565 -202.36090805 91.9959992 -214.2578125 96.1328125 C-220.11284996 97.6751881 -225.97299073 98.49774923 -232 99 C-233.32706735 108.98124061 -234.42485739 118.95996579 -235.30224609 128.9909668 C-235.37910645 129.844729 -235.4559668 130.69849121 -235.53515625 131.578125 C-235.600979 132.33512695 -235.66680176 133.09212891 -235.73461914 133.87207031 C-235.99732062 135.9785157 -236.44099773 137.95409228 -237 140 C-239.64 140 -242.28 140 -245 140 C-246.19388403 100.36686044 -246.19388403 100.36686044 -246 81 C-244.74445313 80.97421875 -243.48890625 80.9484375 -242.1953125 80.921875 C-227.19656432 80.48390296 -227.19656432 80.48390296 -214.0625 73.75 C-209.96807389 68.29076519 -208.9130172 63.38490921 -208.421875 56.72265625 C-208.3403418 55.64894775 -208.25880859 54.57523926 -208.17480469 53.46899414 C-208.11711914 52.65422607 -208.05943359 51.83945801 -208 51 C-199.02149469 48.74735916 -190.04224779 46.49768237 -181.0625 44.25 C-180.36285629 44.07487507 -179.66321259 43.89975014 -178.94236755 43.71931839 C-152.00708581 36.97828433 -125.05425423 30.30945846 -98.0944519 23.66723633 C-80.26099919 19.27345291 -62.43046224 14.86951905 -44.6171875 10.39453125 C-43.18253828 10.03436819 -41.74788663 9.67421484 -40.31323242 9.31407166 C-34.95220121 7.96783023 -29.59120089 6.62150548 -24.23254395 5.26583862 C-20.67916079 4.36715416 -17.12481762 3.47235936 -13.5703125 2.578125 C-12.53075409 2.3135701 -11.49119568 2.0490152 -10.4201355 1.77644348 C-9.00584763 1.42159126 -9.00584763 1.42159126 -7.56298828 1.05957031 C-6.74806915 0.85342102 -5.93315002 0.64727173 -5.09353638 0.43487549 C-3 0 -3 0 0 0 Z " fill="#E07F13" transform="translate(570,157)"/>
<path d="M0 0 C3.57360929 0.68807285 7.09749251 1.49498231 10.62686157 2.38169861 C11.74957458 2.66311707 12.8722876 2.94453552 14.02902222 3.23448181 C15.2525943 3.54245193 16.47616638 3.85042206 17.73681641 4.16772461 C19.04705021 4.49658268 20.35731303 4.82532515 21.66760254 5.15396118 C24.49248219 5.8626657 27.31718853 6.57205561 30.14177322 7.28193474 C34.65661201 8.41646039 39.1720442 9.54861142 43.68759155 10.68031311 C56.53124601 13.89953546 69.37446 17.12050453 82.21630859 20.34692383 C91.59372636 22.70272733 100.97214828 25.0545016 110.3515625 27.40234375 C111.11404832 27.59326835 111.87653414 27.78419295 112.66212559 27.98090315 C133.45250866 33.18550871 154.25782197 38.29634978 175.16567993 43.01268005 C183.19098622 44.82918729 191.09748929 46.79402978 198.97915649 49.17222595 C201.97538639 49.99325536 204.92892467 50.5441976 208 51 C208.02578125 51.76183594 208.0515625 52.52367187 208.078125 53.30859375 C208.54399031 61.78946002 210.01066117 68.07115469 215.1875 74.875 C221.78910555 79.86287975 229.02386795 80.43071695 237.0625 80.1875 C238.3609082 80.16719727 238.3609082 80.16719727 239.68554688 80.14648438 C241.79064174 80.1115933 243.89540974 80.05780665 246 80 C246.02504288 85.97330432 246.04301926 91.94657691 246.05493164 97.91992188 C246.05990684 99.94466689 246.06668939 101.96940841 246.07543945 103.99414062 C246.12613814 116.04253442 245.96668358 127.98565972 245 140 C242.36 140 239.72 140 237 140 C236.42299919 135.60842533 235.85365059 131.21594246 235.29101562 126.82250977 C235.09904605 125.33168566 234.90507911 123.8411172 234.70898438 122.35083008 C233.6835529 114.54761042 232.71534034 106.89041002 233 99 C231.96875 99.0825 230.9375 99.165 229.875 99.25 C217.46605173 99.22799832 203.9704778 93.47899989 194.89453125 85.10546875 C186 75.22061856 186 75.22061856 186 70 C185.27296875 69.82984375 184.5459375 69.6596875 183.796875 69.484375 C182.28867187 69.12085938 182.28867187 69.12085938 180.75 68.75 C179.77546875 68.51796875 178.8009375 68.2859375 177.796875 68.046875 C174.58102863 67.16020131 171.46192013 66.16412011 168.3046875 65.09375 C162.38032934 63.09386592 156.40722084 61.38988894 150.375 59.75 C133.18596114 55.00232849 116.14008877 49.7987667 99.25195312 44.07128906 C94.55314449 42.48710701 89.82986482 41.04993384 85.0625 39.6875 C77.31279939 37.45991774 69.65457912 34.97116311 62 32.4375 C60.854104 32.06133545 59.70820801 31.6851709 58.52758789 31.29760742 C52.88405492 29.41532974 47.41724099 27.39845731 42.01611328 24.90454102 C38.88436845 23.49946538 35.67287777 22.39705781 32.4375 21.25 C6.45582014 11.72999516 6.45582014 11.72999516 0 4 C0 2.68 0 1.36 0 0 Z " fill="#E07F12" transform="translate(30,157)"/>
<path d="M0 0 C-0.66538076 11.08967935 -4.34445976 21.82400166 -12.21875 29.81640625 C-17.57902264 34.02482255 -23.66084153 36.57284145 -30 39 C-30.8360376 39.32331299 -31.6720752 39.64662598 -32.53344727 39.97973633 C-38.99639259 42.41045702 -45.48775778 44.28455738 -52.1875 45.9375 C-59.44661763 47.73563006 -66.59287492 49.77456033 -73.72026062 52.03517151 C-80.70533436 54.24292906 -87.74111884 56.25623457 -94.78982544 58.24975586 C-98.63073877 59.33632549 -102.46950915 60.43042771 -106.30859375 61.5234375 C-107.06571152 61.73881165 -107.82282928 61.95418579 -108.60289001 62.17608643 C-122.82875358 66.22509002 -137.0137867 70.41431797 -151.20239258 74.59155273 C-175.77567248 81.82559923 -175.77567248 81.82559923 -187.8835144 85.35626221 C-189.80633416 85.91745909 -191.72849712 86.48090485 -193.65063477 87.04443359 C-201.06208397 89.20171899 -208.49608558 91.18986786 -216 93 C-216 90.69 -216 88.38 -216 86 C-215.16339844 85.87625 -214.32679688 85.7525 -213.46484375 85.625 C-198.63115872 82.99666157 -186.12399381 76.35946424 -176 65 C-175.02060395 63.26170021 -174.06145469 61.51180458 -173.125 59.75 C-168.2873704 52.36078056 -158.87715581 51.57966986 -150.82080078 49.68994141 C-146.41075376 48.61128528 -142.08721351 47.27476513 -137.75 45.9375 C-136.08757497 45.43508683 -134.42481842 44.93376917 -132.76171875 44.43359375 C-131.96169434 44.19237793 -131.16166992 43.95116211 -130.33740234 43.70263672 C-126.74903805 42.62395357 -123.15679206 41.55874741 -119.5625 40.5 C-118.88936768 40.30156494 -118.21623535 40.10312988 -117.52270508 39.89868164 C-113.53967879 38.72984669 -109.5499942 37.58710324 -105.5546875 36.4609375 C-104.62197021 36.19732422 -103.68925293 35.93371094 -102.72827148 35.66210938 C-100.92136563 35.15248953 -99.11363328 34.64578734 -97.30493164 34.14257812 C-92.72857147 32.85184387 -88.28297282 31.41128398 -83.84838867 29.69677734 C-81.00125755 28.62350932 -78.09874193 27.75719452 -75.1875 26.875 C-50.97608339 19.38433676 -26.7180785 11.41823363 -3.71142578 0.69262695 C-2 0 -2 0 0 0 Z " fill="#E7870B" transform="translate(561,178)"/>
<path d="M0 0 C3.0135999 1.16136755 5.96360139 2.42433949 8.8984375 3.76953125 C17.2741223 7.60088169 25.57473618 11.06716354 34.375 13.796875 C37.19278802 14.73208913 39.88037177 15.7467445 42.62158203 16.87255859 C47.58235392 18.86780267 52.59282609 20.59976637 57.6796875 22.2421875 C58.57253448 22.5330423 59.46538147 22.82389709 60.38528442 23.12356567 C62.26544455 23.73520179 64.14613905 24.34519752 66.02734375 24.95361328 C68.83473124 25.86197065 71.64013633 26.77624589 74.4453125 27.69140625 C90.33593077 32.85967004 106.32227103 37.67420915 122.375 42.3125 C131.97231001 45.09961786 141.55202542 47.94316577 151.125 50.8125 C151.77619812 51.00735992 152.42739624 51.20221985 153.09832764 51.40298462 C154.96430987 51.96159698 156.82981937 52.5217877 158.6953125 53.08203125 C159.76797363 53.40405518 160.84063477 53.7260791 161.94580078 54.05786133 C162.95368652 54.36876709 163.96157227 54.67967285 165 55 C166.07910645 55.32242676 167.15821289 55.64485352 168.27001953 55.97705078 C171.80300687 57.30089419 172.74464177 58.90805376 174.75 62.0625 C185.40109378 77.54208963 199.49751181 83.22659413 217 88 C217 89.98 217 91.96 217 94 C209.43692735 92.67962971 202.24582764 90.64171682 194.9375 88.3125 C186.11859167 85.54927562 177.28239878 82.90096455 168.375 80.4375 C159.14300497 77.88389233 149.93806249 75.25236989 140.74658203 72.55664062 C134.25584768 70.65420243 127.75663243 68.78477068 121.25 66.9375 C113.72269839 64.79732259 106.2207956 62.58278724 98.72949219 60.32006836 C91.15276659 58.03505938 83.55587399 55.82182455 75.95556641 53.61669922 C71.07884121 52.19914733 66.20748003 50.76752703 61.34765625 49.29296875 C60.45498047 49.02226562 59.56230469 48.7515625 58.64257812 48.47265625 C56.98801564 47.96914821 55.33428812 47.46288337 53.68164062 46.953125 C49.15791649 45.57617028 44.64081828 44.4205797 40.01025391 43.45898438 C29.27786481 41.0085482 15.55385242 35.12725774 9 26 C4.38216152 18.62972107 0 8.77942067 0 0 Z " fill="#E7870B" transform="translate(38,177)"/>
<path d="M0 0 C0.33 0 0.66 0 1 0 C1.04898437 0.69867188 1.09796875 1.39734375 1.1484375 2.1171875 C1.22320312 3.02726563 1.29796875 3.93734375 1.375 4.875 C1.44460938 5.77992188 1.51421875 6.68484375 1.5859375 7.6171875 C1.79568132 10.17941903 1.79568132 10.17941903 4 12 C5.91006306 12.3176246 5.91006306 12.3176246 8 12.25 C8.70125 12.25515625 9.4025 12.2603125 10.125 12.265625 C12.2435669 12.15705515 12.2435669 12.15705515 14 10 C14.46162427 7.56747339 14.46162427 7.56747339 14.625 4.875 C14.69976562 3.96492187 14.77453125 3.05484375 14.8515625 2.1171875 C14.90054687 1.41851562 14.94953125 0.71984375 15 0 C16.3303125 0.9590625 16.3303125 0.9590625 17.6875 1.9375 C20.75359323 3.84657692 22.53667911 4.43949662 26 5 C26.98065728 21.23439017 27.29290959 37.46324588 27.53222656 53.72344971 C27.58341838 57.15030837 27.63854551 60.57710392 27.69335938 64.00390625 C27.7996994 70.66921877 27.89972003 77.33458269 28 84 C15.13 84 2.26 84 -11 84 C-11.11037702 57.64442053 -10.96152783 31.3397252 -10 5 C-8.88367188 4.70351562 -7.76734375 4.40703125 -6.6171875 4.1015625 C-3.26321965 3.08015976 -2.12646869 2.59901729 0 0 Z " fill="#0A54E1" transform="translate(292,232)"/>
<path d="M0 0 C-3.15406442 9.26403214 -11.46395677 16.57064423 -20 21 C-22.95811754 22.19263787 -25.93020936 23.14317089 -29 24 C-29.99 24.33 -30.98 24.66 -32 25 C-33.67782195 25.11579619 -35.35969356 25.1765063 -37.04125977 25.20532227 C-38.60862633 25.23523254 -38.60862633 25.23523254 -40.20765686 25.26574707 C-41.35729416 25.2824646 -42.50693146 25.29918213 -43.69140625 25.31640625 C-45.5167112 25.34764587 -45.5167112 25.34764587 -47.37889099 25.3795166 C-50.73717567 25.43480676 -54.09545511 25.48516082 -57.45385742 25.53242874 C-59.5593494 25.56245507 -61.66480614 25.59433292 -63.77026367 25.62667847 C-99.1785193 26.16487096 -134.588741 26.10017683 -170 26 C-170 23.69 -170 21.38 -170 19 C-161.81720116 17.38361186 -153.63588356 16.29136943 -145.34765625 15.37890625 C-144.05347275 15.23347885 -142.75928925 15.08805145 -141.42588806 14.93821716 C-137.99627128 14.55296588 -134.56615839 14.17232127 -131.13592529 13.79260254 C-128.41626687 13.49078298 -125.69697737 13.18571998 -122.97770309 12.88046169 C-108.53342448 11.25907623 -94.08476311 9.68183207 -79.6313324 8.14398193 C-70.64919731 7.18486675 -61.67178102 6.18620085 -52.6953125 5.17578125 C-51.31907023 5.0211499 -49.9428241 4.86655285 -48.5665741 4.71199036 C-42.98784851 4.08523141 -37.40913803 3.45838141 -31.83105469 2.82592773 C-28.34317154 2.43057261 -24.85493799 2.03845037 -21.36645126 1.64845848 C-19.43301168 1.43141646 -17.49996203 1.21090961 -15.56692505 0.99031067 C-14.39644623 0.85984848 -13.22596741 0.72938629 -12.02001953 0.5949707 C-10.9986087 0.47966507 -9.97719788 0.36435944 -8.92483521 0.24555969 C-5.93558202 -0.00540832 -2.99829285 -0.04249398 0 0 Z " fill="#389B3F" transform="translate(512,270)"/>
<path d="M0 0 C0.82757813 0.08975098 1.65515625 0.17950195 2.5078125 0.27197266 C6.67183653 0.72333757 10.8359069 1.17427275 15 1.625 C15.81005493 1.71269653 16.62010986 1.80039307 17.45471191 1.89074707 C28.08878748 3.04158114 38.72356096 4.18565325 49.359375 5.3203125 C75.50219237 8.10988114 101.64243283 10.92318105 127.77893066 13.7713623 C131.08535543 14.13158155 134.39191873 14.49048745 137.6986084 14.8482666 C141.60524541 15.27103533 145.51157788 15.69651436 149.41769409 16.12406731 C150.86581081 16.28212394 152.31403141 16.43923203 153.76235962 16.59533882 C155.75298715 16.81007252 157.74320438 17.0285997 159.73339844 17.24731445 C161.4119693 17.4300164 161.4119693 17.4300164 163.12445068 17.6164093 C165.49332489 17.93241088 167.70382588 18.35332693 170 19 C170 21.31 170 23.62 170 26 C134.95007415 26.10105334 99.89693383 26.1641426 64.84884644 25.73654175 C62.04867584 25.70261815 59.24856609 25.67528515 56.44827271 25.65383911 C52.54075931 25.62331105 48.63378196 25.56886208 44.7265625 25.51171875 C43.59315933 25.50532379 42.45975616 25.49892883 41.29200745 25.49234009 C29.38489374 25.2716102 19.35386759 22.58765392 10 15 C5.57643439 10.38191278 2.29424716 5.96864193 0 0 Z " fill="#369A3E" transform="translate(88,270)"/>
<path d="M0 0 C47.52 0 95.04 0 144 0 C144 4.62 144 9.24 144 14 C127.61401027 14.11596614 111.22819098 14.20508562 94.84189034 14.25906086 C87.23266719 14.28479366 79.62370441 14.31984909 72.01464844 14.37719727 C65.37912051 14.42718409 58.74378124 14.45932679 52.10807025 14.47044247 C48.5975367 14.47693565 45.08754264 14.49209131 41.57718277 14.52865028 C37.64917481 14.56922341 33.72168462 14.56993965 29.79345703 14.56762695 C28.06607048 14.59459152 28.06607048 14.59459152 26.30378723 14.62210083 C17.68467933 14.56736602 11.04016033 12.54929973 4.4921875 6.796875 C3.95851562 6.12140625 3.42484375 5.4459375 2.875 4.75 C2.31554687 4.06421875 1.75609375 3.3784375 1.1796875 2.671875 C0 1 0 1 0 0 Z " fill="#2A7640" transform="translate(131,302)"/>
<path d="M0 0 C47.19 0 94.38 0 143 0 C140.10273998 7.24315004 135.58759267 10.17789083 128.65706062 13.16466522 C123.65022508 14.73872937 118.61633835 14.51942164 113.41186523 14.45410156 C112.1816011 14.45468567 110.95133698 14.45526978 109.68379211 14.45587158 C106.33692905 14.45357526 102.99107382 14.43362629 99.64438891 14.40557575 C96.13706654 14.38043565 92.62972829 14.37821023 89.12232971 14.37347412 C82.49263263 14.36108111 75.86320188 14.32830992 69.23362166 14.28807616 C61.68099463 14.24324334 54.12835435 14.2213426 46.57562721 14.20129442 C31.05026009 14.15957349 15.52517499 14.08848054 0 14 C0 9.38 0 4.76 0 0 Z " fill="#2A7640" transform="translate(325,302)"/>
<path d="M0 0 C15.84 0 31.68 0 48 0 C48 10.23 48 20.46 48 31 C35.91941271 37.04029364 23.76544794 39.24456374 10.4140625 36.17578125 C6.57414219 34.79114511 3.39952808 33.26635205 0 31 C-0.34057617 27.92724609 -0.34057617 27.92724609 -0.29296875 24.0234375 C-0.28547607 22.76966309 -0.2779834 21.51588867 -0.27026367 20.22412109 C-0.24295166 18.62391113 -0.21563965 17.02370117 -0.1875 15.375 C-0.0946875 7.764375 -0.0946875 7.764375 0 0 Z " fill="#0955E3" transform="translate(276,416)"/>
<path d="M0 0 C2.97 0 5.94 0 9 0 C13.17158421 7.70138623 15.98872892 15.7874425 19 24 C19 16.08 19 8.16 19 0 C22.3 0 25.6 0 29 0 C32.56579952 7.58326698 35.99714555 15.17491459 39 23 C39.11249277 18.28337621 39.11249277 18.28337621 38.5 13.625 C37.95263183 10.75131713 37.90228964 8.1099601 37.9375 5.1875 C37.94652344 4.21167969 37.95554687 3.23585938 37.96484375 2.23046875 C37.97644531 1.49441406 37.98804688 0.75835937 38 0 C40.64 0 43.28 0 46 0 C47.26803511 8.14780007 48.2938736 16.29734052 49.125 24.5 C49.21249512 25.34788086 49.29999023 26.19576172 49.39013672 27.06933594 C49.47021973 27.88176758 49.55030273 28.69419922 49.6328125 29.53125 C49.70387207 30.24861328 49.77493164 30.96597656 49.84814453 31.70507812 C50.0307348 34.46448096 50 37.23456274 50 40 C45.71 40 41.42 40 37 40 C34.03 32.74 31.06 25.48 28 18 C27.67 25.26 27.34 32.52 27 40 C23.37 40 19.74 40 16 40 C12.7988735 33.06422592 9.78970405 26.1092458 7 19 C6.6596875 18.1646875 6.319375 17.329375 5.96875 16.46875 C3.75635234 11.03831938 1.80032413 5.58100479 0 0 Z " fill="#2461D3" transform="translate(370,323)"/>
<path d="M0 0 C2 3 2 3 2 6 C2.99 6.495 2.99 6.495 4 7 C3.34 7.99 2.68 8.98 2 10 C2 10.66 2 11.32 2 12 C2.99 12.495 2.99 12.495 4 13 C-5.29874111 18.64127985 -21.99715551 16.13407952 -32.65234375 16.09765625 C-34.29000301 16.09578514 -35.92766285 16.09436452 -37.56532288 16.09336853 C-41.82141741 16.08959781 -46.07747639 16.07981585 -50.33355713 16.06866455 C-54.69827799 16.05833155 -59.06300474 16.05384576 -63.42773438 16.04882812 C-71.95183901 16.03818719 -80.47591505 16.02117851 -89 16 C-89 13.69 -89 11.38 -89 9 C-80.67946796 7.35979198 -72.34920362 6.23629866 -63.92578125 5.2734375 C-62.58977101 5.11941161 -61.25376754 4.96532709 -59.91777039 4.81118774 C-57.13208867 4.49086875 -54.34606643 4.1737162 -51.55981445 3.85839844 C-48.73651262 3.53840421 -45.91400345 3.2124557 -43.09204102 2.88085938 C-7.89169608 -1.25203722 -7.89169608 -1.25203722 0 0 Z " fill="#307C44" transform="translate(431,280)"/>
<path d="M0 0 C6.09513421 4.49115153 9.95700087 9.56565691 12.375 16.75 C13.31188945 23.6321973 12.99550789 29.75743522 9.375 35.75 C7.06520702 38.5650602 5.45772499 39.58742365 1.8515625 40.12890625 C-3.32284934 40.34864155 -7.75123672 40.09352152 -12.125 37.16015625 C-16.66625546 32.89090307 -19.47305521 27.40318986 -19.828125 21.203125 C-19.84935179 19.80215701 -19.86477305 18.40109147 -19.875 17 C-19.895625 16.3090625 -19.91625 15.618125 -19.9375 14.90625 C-19.97593658 9.79418448 -18.98476347 6.2976995 -16.625 1.75 C-11.55531189 -3.0028326 -6.17392051 -2.93996215 0 0 Z " fill="#3A61CD" transform="translate(361.625,324.25)"/>
<path d="M0 0 C1.61419437 0.17731269 3.22842748 0.35427312 4.84269714 0.53089905 C8.20919591 0.90029042 11.57530916 1.27296386 14.94116211 1.64819336 C19.25243665 2.12868764 23.56442533 2.60237501 27.87669849 3.07381344 C31.2029163 3.437951 34.52881681 3.80491921 37.85461998 4.17282295 C39.44494611 4.34854573 41.03535029 4.52356363 42.62583351 4.69785881 C44.84437899 4.94156046 47.06249001 5.1888904 49.28051758 5.43725586 C51.17173088 5.64710365 51.17173088 5.64710365 53.10115051 5.8611908 C55.58476795 6.19108677 57.89058113 6.59752916 60.29296875 7.28515625 C60.29296875 9.59515625 60.29296875 11.90515625 60.29296875 14.28515625 C51.06855726 14.30851831 41.84415624 14.32619121 32.61972141 14.33696842 C28.33460494 14.34214577 24.04950897 14.34914758 19.7644043 14.3605957 C15.614657 14.37161046 11.46492919 14.37747163 7.31516838 14.38003349 C5.74666983 14.38185478 4.17817213 14.38540939 2.60968208 14.39088631 C-8.20038395 14.42706758 -18.92261899 14.03445506 -29.70703125 13.28515625 C-29.70703125 8.99515625 -29.70703125 4.70515625 -29.70703125 0.28515625 C-20.94563473 -4.09554201 -9.50275044 -1.06309384 0 0 Z " fill="#2E7B43" transform="translate(197.70703125,281.71484375)"/>
<path d="M0 0 C0.78116316 3.12465262 1.04666927 5.98482168 1 9.1875 C0.71583303 12.80434405 0.71583303 12.80434405 2 15 C1.44763672 15.07516846 0.89527344 15.15033691 0.32617188 15.2277832 C-13.56745049 17.12936258 -13.56745049 17.12936258 -27.375 19.5625 C-32.30513295 20.52375205 -37.20259137 21.32181248 -42.1875 21.9375 C-48.39764818 22.71294707 -54.4882101 23.84026418 -60.625 25.0625 C-68.43284076 26.61183104 -76.03094662 27.70430229 -84 28 C-84 25.36 -84 22.72 -84 20 C-70.98781619 16.40317421 -57.98343107 12.88936821 -44.79492188 9.99658203 C-39.05757124 8.72610941 -33.35282999 7.35450732 -27.65625 5.9140625 C-26.93184723 5.73107101 -26.20744446 5.54807953 -25.46109009 5.35954285 C-21.84244791 4.44363003 -18.22575637 3.5205905 -14.61083984 2.59008789 C-13.27965013 2.25135583 -11.9484339 1.91272797 -10.6171875 1.57421875 C-9.43753418 1.27088623 -8.25788086 0.96755371 -7.04248047 0.6550293 C-4 0 -4 0 0 0 Z " fill="#A3A3A3" transform="translate(427,257)"/>
<path d="M0 0 C2.1346875 0.7425 2.1346875 0.7425 4.3125 1.5 C9.93209538 3.07299171 15.13779205 3.17919966 20.91796875 3.09375 C21.79400757 3.08698242 22.67004639 3.08021484 23.57263184 3.07324219 C25.71515526 3.05571046 27.85759858 3.02881257 30 3 C30.02504288 8.97330432 30.04301926 14.94657691 30.05493164 20.91992188 C30.05990684 22.94466689 30.06668939 24.96940841 30.07543945 26.99414062 C30.12613814 39.04253442 29.96668358 50.98565972 29 63 C26.36 63 23.72 63 21 63 C20.42299919 58.60842533 19.85365059 54.21594246 19.29101562 49.82250977 C19.09904605 48.33168566 18.90507911 46.8411172 18.70898438 45.35083008 C17.6835529 37.54761042 16.71534034 29.89041002 17 22 C15.2675 22.0928125 15.2675 22.0928125 13.5 22.1875 C8.50953396 22.4548464 6.3127938 20.99229768 1 19 C0.67 12.73 0.34 6.46 0 0 Z " fill="#A13353" transform="translate(246,234)"/>
<path d="M0 0 C7.25837862 1.39070773 14.44309596 3.00950208 21.625 4.75 C22.70894043 5.01095459 23.79288086 5.27190918 24.90966797 5.54077148 C33.31142147 7.57094176 41.69054973 9.68586272 50.06933594 11.80834961 C58.29669934 13.87064446 66.56649452 15.69995712 74.86767578 17.43969727 C75.77501465 17.63104248 76.68235352 17.8223877 77.6171875 18.01953125 C78.41753418 18.18557861 79.21788086 18.35162598 80.04248047 18.52270508 C82 19 82 19 84 20 C84 22.64 84 25.28 84 28 C73.46583454 27.48819396 63.19141612 25.88344131 52.80126953 24.15356445 C50.03386409 23.69313418 47.26515576 23.2413637 44.49609375 22.79101562 C34.31624544 21.12265662 24.17063842 19.32506613 14.05078125 17.32267761 C9.04418208 16.34217494 4.0698175 15.57508921 -1 15 C-1.02703381 13.06257659 -1.04641125 11.12504521 -1.0625 9.1875 C-1.07410156 8.10855469 -1.08570313 7.02960938 -1.09765625 5.91796875 C-1 3 -1 3 0 0 Z " fill="#A3A3A3" transform="translate(173,257)"/>
<path d="M0 0 C0.66 0.33 1.32 0.66 2 1 C1.690625 1.556875 1.38125 2.11375 1.0625 2.6875 C-0.84056818 6.82947193 -1.12199876 9.65225479 0 14 C-0.185625 14.680625 -0.37125 15.36125 -0.5625 16.0625 C-0.706875 16.701875 -0.85125 17.34125 -1 18 C-0.34 18.99 0.32 19.98 1 21 C-4.6702363 22.54642808 -10.147205 23.48517081 -16 24 C-17.32706735 33.98124061 -18.42485739 43.95996579 -19.30224609 53.9909668 C-19.37910645 54.844729 -19.4559668 55.69849121 -19.53515625 56.578125 C-19.63389038 57.71362793 -19.63389038 57.71362793 -19.73461914 58.87207031 C-19.99732062 60.9785157 -20.44099773 62.95409228 -21 65 C-23.64 65 -26.28 65 -29 65 C-30.19388403 25.36686044 -30.19388403 25.36686044 -30 6 C-28.74445313 5.97421875 -27.48890625 5.9484375 -26.1953125 5.921875 C-12.12985822 6.05670142 -12.12985822 6.05670142 0 0 Z " fill="#9F3051" transform="translate(354,232)"/>
<path d="M0 0 C2.64 0 5.28 0 8 0 C8.05534912 0.66531738 8.11069824 1.33063477 8.16772461 2.01611328 C8.42178083 5.05262713 8.67960673 8.08880973 8.9375 11.125 C9.02451172 12.17171875 9.11152344 13.2184375 9.20117188 14.296875 C9.54770811 18.35263243 9.89305867 22.35835204 10.5625 26.375 C11.04215226 29.25291357 11.09804965 31.95992904 11.0625 34.875 C11.05347656 35.84179688 11.04445313 36.80859375 11.03515625 37.8046875 C11.02355469 38.52914062 11.01195312 39.25359375 11 40 C7.49517244 40.63039616 4.48416431 40.82313221 1 40 C-2.00715828 37.10879123 -3.73583799 33.68860128 -5.625 30 C-6.41583984 28.56914062 -6.41583984 28.56914062 -7.22265625 27.109375 C-8.51589508 24.75803168 -9.76261996 22.38121245 -11 20 C-11.33 26.6 -11.66 33.2 -12 40 C-14.64 40 -17.28 40 -20 40 C-20 27.13 -20 14.26 -20 1 C-17.03 1 -14.06 1 -11 1 C-8.58591021 3.55719305 -7.17207581 5.40000797 -5.5 8.375 C-4.85804688 9.42300781 -4.85804688 9.42300781 -4.203125 10.4921875 C-2.71001421 12.94920526 -1.28607485 15.42785031 0 18 C0 12.06 0 6.12 0 0 Z " fill="#2772DE" transform="translate(328,323)"/>
<path d="M0 0 C29.7 0 59.4 0 90 0 C90 0.33 90 0.66 90 1 C79.605 1.495 79.605 1.495 69 2 C67.07814266 8.07576603 67.07814266 8.07576603 68 14 C60.92011888 14.12746075 53.84053695 14.21462725 46.75976562 14.2746582 C44.3543797 14.29970084 41.94906911 14.333745 39.54394531 14.37719727 C36.07337794 14.4382988 32.60382228 14.46631363 29.1328125 14.48828125 C27.53688766 14.52699089 27.53688766 14.52699089 25.90872192 14.56648254 C17.45911574 14.56961008 10.89954933 12.42577231 4.4921875 6.796875 C3.95851562 6.12140625 3.42484375 5.4459375 2.875 4.75 C2.31554687 4.06421875 1.75609375 3.3784375 1.1796875 2.671875 C0 1 0 1 0 0 Z " fill="#35993D" transform="translate(131,302)"/>
<path d="M0 0 C28.71 0 57.42 0 87 0 C84.0882345 7.27941376 79.56820658 10.16528704 72.61404419 13.1685791 C67.85564642 14.68203146 63.1334497 14.488206 58.18359375 14.390625 C57.08652603 14.38496521 55.98945831 14.37930542 54.85914612 14.37347412 C51.38480394 14.35123774 47.91152593 14.30106382 44.4375 14.25 C42.06967644 14.2299186 39.70183658 14.21167072 37.33398438 14.1953125 C31.55563179 14.15141484 25.77789195 14.08463105 20 14 C20 10.33333333 20 6.66666667 20 3 C19.67 2.34 19.34 1.68 19 1 C12.73 1 6.46 1 0 1 C0 0.67 0 0.34 0 0 Z " fill="#35983C" transform="translate(381,302)"/>
<path d="M0 0 C3.3 0 6.6 0 10 0 C10 4.95 10 9.9 10 15 C12.64 10.05 15.28 5.1 18 0 C20.97 0 23.94 0 27 0 C25.65244612 4.77769103 23.55831728 8.59375776 20.92578125 12.75390625 C19.69300211 15.74482611 19.98741317 16.92261655 21 20 C22.25776389 22.76036665 23.64784048 25.44227779 25.0625 28.125 C25.80895457 29.5413497 26.55008457 30.96052191 27.28515625 32.3828125 C27.61394775 33.00559082 27.94273926 33.62836914 28.28149414 34.27001953 C29 36 29 36 29 39 C24.38 39 19.76 39 15 39 C12.525 31.08 12.525 31.08 10 23 C9.67 28.61 9.34 34.22 9 40 C5.04 40 1.08 40 -3 40 C-2.41875135 26.61598502 -1.36578313 13.32633052 0 0 Z " fill="#476ACF" transform="translate(275,324)"/>
<path d="M0 0 C3.76290788 -0.80193119 5.39715086 -1.12685956 9 0 C13.33902144 3.65437182 16.58942795 8.51034531 20 13 C20.97354457 14.02577335 21.95779316 15.04406856 23 16 C22.7834375 15.18015625 22.566875 14.3603125 22.34375 13.515625 C22.0653125 12.43796875 21.786875 11.3603125 21.5 10.25 C21.2215625 9.18265625 20.943125 8.1153125 20.65625 7.015625 C20 4 20 4 20 0 C22.31 0 24.62 0 27 0 C27.36351562 1.28970703 27.36351562 1.28970703 27.734375 2.60546875 C28.06953125 3.78753906 28.4046875 4.96960938 28.75 6.1875 C28.92901855 6.81954346 29.10803711 7.45158691 29.29248047 8.1027832 C30.49648015 12.32309125 31.78839765 16.50684904 33.125 20.6875 C34.90669335 26.39733618 36.1000498 32.09111646 37 38 C29.48123857 39.01195909 29.48123857 39.01195909 26.19677734 36.76806641 C24.55572721 35.02737192 23.11321787 33.23328545 21.6875 31.3125 C20.94016602 30.37374023 20.94016602 30.37374023 20.17773438 29.41601562 C18.76060834 27.62822782 17.37965884 25.81674793 16 24 C14.67016591 22.33053995 13.33836715 20.66262712 12 19 C12.433125 20.68029297 12.433125 20.68029297 12.875 22.39453125 C13.25018691 23.86713989 13.62517665 25.33979878 14 26.8125 C14.19078125 27.55048828 14.3815625 28.28847656 14.578125 29.04882812 C15.35262914 32.10535341 16 34.83373478 16 38 C13.03 38 10.06 38 7 38 C5.99652533 33.39324298 4.99982371 28.78509131 4.00927734 24.17553711 C3.67160253 22.60873244 3.33210405 21.04231961 2.99072266 19.47631836 C2.49938761 17.22090426 2.01470158 14.96414658 1.53125 12.70703125 C1.37813354 12.01100296 1.22501709 11.31497467 1.06726074 10.59785461 C0.3050488 7.00662371 -0.17415882 3.67288509 0 0 Z " fill="#204AB2" transform="translate(372,371)"/>
<path d="M0 0 C2.7302389 -0.1083667 5.45614543 -0.18746694 8.1875 -0.25 C8.95642578 -0.28351563 9.72535156 -0.31703125 10.51757812 -0.3515625 C14.54253008 -0.42066039 16.49808724 -0.31755003 19.98828125 1.890625 C23.14652486 5.2021814 23.22223049 7.41609639 23.15625 11.96875 C22.82213271 16.31227474 21.26256219 19.18233265 18 22 C19.05150217 25.31627608 20.20134731 28.51633049 21.625 31.6875 C23 35 23 35 23 38 C19.37 38 15.74 38 12 38 C11.57682292 35.23307292 11.15364583 32.46614583 10.73046875 29.69921875 C10.1448342 26.6469942 10.1448342 26.6469942 7 24 C7 28.62 7 33.24 7 38 C3.37 38 -0.26 38 -4 38 C-3.59389302 33.55230716 -3.1848626 29.10489549 -2.77319336 24.65771484 C-2.63372935 23.14672004 -2.49504601 21.63565296 -2.35717773 20.12451172 C-2.15817209 17.94478923 -1.95630348 15.76534737 -1.75390625 13.5859375 C-1.63345947 12.2767334 -1.5130127 10.9675293 -1.38891602 9.61865234 C-1.04100926 6.38156888 -0.57440432 3.20365879 0 0 Z " fill="#1E48B0" transform="translate(263,371)"/>
<path d="M0 0 C3.3 0 6.6 0 10 0 C8.29109903 8.08394999 6.523921 16.13605459 4.55078125 24.16015625 C4.02759206 26.85773458 3.89447828 29.26146017 4 32 C5.98 31.67 7.96 31.34 10 31 C12.73056339 20.68213991 15.45516167 10.365561 18 0 C20.64 0 23.28 0 26 0 C25.18365328 4.53938252 24.33438002 9.07104001 23.45751953 13.59912109 C23.15009617 15.21235551 22.85172372 16.82733865 22.56201172 18.44384766 C22.12670727 20.86333053 21.65994856 23.27502847 21.1875 25.6875 C21.05891602 26.4407959 20.93033203 27.1940918 20.79785156 27.97021484 C19.64937081 33.59472819 17.73685595 35.76160044 13 39 C10.06461547 40.46769227 7.39222984 40.28669649 4.125 40.375 C2.89007813 40.42398438 1.65515625 40.47296875 0.3828125 40.5234375 C-3 40 -3 40 -5.4453125 38.0390625 C-9.43424512 30.24160124 -6.18785683 21.56298509 -4.0625 13.5625 C-3.78470703 12.47517578 -3.50691406 11.38785156 -3.22070312 10.26757812 C-1.17712355 2.3542471 -1.17712355 2.3542471 0 0 Z " fill="#3A60CD" transform="translate(216,323)"/>
<path d="M0 0 C3.63 0 7.26 0 11 0 C15.24361851 8.04054033 18.87162953 16.23878363 22.375 24.625 C22.82794434 25.70458984 23.28088867 26.78417969 23.74755859 27.89648438 C24.16859863 28.91291016 24.58963867 29.92933594 25.0234375 30.9765625 C25.40419434 31.89518066 25.78495117 32.81379883 26.17724609 33.76025391 C27 36 27 36 27 38 C23.7 38 20.4 38 17 38 C14 31.375 14 31.375 14 28 C10.7 28 7.4 28 4 28 C4.020625 29.629375 4.04125 31.25875 4.0625 32.9375 C4.08386068 34.62499341 4.07205511 36.31391034 4 38 C3 39 3 39 1.15234375 39.09765625 C-0.8984375 39.06510417 -2.94921875 39.03255208 -5 39 C-4.44000175 29.9699114 -3.37743996 21.11716301 -1.9375 12.1875 C-1.75123047 11.00607422 -1.56496094 9.82464844 -1.37304688 8.60742188 C-0.91991075 5.73755974 -0.46061561 2.86867117 0 0 Z " fill="#364C9F" transform="translate(350,371)"/>
<path d="M0 0 C1.84851563 -0.05607422 1.84851563 -0.05607422 3.734375 -0.11328125 C7.81267893 0.38064667 9.3769849 1.4448053 12.25 4.3125 C13.88210371 7.57670741 13.78975572 10.78609598 13.25 14.3125 C11.20851391 19.37538549 8.8936205 23.31574491 4.25 26.3125 C0.77674819 27.4702506 -2.11067448 27.38116652 -5.75 27.3125 C-5.70875 28.55 -5.6675 29.7875 -5.625 31.0625 C-5.50148437 34.767969 -5.94431894 35.70113788 -7.75 39.3125 C-11.05 39.3125 -14.35 39.3125 -17.75 39.3125 C-17.13803351 34.33266276 -16.1251972 29.71545935 -14.71875 24.8828125 C-14.52277222 24.20701141 -14.32679443 23.53121033 -14.12487793 22.83493042 C-13.71363576 21.42086074 -13.3000738 20.00746379 -12.88427734 18.59472656 C-12.24611139 16.42427454 -11.61669732 14.25141761 -10.98828125 12.078125 C-7.50876806 0.14799439 -7.50876806 0.14799439 0 0 Z " fill="#264DB1" transform="translate(220.75,369.6875)"/>
<path d="M0 0 C3.38644161 2.25762774 5.51272208 4.07761827 7.01171875 7.9453125 C7.71249692 12.88335403 7.56730276 16.83414448 5.32421875 21.3203125 C4.56109375 22.1865625 3.79796875 23.0528125 3.01171875 23.9453125 C2.33109375 24.7290625 1.65046875 25.5128125 0.94921875 26.3203125 C-3.6186954 28.84724373 -7.89933658 28.91359525 -12.98828125 27.9453125 C-16.79068603 25.91241048 -19.16912069 23.26309253 -21.42578125 19.6328125 C-22.56047699 14.21148842 -22.80337116 9.74530272 -20.48828125 4.6328125 C-14.72382504 -1.56397793 -7.80799564 -4.14176586 0 0 Z " fill="#DC0816" transform="translate(307.98828125,268.0546875)"/>
<path d="M0 0 C2.97 0 5.94 0 9 0 C7.83131418 7.11835909 5.79665694 13.30559773 3.109375 19.9921875 C1.84830819 23.41127709 1.2523679 26.38272673 1 30 C3.94654115 29.72312673 3.94654115 29.72312673 7 28 C8.75122306 24.96578705 9.6851227 21.71944742 10.6875 18.375 C11.25323714 16.61176434 11.81963568 14.84874075 12.38671875 13.0859375 C12.78576416 11.80734863 12.78576416 11.80734863 13.19287109 10.50292969 C14.33828911 6.95095586 15.65688577 3.48154685 17 0 C19.64 0 22.28 0 25 0 C23.90860557 4.23256822 22.79967277 8.46034836 21.6875 12.6875 C21.37876953 13.88568359 21.07003906 15.08386719 20.75195312 16.31835938 C20.44580078 17.47529297 20.13964844 18.63222656 19.82421875 19.82421875 C19.54666748 20.88729248 19.26911621 21.95036621 18.9831543 23.0456543 C17.35501548 27.93815687 14.92334756 31.65361532 11 35 C5.72599954 37.50200022 0.74509047 37.80844087 -5 37 C-8.25 35.0625 -8.25 35.0625 -10 32 C-10.52845826 21.43083478 -4.84877601 9.21848134 0 0 Z " fill="#2A46A1" transform="translate(182,372)"/>
<path d="M0 0 C1.23105469 0.02449219 2.46210938 0.04898437 3.73046875 0.07421875 C6.8125 0.3125 6.8125 0.3125 8.8125 1.3125 C8.8125 3.9525 8.8125 6.5925 8.8125 9.3125 C8.131875 8.961875 7.45125 8.61125 6.75 8.25 C3.0054519 7.05493146 0.59444028 7.31349691 -3.1875 8.3125 C-5.32045232 11.38255268 -5.45787759 14.07693913 -5.4375 17.75 C-5.44265625 18.67683594 -5.4478125 19.60367187 -5.453125 20.55859375 C-5.16726665 23.52227223 -4.56281393 25.67414267 -3.1875 28.3125 C-0.63974694 29.20636164 -0.63974694 29.20636164 1.8125 29.3125 C1.8125 26.0125 1.8125 22.7125 1.8125 19.3125 C4.7825 19.3125 7.7525 19.3125 10.8125 19.3125 C10.89321788 22.10474073 10.95285408 24.89466566 11 27.6875 C11.02513672 28.4815625 11.05027344 29.275625 11.07617188 30.09375 C11.10254405 32.16836148 10.96736462 34.24350865 10.8125 36.3125 C6.31765107 39.30906595 2.08303279 38.8957723 -3.1875 38.3125 C-8.71658458 36.6372699 -13.08640367 34.45353289 -16.34765625 29.578125 C-18.4957882 23.78316439 -18.33889577 15.50500646 -16.2421875 9.69140625 C-12.2202974 3.00090353 -7.99518843 -0.24432083 0 0 Z " fill="#263C95" transform="translate(314.1875,371.6875)"/>
<path d="M0 0 C3 1 3 1 5 2 C5 4.64 5 7.28 5 10 C4.32453125 9.94199219 3.6490625 9.88398438 2.953125 9.82421875 C-2.83236053 9.37651847 -2.83236053 9.37651847 -7.5625 12.3125 C-9.64909564 16.21352663 -10.15813123 19.12992748 -10.1875 23.5 C-10.20876953 24.93859375 -10.20876953 24.93859375 -10.23046875 26.40625 C-10.18755111 29.23746139 -10.18755111 29.23746139 -8 32 C-5.56306689 32.36416047 -5.56306689 32.36416047 -2.875 32.1875 C-1.50988281 32.14689453 -1.50988281 32.14689453 -0.1171875 32.10546875 C0.58148438 32.07066406 1.28015625 32.03585937 2 32 C2.09765625 38.15234375 2.09765625 38.15234375 2 40 C-0.03378902 42.03378902 -3.97168997 41.27581457 -6.75 41.3125 C-7.82507813 41.35600586 -7.82507813 41.35600586 -8.921875 41.40039062 C-12.61197334 41.44448187 -14.74829839 41.1595244 -17.890625 39.16796875 C-22.78550297 34.13712195 -22.44365295 29.51470644 -22.43383789 22.91113281 C-22.25183892 15.38045334 -20.54349796 10.55870611 -15.1796875 5.171875 C-10.21505224 0.72655306 -6.7821719 -0.55761643 0 0 Z " fill="#3F61CC" transform="translate(265,322)"/>
<path d="M0 0 C6.6 0 13.2 0 20 0 C20 2.31 20 4.62 20 7 C16.37 7 12.74 7 9 7 C8.67 9.64 8.34 12.28 8 15 C10.97 15 13.94 15 17 15 C16.67 17.31 16.34 19.62 16 22 C12.7 22 9.4 22 6 22 C6 24.64 6 27.28 6 30 C9.63 30 13.26 30 17 30 C16.67 32.64 16.34 35.28 16 38 C9.07 38 2.14 38 -5 38 C-4.54834037 29.23780316 -3.6171331 21.22018462 -1.71875 12.66796875 C-0.89931019 8.48615363 -0.47058681 4.23528126 0 0 Z " fill="#2D4094" transform="translate(238,371)"/>
<path d="M0 0 C2.70471323 2.45883021 2.82434853 4.30272798 3.0625 7.875 C0.4225 7.545 -2.2175 7.215 -4.9375 6.875 C-3.56325916 11.49598528 -1.56491607 13.25579799 2.375 15.9375 C12.8139758 23.12942739 12.8139758 23.12942739 14.0625 26.875 C14.78880529 33.80283505 14.78880529 33.80283505 12.75 36.8125 C8.56883061 39.44508813 3.83667406 39.62749679 -0.9375 38.875 C-4 36.625 -4 36.625 -5.9375 33.875 C-5.9375 32.555 -5.9375 31.235 -5.9375 29.875 C-2.9675 29.875 0.0025 29.875 3.0625 29.875 C2.51451874 25.96529649 2.51451874 25.96529649 0.42578125 24.56640625 C-0.25097656 24.19386719 -0.92773438 23.82132812 -1.625 23.4375 C-8.12657663 19.60413313 -12.58281103 16.46233111 -14.9375 8.875 C-15.64721635 2.79171696 -15.64721635 2.79171696 -13.4375 -0.0625 C-8.76072264 -2.05013038 -4.61954533 -1.76918757 0 0 Z " fill="#2D4196" transform="translate(442.9375,371.125)"/>
<path d="M0 0 C-1.875 5.875 -1.875 5.875 -3 7 C-4.51469448 7.23192865 -6.03754562 7.41215238 -7.5625 7.5625 C-8.38878906 7.64628906 -9.21507812 7.73007812 -10.06640625 7.81640625 C-11.02353516 7.90728516 -11.02353516 7.90728516 -12 8 C-12.40229475 10.65514534 -12.39288104 12.40723211 -10.88671875 14.6796875 C-10.42910156 15.25976562 -9.97148437 15.83984375 -9.5 16.4375 C-7.75509425 18.76237443 -7.00334904 19.98599491 -6.3125 22.875 C-7.59066281 28.68483097 -10.70962183 33.51915205 -15.71875 36.7578125 C-19.5371761 38.20335952 -22.86121643 38.33918368 -26.875 38.1875 C-27.56335938 38.17396484 -28.25171875 38.16042969 -28.9609375 38.14648438 C-30.64097001 38.1114837 -32.3205935 38.05768954 -34 38 C-32.125 32.125 -32.125 32.125 -31 31 C-29.15108054 30.76636119 -27.29511969 30.58696365 -25.4375 30.4375 C-24.42558594 30.35371094 -23.41367188 30.26992188 -22.37109375 30.18359375 C-21.58863281 30.12300781 -20.80617187 30.06242187 -20 30 C-19.62276687 26.03905211 -19.75169377 24.37245935 -22 21 C-24.35661998 17.46507003 -24.74846247 16.15812485 -24 12 C-18.83640051 0.66205389 -11.76386482 -0.62833699 0 0 Z " fill="#1859D3" transform="translate(177,371)"/>
<path d="M0 0 C3.3 0 6.6 0 10 0 C9.3157196 6.71751324 7.37116568 12.985566 5.4375 19.4375 C5.10814453 20.55060547 4.77878906 21.66371094 4.43945312 22.81054688 C3.6306592 25.54169158 2.81739587 28.27141986 2 31 C4.97 31 7.94 31 11 31 C10.67 33.97 10.34 36.94 10 40 C2.74 40 -4.52 40 -12 40 C-9.77722772 28.88613861 -9.77722772 28.88613861 -7.6875 23.9375 C-4.54615848 16.12154313 -2.27933898 8.09892786 0 0 Z " fill="#1A59D1" transform="translate(193,323)"/>
<path d="M0 0 C7.26 0 14.52 0 22 0 C22.66 2.64 23.32 5.28 24 8 C22.02 8 20.04 8 18 8 C19.50930887 13.54640333 21.29024425 18.84099699 23.5625 24.125 C25.53559776 28.72493274 26.96517756 33.10811211 28 38 C24.37 38 20.74 38 17 38 C14.7428097 32.05606555 12.7454033 26.36657331 11.50390625 20.13671875 C10.96955469 17.87090245 10.22344175 15.79148615 9.375 13.625 C8 10 8 10 8 7 C5.36 7 2.72 7 0 7 C0 4.69 0 2.38 0 0 Z " fill="#2F449A" transform="translate(402,371)"/>
<path d="M0 0 C0.78116316 3.12465262 1.04666927 5.98482168 1 9.1875 C0.71583303 12.80434405 0.71583303 12.80434405 2 15 C1.44763672 15.07516846 0.89527344 15.15033691 0.32617188 15.2277832 C-2.28313147 15.58529235 -4.89167603 15.94791243 -7.5 16.3125 C-8.4480249 16.44495117 -9.3960498 16.57740234 -10.37280273 16.71386719 C-17.59059452 17.74524031 -24.71414752 19.04508369 -31.84765625 20.546875 C-34.7128781 20.95872845 -36.32514509 20.98722825 -39 20 C-38.360625 19.731875 -37.72125 19.46375 -37.0625 19.1875 C-34.66868314 18.11332248 -34.66868314 18.11332248 -34 15 C-34 13.68 -34 12.36 -34 11 C-34 10.34 -34 9.68 -34 9 C-34.66 8.67 -35.32 8.34 -36 8 C-31.51746944 6.85461673 -27.03341723 5.71547027 -22.54785156 4.58203125 C-21.02267926 4.19571476 -19.49793392 3.80770854 -17.97363281 3.41796875 C-15.78040319 2.85750851 -13.58570134 2.30317706 -11.390625 1.75 C-10.7113092 1.57500977 -10.03199341 1.40001953 -9.33209229 1.21972656 C-6.07016774 0.40386068 -3.39503751 0 0 0 Z M-33 13 C-32 15 -32 15 -32 15 Z " fill="#BDBDBD" transform="translate(427,257)"/>
<path d="M0 0 C2.97 0 5.94 0 9 0 C13.16017504 7.68032314 16.01858089 15.81103551 19 24 C19.33 23.01 19.66 22.02 20 21 C21.98 21.33 23.96 21.66 26 22 C26 20.02 26 18.04 26 16 C26.66 16.33 27.32 16.66 28 17 C27.67 24.59 27.34 32.18 27 40 C23.37 40 19.74 40 16 40 C12.7988735 33.06422592 9.78970405 26.1092458 7 19 C6.6596875 18.1646875 6.319375 17.329375 5.96875 16.46875 C3.75635234 11.03831938 1.80032413 5.58100479 0 0 Z " fill="#3A61CD" transform="translate(370,323)"/>
<path d="M0 0 C7.76753703 1.47440378 15.44336634 3.25818438 23.125 5.125 C24.84589844 5.54072266 24.84589844 5.54072266 26.6015625 5.96484375 C29.40146817 6.64148762 32.20093071 7.31990614 35 8 C35.09662822 11.64167599 34.87620422 13.83390538 33 17 C33.66 17.33 34.32 17.66 35 18 C35 18.66 35 19.32 35 20 C36.32 20.33 37.64 20.66 39 21 C30.72437404 20.61238286 22.71810204 19.08200088 14.61450195 17.45996094 C9.41753858 16.42607588 4.26676766 15.58860267 -1 15 C-1.02703381 13.06257659 -1.04641125 11.12504521 -1.0625 9.1875 C-1.07410156 8.10855469 -1.08570313 7.02960938 -1.09765625 5.91796875 C-1 3 -1 3 0 0 Z " fill="#BDBDBD" transform="translate(173,257)"/>
<path d="M0 0 C2.97 0 5.94 0 9 0 C11.13975449 12.6931067 12.20875827 25.12657349 12 38 C8.7 38 5.4 38 2 38 C1.65871535 33.91729158 1.32847613 29.8337573 1 25.75 C0.85691406 24.04070312 0.85691406 24.04070312 0.7109375 22.296875 C0.11826051 14.84607859 -0.12268329 7.47345704 0 0 Z " fill="#33489B" transform="translate(330,371)"/>
<path d="M0 0 C3.3 0 6.6 0 10 0 C10 4.95 10 9.9 10 15 C12.64 10.05 15.28 5.1 18 0 C20.97 0 23.94 0 27 0 C25.6077541 4.62675657 23.70479016 8.64686231 21.375 12.875 C20.74335938 14.02742188 20.11171875 15.17984375 19.4609375 16.3671875 C18.97882813 17.23601562 18.49671875 18.10484375 18 19 C17.071875 18.979375 16.14375 18.95875 15.1875 18.9375 C11.97713989 18.84230396 11.97713989 18.84230396 9 20 C7.65938457 19.69728039 6.32594105 19.36162029 5 19 C3.68 19 2.36 19 1 19 C0.34 22.3 -0.32 25.6 -1 29 C-1.33 29 -1.66 29 -2 29 C-1.03644647 9.03189066 -1.03644647 9.03189066 0 0 Z " fill="#2E77E0" transform="translate(275,324)"/>
<path d="M0 0 C2.22808159 -0.10853983 4.45769932 -0.18583307 6.6875 -0.25 C7.92886719 -0.29640625 9.17023438 -0.3428125 10.44921875 -0.390625 C14.5696687 0.06266982 16.10787892 1.10251321 19 4 C20.5635348 7.12706959 20.39958487 10.57982443 20 14 C19.01 15.485 19.01 15.485 18 17 C17.34 16.34 16.68 15.68 16 15 C13.0280615 16.12451727 10.66559313 17.22293791 8 19 C6.68 19 5.36 19 4 19 C3.34 17.68 2.68 16.36 2 15 C-0.31 15.33 -2.62 15.66 -5 16 C-4.54762239 14.08191891 -4.08785537 12.16557967 -3.625 10.25 C-3.24214844 8.64898437 -3.24214844 8.64898437 -2.8515625 7.015625 C-2.12466459 4.44147278 -1.2973776 2.32399814 0 0 Z " fill="#1D5CD2" transform="translate(214,370)"/>
<path d="M0 0 C2.7302389 -0.1083667 5.45614543 -0.18746694 8.1875 -0.25 C8.95642578 -0.28351563 9.72535156 -0.31703125 10.51757812 -0.3515625 C14.54253008 -0.42066039 16.49808724 -0.31755003 19.98828125 1.890625 C23.73325519 5.81739379 23.08427498 8.77495151 23 14 C19.37 14 15.74 14 12 14 C11.67 14.99 11.34 15.98 11 17 C8.9375 17.6875 8.9375 17.6875 7 18 C7 16.68 7 15.36 7 14 C4.36 14 1.72 14 -1 14 C-1.08367468 9.14686868 -0.8720551 4.79286977 0 0 Z " fill="#1557D1" transform="translate(263,371)"/>
<path d="M0 0 C3.3 0 6.6 0 10 0 C20 21.26666667 20 21.26666667 20 27 C15.60666696 25.80181826 12.81538596 24.6495744 10 21 C9.25 18.25 9.25 18.25 9 16 C8.34 16 7.68 16 7 16 C7 17.98 7 19.96 7 22 C5.02 21.67 3.04 21.34 1 21 C0.06145994 13.96094956 -0.10808032 7.09727428 0 0 Z " fill="#1455CF" transform="translate(389,323)"/>
<path d="M0 0 C5.94 0 11.88 0 18 0 C21.44172841 6.88345681 21.1207885 13.45742939 21 21 C17.52868634 21.54532026 14.45413338 21.72579381 11 21 C8.16988822 18.50113487 6.60788701 15.50886676 4.875 12.1875 C4.39546875 11.35412109 3.9159375 10.52074219 3.421875 9.66210938 C0 3.57606027 0 3.57606027 0 0 Z " fill="#3862CE" transform="translate(318,342)"/>
<path d="M0 0 C0.66 0.33 1.32 0.66 2 1 C1.690625 1.556875 1.38125 2.11375 1.0625 2.6875 C-0.84056818 6.82947193 -1.12199876 9.65225479 0 14 C-0.185625 14.680625 -0.37125 15.36125 -0.5625 16.0625 C-0.706875 16.701875 -0.85125 17.34125 -1 18 C-0.34 18.99 0.32 19.98 1 21 C-5.00054754 22.66681876 -10.7945858 23.51679152 -17 24 C-17 23.34 -17 22.68 -17 22 C-16.34 22 -15.68 22 -15 22 C-15.165 21.21625 -15.33 20.4325 -15.5 19.625 C-16 17 -16 17 -16 15 C-16.165 14.01 -16.33 13.02 -16.5 12 C-17 9 -17 9 -17 7 C-19.97 7 -22.94 7 -26 7 C-26 6.67 -26 6.34 -26 6 C-25.03320312 5.97421875 -24.06640625 5.9484375 -23.0703125 5.921875 C-10.64597756 5.65344259 -10.64597756 5.65344259 0 0 Z " fill="#AB3E44" transform="translate(354,232)"/>
<path d="M0 0 C1.52625 0.474375 3.0525 0.94875 4.625 1.4375 C11.35893612 3.29877048 18.04468252 3.7055413 25 4 C25 4.33 25 4.66 25 5 C22.03 5 19.06 5 16 5 C16 10.61 16 16.22 16 22 C9 22 9 22 1 19 C0.67 12.73 0.34 6.46 0 0 Z " fill="#AB3F45" transform="translate(246,234)"/>
<path d="M0 0 C4.42824977 3.26292088 7.90231144 6.80462289 10.375 11.75 C10.375 12.74 10.375 13.73 10.375 14.75 C6.92240941 14.79612239 3.71440009 14.67121382 0.375 13.75 C-1.75777343 11.52076948 -2.45581377 9.67296558 -3.625 6.75 C-5.275 7.08 -6.925 7.41 -8.625 7.75 C-8.955 9.07 -9.285 10.39 -9.625 11.75 C-12.595 11.42 -15.565 11.09 -18.625 10.75 C-18.96838883 7.0585701 -18.90311415 5.20322305 -16.9375 2 C-11.73524666 -3.0616519 -6.50156114 -3.09598149 0 0 Z " fill="#1557D1" transform="translate(361.625,324.25)"/>
<path d="M0 0 C3.63 0 7.26 0 11 0 C12.03290841 1.93108963 13.05098672 3.870118 14.0625 5.8125 C14.63097656 6.89144531 15.19945312 7.97039062 15.78515625 9.08203125 C17 12 17 12 16 15 C13.69 14.67 11.38 14.34 9 14 C9.33 14.763125 9.66 15.52625 10 16.3125 C11 19 11 19 11 22 C9.02 22 7.04 22 5 22 C5 19.36 5 16.72 5 14 C3.02 14 1.04 14 -1 14 C-0.67 9.38 -0.34 4.76 0 0 Z " fill="#1656CF" transform="translate(350,371)"/>
<path d="M0 0 C1.66015625 1.0390625 1.66015625 1.0390625 4.16015625 3.1015625 C4.16015625 3.7615625 4.16015625 4.4215625 4.16015625 5.1015625 C3.31453125 5.30910156 2.46890625 5.51664062 1.59765625 5.73046875 C-5.93897555 7.77734943 -11.74440815 10.00308839 -16.83984375 16.1015625 C-18.03096061 18.22118627 -18.03096061 18.22118627 -18.83984375 20.1015625 C-19.49984375 20.1015625 -20.15984375 20.1015625 -20.83984375 20.1015625 C-21.961722 13.9935587 -22.46446517 8.85092182 -19.21484375 3.3515625 C-13.56089822 -2.00480695 -6.99978647 -3.41815475 0 0 Z " fill="#E0D9DB" transform="translate(307.83984375,267.8984375)"/>
<path d="M0 0 C1 2 1 2 0 6 C2.97 6 5.94 6 9 6 C8.67 8.97 8.34 11.94 8 15 C0.74 15 -6.52 15 -14 15 C-12 5 -12 5 -10 2 C-10 2.66 -10 3.32 -10 4 C-6.7 2.68 -3.4 1.36 0 0 Z " fill="#435CC8" transform="translate(195,348)"/>
<path d="M0 0 C7.26 0 14.52 0 22 0 C22.66 2.64 23.32 5.28 24 8 C22.02 8 20.04 8 18 8 C18.33 9.98 18.66 11.96 19 14 C17.88625 13.938125 16.7725 13.87625 15.625 13.8125 C13.830625 13.9053125 13.830625 13.9053125 12 14 C11.01 15.485 11.01 15.485 10 17 C9.34 13.7 8.68 10.4 8 7 C5.36 7 2.72 7 0 7 C0 4.69 0 2.38 0 0 Z " fill="#175AD4" transform="translate(402,371)"/>
<path d="M0 0 C0 1.65 0 3.3 0 5 C-13.40173424 10.31448082 -25.14881193 9.75322516 -39 6 C-39 4.35 -39 2.7 -39 1 C-32.59230769 0.87435897 -32.59230769 0.87435897 -29.6796875 1.4921875 C-21.56005622 3.03089314 -12.9769548 2.37089326 -4.98828125 0.4375 C-3 0 -3 0 0 0 Z " fill="#3782F4" transform="translate(320,438)"/>
<path d="M0 0 C2.4375 0 2.4375 0 5 1 C9.42556322 7.79640065 9.76283754 16.08717669 9 24 C8.34 24.66 7.68 25.32 7 26 C5.68 26 4.36 26 3 26 C2.34642722 24.77493102 1.70251767 23.54470484 1.0625 22.3125 C0.70285156 21.62800781 0.34320313 20.94351562 -0.02734375 20.23828125 C-1.86910009 16.00002269 -2.15623489 11.89596513 -2.1875 7.3125 C-2.20167969 6.35988281 -2.21585937 5.40726562 -2.23046875 4.42578125 C-2 2 -2 2 0 0 Z " fill="#EEF3FB" transform="translate(354,330)"/>
<path d="M0 0 C1.23105469 0.02449219 2.46210938 0.04898437 3.73046875 0.07421875 C6.8125 0.3125 6.8125 0.3125 8.8125 1.3125 C8.8125 3.9525 8.8125 6.5925 8.8125 9.3125 C8.131875 8.961875 7.45125 8.61125 6.75 8.25 C2.9352994 7.03254236 0.64781637 7.17610996 -3.1875 8.3125 C-5.19791003 11.24699408 -5.19791003 11.24699408 -6.1875 14.3125 C-9.4875 13.9825 -12.7875 13.6525 -16.1875 13.3125 C-16.1875 17.9325 -16.1875 22.5525 -16.1875 27.3125 C-16.5175 27.3125 -16.8475 27.3125 -17.1875 27.3125 C-18.09095896 11.89346713 -18.09095896 11.89346713 -13.76953125 5.92578125 C-9.21207087 1.27829696 -6.65106446 -0.20324644 0 0 Z " fill="#1858D1" transform="translate(314.1875,371.6875)"/>
<path d="M0 0 C0.66 0.33 1.32 0.66 2 1 C2 3.64 2 6.28 2 9 C1.31292969 8.96519531 0.62585938 8.93039062 -0.08203125 8.89453125 C-0.98308594 8.86746094 -1.88414062 8.84039062 -2.8125 8.8125 C-3.70582031 8.77769531 -4.59914063 8.74289062 -5.51953125 8.70703125 C-8.04944004 8.7462481 -8.04944004 8.7462481 -9.46875 10.46875 C-11.69573895 12.69573895 -13.60241966 12.50602469 -16.6875 12.6875 C-17.68136719 12.75324219 -18.67523438 12.81898438 -19.69921875 12.88671875 C-20.45847656 12.92410156 -21.21773437 12.96148437 -22 13 C-21.08389785 7.12499706 -18.2858032 3.85335395 -13.6875 0.125 C-9.01410656 -1.83130423 -4.7627075 -1.58756917 0 0 Z " fill="#195BD4" transform="translate(268,323)"/>
<path d="M0 0 C6.6 0 13.2 0 20 0 C20 2.31 20 4.62 20 7 C16.37 7 12.74 7 9 7 C8.67 9.64 8.34 12.28 8 15 C5.03 14.67 2.06 14.34 -1 14 C-1.33 14.99 -1.66 15.98 -2 17 C-1.34 11.39 -0.68 5.78 0 0 Z " fill="#1457D3" transform="translate(238,371)"/>
<path d="M0 0 C1.98 0 3.96 0 6 0 C6 2.64 6 5.28 6 8 C7.98 8 9.96 8 12 8 C11.34 5.36 10.68 2.72 10 0 C12.64 0 15.28 0 18 0 C18.86375896 1.61992165 19.71575854 3.24611861 20.5625 4.875 C21.03816406 5.77992188 21.51382812 6.68484375 22.00390625 7.6171875 C22.33261719 8.40351563 22.66132813 9.18984375 23 10 C22.67 10.66 22.34 11.32 22 12 C14.08 11.67 6.16 11.34 -2 11 C-2 3.125 -2 3.125 0 0 Z " fill="#224AB1" transform="translate(349,385)"/>
<path d="M0 0 C2.70471323 2.45883021 2.82434853 4.30272798 3.0625 7.875 C0.4225 7.545 -2.2175 7.215 -4.9375 6.875 C-3.53990095 10.42018884 -3.53990095 10.42018884 -1.9375 13.875 C-3.21625 14.019375 -4.495 14.16375 -5.8125 14.3125 C-8.19442894 14.58142746 -9.78202691 14.79726346 -11.9375 15.875 C-14.31523403 11.02045968 -15.68219908 7.40705028 -14.9375 1.875 C-11.28461533 -2.84330937 -5.00515929 -1.91686952 0 0 Z " fill="#1C5BD2" transform="translate(442.9375,371.125)"/>
<path d="M0 0 C0.33 0 0.66 0 1 0 C1.04125 0.928125 1.0825 1.85625 1.125 2.8125 C1.68859031 6.28947638 1.68859031 6.28947638 5.0625 7.875 C6.031875 8.24625 7.00125 8.6175 8 9 C8.33 8.34 8.66 7.68 9 7 C9.33 10.96 9.66 14.92 10 19 C5.71 19 1.42 19 -3 19 C-4.98 13.72 -6.96 8.44 -9 3 C-3 5 -3 5 -1 6 C-0.67 4.02 -0.34 2.04 0 0 Z " fill="#435FC8" transform="translate(410,344)"/>
<path d="M0 0 C1.134375 0.020625 2.26875 0.04125 3.4375 0.0625 C4.63967503 2.46685006 4.47647118 3.74631369 4.31640625 6.4140625 C4.26806641 7.26484375 4.21972656 8.115625 4.16992188 8.9921875 C4.08581055 10.32636719 4.08581055 10.32636719 4 11.6875 C3.94779297 12.5846875 3.89558594 13.481875 3.84179688 14.40625 C3.7119592 16.62529383 3.5753646 18.8439404 3.4375 21.0625 C0.1375 21.0625 -3.1625 21.0625 -6.5625 21.0625 C-6.76029958 14.13951485 -6.41797491 7.76658818 -4.5625 1.0625 C-3.5625 0.0625 -3.5625 0.0625 0 0 Z " fill="#355CCB" transform="translate(279.5625,341.9375)"/>
<path d="M0 0 C1 4 1 4 0.21484375 5.81640625 C-0.20667969 6.39261719 -0.62820312 6.96882813 -1.0625 7.5625 C-1.46597656 8.14128906 -1.86945313 8.72007812 -2.28515625 9.31640625 C-5.76491459 12.73275214 -9.0367703 13.92702805 -13.8671875 14.29296875 C-15.20344302 14.27331793 -16.53955326 14.23796746 -17.875 14.1875 C-18.56335938 14.17396484 -19.25171875 14.16042969 -19.9609375 14.14648438 C-21.64097001 14.1114837 -23.3205935 14.05768954 -25 14 C-23.125 8.125 -23.125 8.125 -22 7 C-20.15108054 6.76636119 -18.29511969 6.58696365 -16.4375 6.4375 C-15.42558594 6.35371094 -14.41367188 6.26992188 -13.37109375 6.18359375 C-12.58863281 6.12300781 -11.80617187 6.06242187 -11 6 C-10.34 4.35 -9.68 2.7 -9 1 C-4.545 0.505 -4.545 0.505 0 0 Z " fill="#2D4196" transform="translate(168,395)"/>
<path d="M0 0 C5.94 0.33 11.88 0.66 18 1 C17.67 3.31 17.34 5.62 17 8 C13.7 8 10.4 8 7 8 C7 10.64 7 13.28 7 16 C10.63 16 14.26 16 18 16 C17.67 16.99 17.34 17.98 17 19 C17 18.34 17 17.68 17 17 C13.37 17 9.74 17 6 17 C6 15.02 6 13.04 6 11 C3.36 11 0.72 11 -2 11 C-2.33 11.99 -2.66 12.98 -3 14 C-2.88437394 12.60335892 -2.757008 11.20768801 -2.625 9.8125 C-2.55539063 9.03519531 -2.48578125 8.25789063 -2.4140625 7.45703125 C-2 5 -2 5 0 0 Z " fill="#2950B2" transform="translate(237,385)"/>
<path d="M0 0 C3.3 0 6.6 0 10 0 C9.54851905 2.251385 9.08855496 4.50106998 8.625 6.75 C8.36976563 8.00296875 8.11453125 9.2559375 7.8515625 10.546875 C6.52983465 15.90654206 6.52983465 15.90654206 5 18 C2.8359375 18.828125 2.8359375 18.828125 0.375 19.25 C-0.44226563 19.39953125 -1.25953125 19.5490625 -2.1015625 19.703125 C-3.04128906 19.85007812 -3.04128906 19.85007812 -4 20 C-3.5636242 12.92770249 -2.21244055 6.73351473 0 0 Z " fill="#1355D0" transform="translate(216,323)"/>
<path d="M0 0 C5.4611399 -1.05699482 5.4611399 -1.05699482 9 0 C12.85483599 3.64689878 15.92608321 7.68753218 19 12 C18.67 12.66 18.34 13.32 18 14 C15.87506859 14.02693575 13.75004088 14.04636628 11.625 14.0625 C10.44164062 14.07410156 9.25828125 14.08570313 8.0390625 14.09765625 C5 14 5 14 3 13 C2.67 13.66 2.34 14.32 2 15 C1.66048381 13.43883181 1.32867456 11.87598662 1 10.3125 C0.814375 9.44238281 0.62875 8.57226562 0.4375 7.67578125 C0.01027953 5.06287036 -0.07616201 2.64186962 0 0 Z " fill="#1354CE" transform="translate(372,371)"/>
<path d="M0 0 C4.95 0 9.9 0 15 0 C18 10.625 18 10.625 18 14 C14.3748179 14.6329683 12.4745135 14.95992565 9 14 C5.39556155 10.75275816 2.53148265 7.13535345 0 3 C0 2.01 0 1.02 0 0 Z " fill="#2B429A" transform="translate(391,395)"/>
<path d="M0 0 C5.4185766 -0.22577402 9.77487721 0.53329887 15 2 C15.20140476 5.62528568 14.85776765 7.86501708 13 11 C13.66 11.33 14.32 11.66 15 12 C15 12.66 15 13.32 15 14 C16.32 14.33 17.64 14.66 19 15 C17.27014758 14.88487847 15.54111249 14.75744323 13.8125 14.625 C12.36810547 14.52058594 12.36810547 14.52058594 10.89453125 14.4140625 C7.22339236 13.88890633 4.24331531 12.85745883 1.1875 10.75 C-0.56212594 8.17160388 -0.1904477 6.04716315 0 3 C0 2.01 0 1.02 0 0 Z " fill="#B4B4B4" transform="translate(193,263)"/>
<path d="M0 0 C0.66 0.33 1.32 0.66 2 1 C1.319375 1.7425 0.63875 2.485 -0.0625 3.25 C-0.701875 4.1575 -1.34125 5.065 -2 6 C-1.68399123 8.14096316 -1.68399123 8.14096316 -1 10 C-4.95706104 11.17101244 -8.91584968 12.33607272 -12.875 13.5 C-14.00292969 13.83386719 -15.13085938 14.16773438 -16.29296875 14.51171875 C-17.90751953 14.98544922 -17.90751953 14.98544922 -19.5546875 15.46875 C-20.54968262 15.76201172 -21.54467773 16.05527344 -22.56982422 16.35742188 C-25 17 -25 17 -27 17 C-27 14.69 -27 12.38 -27 10 C-26.14019531 9.86464844 -25.28039062 9.72929687 -24.39453125 9.58984375 C-15.98637119 8.05858668 -9.82300802 5.69380481 -2.546875 1.328125 C-1.28617187 0.67070312 -1.28617187 0.67070312 0 0 Z " fill="#B04A4E" transform="translate(372,254)"/>
<path d="M0 0 C2.97 0 5.94 0 9 0 C15.39084507 12.3556338 15.39084507 12.3556338 15 19 C10.15623365 18.5596576 8.1257375 17.70871235 5 14 C3.515625 11.0546875 3.515625 11.0546875 2.25 7.875 C1.82203125 6.82054687 1.3940625 5.76609375 0.953125 4.6796875 C0 2 0 2 0 0 Z " fill="#1758D1" transform="translate(370,323)"/>
<path d="M0 0 C9.55733887 -1.05448748 9.55733887 -1.05448748 12.84375 1.34765625 C15.69748757 5.12222194 16.58358276 8.21462139 16 13 C15.34 12.67 14.68 12.34 14 12 C12.45976004 11.93049459 10.91665012 11.91547643 9.375 11.9375 C8.55773437 11.94652344 7.74046875 11.95554687 6.8984375 11.96484375 C6.27195313 11.97644531 5.64546875 11.98804688 5 12 C4.67 13.32 4.34 14.64 4 16 C3.566875 14.6078125 3.566875 14.6078125 3.125 13.1875 C2.1125 9.90208333 2.1125 9.90208333 0 7 C-0.07905064 4.66800612 -0.08798769 2.33167378 0 0 Z " fill="#234CB3" transform="translate(154,384)"/>
<path d="M0 0 C0.68320313 0.2784375 1.36640625 0.556875 2.0703125 0.84375 C5.3179552 2.12548632 8.58877052 3.32069664 11.875 4.5 C13.04804688 4.9228125 14.22109375 5.345625 15.4296875 5.78125 C18.93340971 6.97726896 22.43280004 8.01468646 26 9 C26 10.98 26 12.96 26 15 C17.3321012 13.63353125 9.25329756 10.88315195 1 8 C0.67 5.36 0.34 2.72 0 0 Z " fill="#AE454B" transform="translate(229,256)"/>
<path d="M0 0 C1.2065625 0.0309375 1.2065625 0.0309375 2.4375 0.0625 C5.05846065 6.94252171 4.61920362 13.78426039 4.4375 21.0625 C1.7975 21.0625 -0.8425 21.0625 -3.5625 21.0625 C-3.59138146 17.75001813 -3.60925799 14.43756833 -3.625 11.125 C-3.63337891 10.17947266 -3.64175781 9.23394531 -3.65039062 8.25976562 C-3.65361328 7.36064453 -3.65683594 6.46152344 -3.66015625 5.53515625 C-3.66539307 4.70250244 -3.67062988 3.86984863 -3.67602539 3.01196289 C-3.50016074 -0.00799247 -3.04049625 0.07415845 0 0 Z " fill="#375ECC" transform="translate(311.5625,341.9375)"/>
<path d="M0 0 C2.8125 1.0625 2.8125 1.0625 5 3 C5.9375 6.5625 5.9375 6.5625 6 10 C5.34 10.66 4.68 11.32 4 12 C2.1875 11.6875 2.1875 11.6875 0 11 C-2.56282742 10.27034634 -2.56282742 10.27034634 -5 10 C-5.66 10.66 -6.32 11.32 -7 12 C-7.99 12 -8.98 12 -10 12 C-11.43735246 9.12529507 -11.38172649 7.18105412 -11 4 C-7.6122814 0.21372628 -5.00554918 -0.72997592 0 0 Z " fill="#1663DE" transform="translate(303,147)"/>
<path d="M0 0 C1.50843222 1.26081307 3.01142699 2.52830074 4.5 3.8125 C4.17 4.4725 3.84 5.1325 3.5 5.8125 C0.86 5.4825 -1.78 5.1525 -4.5 4.8125 C-4.83 5.4725 -5.16 6.1325 -5.5 6.8125 C-6.16 6.255625 -6.82 5.69875 -7.5 5.125 C-10.51546702 2.80057751 -13.59319161 0.97962622 -16.92578125 -0.84375 C-17.44527344 -1.2871875 -17.96476562 -1.730625 -18.5 -2.1875 C-18.5 -3.5075 -18.5 -4.8275 -18.5 -6.1875 C-11.15625462 -8.71191248 -5.51335103 -4.39820365 0 0 Z " fill="#254DB2" transform="translate(451.5,391.1875)"/>
<path d="M0 0 C0.90105469 0.00902344 1.80210937 0.01804687 2.73046875 0.02734375 C3.41753906 0.03894531 4.10460937 0.05054688 4.8125 0.0625 C6.375 2.875 6.375 2.875 7.8125 6.0625 C6.8125 9.0625 6.8125 9.0625 4.8125 10.625 C-0.32639218 13.08738584 -5.60871989 14.83354131 -11.1875 13.0625 C-10.2284375 12.6603125 -10.2284375 12.6603125 -9.25 12.25 C-6.85618314 11.17582248 -6.85618314 11.17582248 -6.1875 8.0625 C-6.1875 6.7425 -6.1875 5.4225 -6.1875 4.0625 C-6.1875 3.4025 -6.1875 2.7425 -6.1875 2.0625 C-6.8475 1.7325 -7.5075 1.4025 -8.1875 1.0625 C-5.17259443 0.05753148 -3.14568308 -0.04085303 0 0 Z M-5.1875 6.0625 C-4.1875 8.0625 -4.1875 8.0625 -4.1875 8.0625 Z " fill="#B3B3B3" transform="translate(399.1875,263.9375)"/>
<path d="M0 0 C2.97 0 5.94 0 9 0 C9.33910994 2.04071515 9.67102704 4.08262621 10 6.125 C10.185625 7.26195312 10.37125 8.39890625 10.5625 9.5703125 C10.96956049 12.76137602 11.07809902 15.78817791 11 19 C10.67 19 10.34 19 10 19 C10 17.35 10 15.7 10 14 C7.03 14 4.06 14 1 14 C-0.38226016 11.23547967 -0.09525387 8.9538637 -0.0625 5.875 C-0.05347656 4.77929688 -0.04445313 3.68359375 -0.03515625 2.5546875 C-0.02355469 1.71164062 -0.01195312 0.86859375 0 0 Z " fill="#1E5DD2" transform="translate(330,371)"/>
<path d="M0 0 C2.97 0 5.94 0 9 0 C7.98408579 5.46864457 6.92908943 10.76390013 5 16 C4.01 15.34 3.02 14.68 2 14 C-1.75698557 13.62430144 -2.75366476 13.8357765 -6 16 C-4.43551329 10.3856009 -2.83604813 5.13189662 0 0 Z " fill="#1A59D0" transform="translate(182,372)"/>
<path d="M0 0 C2.05078125 0.03255208 4.1015625 0.06510417 6.15234375 0.09765625 C7.61015709 4.47109626 7.21214695 8.49280982 7.15234375 13.09765625 C3.52234375 13.09765625 -0.10765625 13.09765625 -3.84765625 13.09765625 C-3.70732514 11.11809184 -3.56024395 9.13900484 -3.41015625 7.16015625 C-3.32894531 6.05800781 -3.24773437 4.95585937 -3.1640625 3.8203125 C-2.73690595 0.14465676 -2.73690595 0.14465676 0 0 Z " fill="#2F4498" transform="translate(262.84765625,395.90234375)"/>
<path d="M0 0 C2.64 0 5.28 0 8 0 C8.05447047 1.41623216 8.09300508 2.83308191 8.125 4.25 C8.14820313 5.03890625 8.17140625 5.8278125 8.1953125 6.640625 C8 9 8 9 6 13 C2.7 13 -0.6 13 -4 13 C-3.50269348 8.02693484 -2.44697666 4.36200187 0 0 Z " fill="#334799" transform="translate(207,396)"/>
<path d="M0 0 C0.84026396 1.76755526 1.67198722 3.53917263 2.5 5.3125 C2.9640625 6.29863281 3.428125 7.28476562 3.90625 8.30078125 C5 11 5 11 5 14 C1.37 14 -2.26 14 -6 14 C-6.66 9.71 -7.32 5.42 -8 1 C-2 0 -2 0 0 0 Z " fill="#31469B" transform="translate(281,395)"/>
<path d="M0 0 C2.97 0 5.94 0 9 0 C9.22182044 3.17942637 9.11527933 5.64592778 8.125 8.6875 C4.82853602 12.27482845 0.64355205 12.92841106 -4 14 C-3.00956295 9.16371695 -2.04301154 4.52381127 0 0 Z " fill="#1E47B0" transform="translate(189,338)"/>
<path d="M0 0 C2.64 0 5.28 0 8 0 C7.69163768 2.12560437 7.37818386 4.25047065 7.0625 6.375 C6.88847656 7.55835938 6.71445313 8.74171875 6.53515625 9.9609375 C6 13 6 13 5 15 C2.69 15 0.38 15 -2 15 C-1.85930804 12.87465341 -1.71229079 10.74972471 -1.5625 8.625 C-1.48128906 7.44164062 -1.40007812 6.25828125 -1.31640625 5.0390625 C-1 2 -1 2 0 0 Z " fill="#1757D1" transform="translate(234,323)"/>
<path d="M0 0 C2.64 0.33 5.28 0.66 8 1 C8.50615298 2.26839526 9.00469099 3.53983102 9.5 4.8125 C9.7784375 5.52019531 10.056875 6.22789062 10.34375 6.95703125 C11 9 11 9 11 12 C8.36 12.33 5.72 12.66 3 13 C2.67 13.99 2.34 14.98 2 16 C1.46530198 14.27507022 0.94780825 12.544802 0.4375 10.8125 C0.14746094 9.84957031 -0.14257812 8.88664062 -0.44140625 7.89453125 C-1.02461026 4.87247412 -0.81178385 2.94070045 0 0 Z " fill="#234BB2" transform="translate(414,384)"/>
<path d="M0 0 C6.93359375 -0.09765625 6.93359375 -0.09765625 9 0 C11.36670329 2.36670329 10.7614562 9.03524138 11 12 C7.37 11.67 3.74 11.34 0 11 C0 7.37 0 3.74 0 0 Z " fill="#1B46B0" transform="translate(298,385)"/>
<path d="M0 0 C3.375 -0.125 3.375 -0.125 7 0 C9.52480693 2.52480693 9.55738633 4.13823034 10.125 7.625 C10.29257812 8.62789063 10.46015625 9.63078125 10.6328125 10.6640625 C10.75398438 11.43492187 10.87515625 12.20578125 11 13 C8.03 13 5.06 13 2 13 C0 4.5 0 4.5 0 0 Z " fill="#364A9C" transform="translate(377,396)"/>
<path d="M0 0 C2.64 0 5.28 0 8 0 C6.68 5.28 5.36 10.56 4 16 C3.67 15.01 3.34 14.02 3 13 C-1.07964281 14.30155006 -1.07964281 14.30155006 -5 16 C-4.80664062 15.43152344 -4.61328125 14.86304688 -4.4140625 14.27734375 C-2.81863577 9.54635062 -1.33099414 4.81205575 0 0 Z " fill="#1B5AD0" transform="translate(199,372)"/>
<path d="M0 0 C2.97 0 5.94 0 9 0 C9.33 3.63 9.66 7.26 10 11 C7.03 11 4.06 11 1 11 C-0.71466036 7.57067929 -0.05404056 3.78283935 0 0 Z " fill="#1F48B1" transform="translate(331,385)"/>
<path d="M0 0 C2.31 0 4.62 0 7 0 C7.99 4.62 8.98 9.24 10 14 C8.35 14 6.7 14 5 14 C4.34 14.66 3.68 15.32 3 16 C2.49411853 14.08487728 1.99551609 12.16783078 1.5 10.25 C1.2215625 9.18265625 0.943125 8.1153125 0.65625 7.015625 C0 4 0 4 0 0 Z " fill="#1B5AD1" transform="translate(392,371)"/>
<path d="M0 0 C3.07413026 -0.35470734 5.9394987 -0.52149678 9 0 C11.8399407 3.11700808 13 4.76193341 13 9 C11.58344207 9.0272415 10.16672955 9.04650467 8.75 9.0625 C7.56664062 9.07990234 7.56664062 9.07990234 6.359375 9.09765625 C4.09308998 9.00385306 2.1711105 8.63241063 0 8 C0 5.36 0 2.72 0 0 Z " fill="#1056D5" transform="translate(308,324)"/>
<path d="M0 0 C1.55033393 4.80603519 1.0872355 10.00819059 1 15 C-1.875 14.4375 -1.875 14.4375 -5 13 C-6.85181305 8.62298734 -7.23016406 4.71836322 -7 0 C-2.25 -1.125 -2.25 -1.125 0 0 Z " fill="#1C46B0" transform="translate(417,338)"/>
<path d="M0 0 C0.66 0.66 1.32 1.32 2 2 C1.3709375 2.07476562 0.741875 2.14953125 0.09375 2.2265625 C-8.66408746 3.57189295 -14.05226575 7.55662123 -20 14 C-19.58726322 8.73760609 -18.88050973 5.67627237 -15 2 C-9.49348229 -1.17683714 -6.01294966 -1.32488721 0 0 Z " fill="#C50F22" transform="translate(306,267)"/>
<path d="M0 0 C-0.11509661 1.41750563 -0.24253658 2.83401169 -0.375 4.25 C-0.44460937 5.03890625 -0.51421875 5.8278125 -0.5859375 6.640625 C-1.01507113 9.085877 -1.78600638 10.84836903 -3 13 C-3 12.34 -3 11.68 -3 11 C-5.64 11.33 -8.28 11.66 -11 12 C-10.57405412 10.55903414 -10.13373367 9.12231288 -9.6875 7.6875 C-9.44386719 6.88699219 -9.20023438 6.08648437 -8.94921875 5.26171875 C-6.98940538 0.59203999 -4.97183766 -0.40312197 0 0 Z " fill="#284FB3" transform="translate(202,385)"/>
<path d="M0 0 C3.6119913 1.2039971 3.89187632 1.65351061 5.5625 4.875 C7.0115474 8.01460271 7.1875 9.43299494 7.1875 13.0625 C2.79999708 11.86590829 -0.04571262 10.75154984 -2.8125 7.0625 C-3.625 3.875 -3.625 3.875 -3.8125 1.0625 C-2.8125 0.0625 -2.8125 0.0625 0 0 Z " fill="#1F4AB3" transform="translate(401.8125,336.9375)"/>
<path d="M0 0 C0.33 0.66 0.66 1.32 1 2 C4.3 1.67 7.6 1.34 11 1 C10.34 5.95 9.68 10.9 9 16 C8.67 16 8.34 16 8 16 C7.67 13.03 7.34 10.06 7 7 C6.34 7 5.68 7 5 7 C4.67 7.66 4.34 8.32 4 9 C3.34 9 2.68 9 2 9 C2 8.34 2 7.68 2 7 C1.34 7 0.68 7 0 7 C0 7.66 0 8.32 0 9 C-0.66 9 -1.32 9 -2 9 C-1.125 1.125 -1.125 1.125 0 0 Z " fill="#2F74DD" transform="translate(245,334)"/>
<path d="M0 0 C2.97 0 5.94 0 9 0 C9 2.97 9 5.94 9 9 C6.03 9 3.06 9 0 9 C0 6.03 0 3.06 0 0 Z " fill="#0F57D7" transform="translate(276,324)"/>
<path d="M0 0 C0.33 0 0.66 0 1 0 C1.08075665 2.29109597 1.13907731 4.58299267 1.1875 6.875 C1.23970703 8.78925781 1.23970703 8.78925781 1.29296875 10.7421875 C1.19628906 11.81726563 1.09960938 12.89234375 1 14 C-3.46555778 16.97703852 -7.76052176 16.50281502 -13 16 C-15.58099426 15.23411319 -17.61002277 14.27465452 -20 13 C-20 12.67 -20 12.34 -20 12 C-13.4 12 -6.8 12 0 12 C0 8.04 0 4.08 0 0 Z " fill="#35428F" transform="translate(324,394)"/>
<path d="M0 0 C0.33 0.66 0.66 1.32 1 2 C3.12576782 2.46651207 3.12576782 2.46651207 5.5625 2.625 C6.38878906 2.69976562 7.21507812 2.77453125 8.06640625 2.8515625 C8.70449219 2.90054687 9.34257812 2.94953125 10 3 C10 4.98 10 6.96 10 9 C7.23735711 9.59732819 4.83967231 10 2 10 C1.67 11.98 1.34 13.96 1 16 C0.67 16 0.34 16 0 16 C0 10.72 0 5.44 0 0 Z " fill="#2B73DE" transform="translate(342,333)"/>
<path d="M0 0 C2.64 0 5.28 0 8 0 C8 3.3 8 6.6 8 10 C5.69 10 3.38 10 1 10 C0.67 6.7 0.34 3.4 0 0 Z " fill="#195DD7" transform="translate(328,323)"/>
<path d="M0 0 C-0.33 1.65 -0.66 3.3 -1 5 C-4.96 5.99 -8.92 6.98 -13 8 C-13 5.69 -13 3.38 -13 1 C-8.60563789 0.14256349 -4.47427924 -0.08948558 0 0 Z " fill="#A43A57" transform="translate(358,263)"/>
<path d="M0 0 C2.97 0 5.94 0 9 0 C7.125 5.75 7.125 5.75 6 8 C3.03 8 0.06 8 -3 8 C-1.125 2.25 -1.125 2.25 0 0 Z " fill="#1159D8" transform="translate(293,324)"/>
<path d="M0 0 C0.89847656 0.09023438 1.79695312 0.18046875 2.72265625 0.2734375 C4.9375 0.625 4.9375 0.625 5.9375 1.625 C5.97830783 3.62458364 5.98004356 5.62545254 5.9375 7.625 C-3.39291575 6.45213348 -3.39291575 6.45213348 -6.1875 3 C-6.47625 2.21625 -6.765 1.4325 -7.0625 0.625 C-4.46138792 -0.67555604 -2.87508678 -0.30612435 0 0 Z " fill="#A43A57" transform="translate(249.0625,263.375)"/>
<path d="M0 0 C6.27 0 12.54 0 19 0 C19 0.99 19 1.98 19 3 C12.4 3 5.8 3 -1 3 C-0.67 2.01 -0.34 1.02 0 0 Z " fill="#2B3585" transform="translate(234,405)"/>
<path d="M0 0 C1.17949219 0.10183594 2.35898437 0.20367187 3.57421875 0.30859375 C4.47785156 0.39238281 5.38148438 0.47617187 6.3125 0.5625 C5.9825 1.5525 5.6525 2.5425 5.3125 3.5625 C2.52648777 4.49117074 0.70183911 4.72592217 -2.1875 4.75 C-3.34765625 4.77126953 -3.34765625 4.77126953 -4.53125 4.79296875 C-6.6875 4.5625 -6.6875 4.5625 -9.6875 2.5625 C-9.6875 1.9025 -9.6875 1.2425 -9.6875 0.5625 C-6.14075997 -0.61974668 -3.71227005 -0.33079634 0 0 Z " fill="#39458F" transform="translate(448.6875,405.4375)"/>
<path d="M0 0 C1.65 0.33 3.3 0.66 5 1 C5.22432841 4.29014997 5.30380397 6.42277246 3.75 9.375 C2 11 2 11 -2 11 C-1.34 7.37 -0.68 3.74 0 0 Z " fill="#E1E8F7" transform="translate(220,378)"/>
<path d="M0 0 C5.61 0 11.22 0 17 0 C17.33 0.66 17.66 1.32 18 2 C14.72311897 3.95218444 12.22930273 4.27063566 8.4375 4.25 C7.01244141 4.25773437 7.01244141 4.25773437 5.55859375 4.265625 C3 4 3 4 0 2 C0 1.34 0 0.68 0 0 Z " fill="#313C89" transform="translate(174,405)"/>
<path d="M0 0 C2.97 0 5.94 0 9 0 C8.67 1.98 8.34 3.96 8 6 C6.02 6 4.04 6 2 6 C1.67 7.65 1.34 9.3 1 11 C-0.65 11 -2.3 11 -4 11 C-2.68 10.67 -1.36 10.34 0 10 C0 6.7 0 3.4 0 0 Z " fill="#2D4FAD" transform="translate(316,391)"/>
<path d="M0 0 C3.63 0 7.26 0 11 0 C12.09506492 3.28519475 12.09960608 5.73663415 12.0625 9.1875 C12.05347656 10.27417969 12.04445313 11.36085938 12.03515625 12.48046875 C12.02355469 13.31191406 12.01195312 14.14335937 12 15 C11.67 15 11.34 15 11 15 C10.67 11.37 10.34 7.74 10 4 C9.01 4.33 8.02 4.66 7 5 C4.66666667 5 2.33333333 5 0 5 C0 3.35 0 1.7 0 0 Z " fill="#3F7CDE" transform="translate(362,338)"/>
<path d="M0 0 C0 1.32 0 2.64 0 4 C-4.95 4 -9.9 4 -15 4 C-15 3.34 -15 2.68 -15 2 C-9.77487721 0.53329887 -5.4185766 -0.22577402 0 0 Z " fill="#353F8B" transform="translate(158,405)"/>
<path d="M0 0 C2 1 2 1 2.8515625 2.9609375 C3.10679687 3.75757813 3.36203125 4.55421875 3.625 5.375 C3.88539063 6.16648437 4.14578125 6.95796875 4.4140625 7.7734375 C5 10 5 10 5 13 C3.02 13 1.04 13 -1 13 C-1.07654536 8.48382401 -1.10228696 4.40914783 0 0 Z " fill="#D3DCF1" transform="translate(356,380)"/>
<path d="M0 0 C0.99 0.33 1.98 0.66 3 1 C1.68822142 3.9262753 0.24710766 5.75289234 -2 8 C-3.17574711 10.09989652 -3.17574711 10.09989652 -4 12 C-4.66 12 -5.32 12 -6 12 C-6.625 9.125 -6.625 9.125 -7 6 C-6.34 5.34 -5.68 4.68 -5 4 C-4.67 4.33 -4.34 4.66 -4 5 C-2.68 3.35 -1.36 1.7 0 0 Z " fill="#E5DDDE" transform="translate(293,276)"/>
<path d="M0 0 C0.33 0.99 0.66 1.98 1 3 C3.31 3 5.62 3 8 3 C7.67 4.98 7.34 6.96 7 9 C4.69 8.67 2.38 8.34 0 8 C-0.66 8.99 -1.32 9.98 -2 11 C-1 3.57142857 -1 3.57142857 0 0 Z " fill="#3374DC" transform="translate(231,335)"/>
<path d="M0 0 C1.32 0 2.64 0 4 0 C4.78116316 3.12465262 5.04666927 5.98482168 5 9.1875 C4.71583303 12.80434405 4.71583303 12.80434405 6 15 C4.68 15 3.36 15 2 15 C1.2717552 10.00632136 0.61512818 5.00890086 0 0 Z " fill="#C5C5C5" transform="translate(423,257)"/>
<path d="M0 0 C2.5820955 1.29104775 4.16811705 2.7755707 6 5 C6 5.99 6 6.98 6 8 C5.34 8 4.68 8 4 8 C4 7.34 4 6.68 4 6 C-0.89895217 4.81503452 -0.89895217 4.81503452 -5.4375 6.4375 C-5.953125 6.953125 -6.46875 7.46875 -7 8 C-6.43241127 4.02687888 -4.46005933 0 0 0 Z " fill="#3678E2" transform="translate(301,161)"/>
<path d="M0 0 C2.6875 2.3125 2.6875 2.3125 5 5 C5 5.99 5 6.98 5 8 C4.443125 7.690625 3.88625 7.38125 3.3125 7.0625 C0.77351995 5.8959416 -1.20646106 5.20951542 -4 5 C-6.30504044 6.33153266 -6.30504044 6.33153266 -8 8 C-7.32253522 3.25774652 -4.9532836 0 0 0 Z " fill="#3677E2" transform="translate(302,190)"/>
<path d="M0 0 C1.98 0.495 1.98 0.495 4 1 C4.25 6.625 4.25 6.625 2 10 C1.01 10 0.02 10 -1 10 C-1.125 2.25 -1.125 2.25 0 0 Z " fill="#E7EDF9" transform="translate(272,378)"/>
<path d="M0 0 C2.29400986 1.00362931 4.06970438 2.28940003 6 3.875 C5.67 5.195 5.34 6.515 5 7.875 C4.4225 7.194375 3.845 6.51375 3.25 5.8125 C1.24082771 3.6261985 1.24082771 3.6261985 -1 4 C-3.04117496 4.89301405 -5.03584404 5.82277359 -7 6.875 C-6.62492618 4.15571483 -6.15781339 3.03281339 -4.1875 1.0625 C-2 -0.125 -2 -0.125 0 0 Z " fill="#3275E1" transform="translate(301,210.125)"/>
<path d="M0 0 C1.98 0 3.96 0 6 0 C6 2.64 6 5.28 6 8 C3.03 7.505 3.03 7.505 0 7 C0 4.69 0 2.38 0 0 Z " fill="#1747B6" transform="translate(390,337)"/>
<path d="M0 0 C2.97 0 5.94 0 9 0 C9.66 1.32 10.32 2.64 11 4 C7.37 4 3.74 4 0 4 C0 2.68 0 1.36 0 0 Z " fill="#313B89" transform="translate(419,405)"/>
<path d="M0 0 C2.73431246 0.93366767 4.48207294 1.87162579 6.5625 3.875 C6.5625 4.865 6.5625 5.855 6.5625 6.875 C5.985 6.565625 5.4075 6.25625 4.8125 5.9375 C1.8000338 4.49427636 1.8000338 4.49427636 -1.4375 3.875 C-4.16731832 5.22900645 -4.16731832 5.22900645 -6.4375 6.875 C-6.03750283 4.55501641 -5.53182121 3.01176576 -4.1875 1.0625 C-2.4375 -0.125 -2.4375 -0.125 0 0 Z " fill="#296EE1" transform="translate(300.4375,181.125)"/>
<path d="M0 0 C2.73431246 0.93366767 4.48207294 1.87162579 6.5625 3.875 C6.5625 4.865 6.5625 5.855 6.5625 6.875 C6.005625 6.565625 5.44875 6.25625 4.875 5.9375 C2.33601995 4.7709416 0.35603894 4.08451542 -2.4375 3.875 C-4.74254044 5.20653266 -4.74254044 5.20653266 -6.4375 6.875 C-6.03750283 4.55501641 -5.53182121 3.01176576 -4.1875 1.0625 C-2.4375 -0.125 -2.4375 -0.125 0 0 Z " fill="#2C70E1" transform="translate(300.4375,220.125)"/>
<path d="M0 0 C2.5820955 1.29104775 4.16811705 2.7755707 6 5 C6 5.99 6 6.98 6 8 C5.34 8 4.68 8 4 8 C2.375 6 2.375 6 1 4 C-2.35595828 4.59927826 -4.37801226 5.84622436 -7 8 C-6.43241127 4.02687888 -4.46005933 0 0 0 Z " fill="#3677E2" transform="translate(301,200)"/>
<path d="M0 0 C3.3 0 6.6 0 10 0 C10.33 1.32 10.66 2.64 11 4 C8.03 4 5.06 4 2 4 C1.34 2.68 0.68 1.36 0 0 Z " fill="#36418D" transform="translate(398,405)"/>
<path d="M0 0 C2.97 0 5.94 0 9 0 C9.33 1.32 9.66 2.64 10 4 C6.7 4 3.4 4 0 4 C0 2.68 0 1.36 0 0 Z " fill="#323C89" transform="translate(367,405)"/>
<path d="M0 0 C2.97 0 5.94 0 9 0 C9.33 1.32 9.66 2.64 10 4 C6.7 4 3.4 4 0 4 C0 2.68 0 1.36 0 0 Z " fill="#323C89" transform="translate(276,405)"/>
<path d="M0 0 C-0.33 0.99 -0.66 1.98 -1 3 C-3.06640625 3.73046875 -3.06640625 3.73046875 -5.5625 4.1875 C-6.38878906 4.34605469 -7.21507812 4.50460937 -8.06640625 4.66796875 C-9.02353516 4.83232422 -9.02353516 4.83232422 -10 5 C-9.67 3.35 -9.34 1.7 -9 0 C-3.375 -1.125 -3.375 -1.125 0 0 Z " fill="#1649B9" transform="translate(222,338)"/>
<path d="M0 0 C2.15737969 0.9743005 3.39293876 2.09875457 4.9375 3.875 C4.6075 4.865 4.2775 5.855 3.9375 6.875 C3.525 6.359375 3.1125 5.84375 2.6875 5.3125 C1.06250443 3.6327168 1.06250443 3.6327168 -1 4.0625 C-3.09454478 4.8876237 -5.07841042 5.81209487 -7.0625 6.875 C-6.68742618 4.15571483 -6.22031339 3.03281339 -4.25 1.0625 C-2.0625 -0.125 -2.0625 -0.125 0 0 Z " fill="#236BE0" transform="translate(301.0625,171.125)"/>
<path d="M0 0 C0 1.65 0 3.3 0 5 C-5.75 4.125 -5.75 4.125 -8 3 C-8 2.34 -8 1.68 -8 1 C-5.23735711 0.40267181 -2.83967231 0 0 0 Z " fill="#1A4CBB" transform="translate(385,337)"/>
<path d="M0 0 C0 0.33 0 0.66 0 1 C-0.90363281 1.27714844 -1.80726563 1.55429687 -2.73828125 1.83984375 C-3.91777344 2.20207031 -5.09726562 2.56429688 -6.3125 2.9375 C-8.07013672 3.47697266 -8.07013672 3.47697266 -9.86328125 4.02734375 C-11.91553977 4.66372279 -13.96160137 5.32053379 -16 6 C-16.33 5.34 -16.66 4.68 -17 4 C-10.8389516 0.77945197 -6.9670251 -0.13398125 0 0 Z " fill="#F3F1F1" transform="translate(312,272)"/>
<path d="M0 0 C2.31 0 4.62 0 7 0 C7 1.32 7 2.64 7 4 C4.69 4 2.38 4 0 4 C0 2.68 0 1.36 0 0 Z " fill="#2A3585" transform="translate(346,405)"/>
<path d="M0 0 C2.97 0 5.94 0 9 0 C9 0.99 9 1.98 9 3 C6.03 3 3.06 3 0 3 C0 2.01 0 1.02 0 0 Z " fill="#2A3585" transform="translate(260,405)"/>
<path d="M0 0 C2.64 0 5.28 0 8 0 C8 0.99 8 1.98 8 3 C5.03 3 2.06 3 -1 3 C-0.67 2.01 -0.34 1.02 0 0 Z " fill="#2A3585" transform="translate(205,405)"/>
<path d="M0 0 C6.75 -0.125 6.75 -0.125 9 1 C9 1.66 9 2.32 9 3 C6.03 3 3.06 3 0 3 C0 2.01 0 1.02 0 0 Z " fill="#2A3585" transform="translate(333,405)"/>
<path d="M0 0 C0 0.33 0 0.66 0 1 C-1.98 1.33 -3.96 1.66 -6 2 C-6.33 2.99 -6.66 3.98 -7 5 C-7.66 5 -8.32 5 -9 5 C-9.33 4.34 -9.66 3.68 -10 3 C-12.01669827 1.86649466 -12.01669827 1.86649466 -14 1 C-9.23692563 0.04738513 -4.8333472 -0.08333357 0 0 Z " fill="#599F65" transform="translate(441,278)"/>
<path d="M0 0 C2.31 0 4.62 0 7 0 C7.33 0.99 7.66 1.98 8 3 C5.36 3 2.72 3 0 3 C0 2.01 0 1.02 0 0 Z " fill="#2C3887" transform="translate(379,405)"/>
<path d="M0 0 C0.598125 0.226875 1.19625 0.45375 1.8125 0.6875 C0.6678125 1.5846875 0.6678125 1.5846875 -0.5 2.5 C-2.5358575 4.15709332 -4.3853279 5.79047674 -6.1875 7.6875 C-5.82037028 4.97074005 -5.46005401 3.07686287 -3.875 0.8125 C-2.1875 -0.3125 -2.1875 -0.3125 0 0 Z " fill="#F1EAEB" transform="translate(294.1875,274.3125)"/>
<path d="M0 0 C0.99 0.33 1.98 0.66 3 1 C2.835 1.598125 2.67 2.19625 2.5 2.8125 C1.8885876 5.11344336 1.8885876 5.11344336 2 8 C1.34 8 0.68 8 0 8 C-1.125 2.25 -1.125 2.25 0 0 Z " fill="#D6C9CB" transform="translate(287,280)"/>
<path d="M0 0 C-2.46278801 2.46278801 -4.70676982 2.99771255 -8 4 C-8.66 3.01 -9.32 2.02 -10 1 C-6.1496895 -1.56687367 -4.41430237 -0.83288724 0 0 Z " fill="#DAD1D2" transform="translate(303,272)"/>
<path d="M0 0 C1.98 0 3.96 0 6 0 C6.33 1.32 6.66 2.64 7 4 C4.97954558 3.39816251 2.97888961 2.72693904 1 2 C0.67 1.34 0.34 0.68 0 0 Z " fill="#213E9E" transform="translate(411,349)"/>
<path d="M0 0 C0.99 0.33 1.98 0.66 3 1 C-1.75 5.875 -1.75 5.875 -4 7 C-3.43628586 3.73045798 -2.50037734 2.17424117 0 0 Z " fill="#2069E0" transform="translate(298,201)"/>
<path d="M0 0 C0.66 0.33 1.32 0.66 2 1 C0.95125002 3.62187494 0.35068687 4.79371361 -2.125 6.25 C-2.74375 6.4975 -3.3625 6.745 -4 7 C-3.43628586 3.73045798 -2.50037734 2.17424117 0 0 Z " fill="#3677E2" transform="translate(298,181)"/>
</svg>
